<?xml version="1.0" encoding="UTF-8"?>
<!DOCTYPE svg PUBLIC "-//W3C//DTD SVG 1.1//EN" "http://www.w3.org/Graphics/SVG/1.1/DTD/svg11.dtd">
<svg xmlns="http://www.w3.org/2000/svg" version="1.1" width="1024px" height="339px" style="shape-rendering:geometricPrecision; text-rendering:geometricPrecision; image-rendering:optimizeQuality; fill-rule:evenodd; clip-rule:evenodd" xmlns:xlink="http://www.w3.org/1999/xlink">
<g><path style="opacity:0.02" fill="#fe9900" d="M 83.5,5.5 C 84.8333,6.16667 84.8333,6.16667 83.5,5.5 Z"/></g>
<g><path style="opacity:0.012" fill="#feaa00" d="M 86.5,5.5 C 87.8333,6.16667 87.8333,6.16667 86.5,5.5 Z"/></g>
<g><path style="opacity:0.004" fill="#feff00" d="M 99.5,5.5 C 100.833,6.16667 100.833,6.16667 99.5,5.5 Z"/></g>
<g><path style="opacity:0.004" fill="#feff00" d="M 107.5,5.5 C 108.833,6.16667 108.833,6.16667 107.5,5.5 Z"/></g>
<g><path style="opacity:0.004" fill="#feff00" d="M 116.5,5.5 C 117.833,6.16667 117.833,6.16667 116.5,5.5 Z"/></g>
<g><path style="opacity:0.016" fill="#fe7f00" d="M 123.5,5.5 C 124.833,6.16667 124.833,6.16667 123.5,5.5 Z"/></g>
<g><path style="opacity:0.008" fill="#ff8d00" d="M 131.5,6.5 C 131.897,5.47498 132.563,5.30831 133.5,6C 132.906,6.46434 132.239,6.63101 131.5,6.5 Z"/></g>
<g><path style="opacity:0.008" fill="#fe7f00" d="M 139.5,5.5 C 140.833,6.16667 140.833,6.16667 139.5,5.5 Z"/></g>
<g><path style="opacity:0.004" fill="#feff00" d="M 153.5,5.5 C 154.833,6.16667 154.833,6.16667 153.5,5.5 Z"/></g>
<g><path style="opacity:0.012" fill="#feaa00" d="M 155.5,5.5 C 156.833,6.16667 156.833,6.16667 155.5,5.5 Z"/></g>
<g><path style="opacity:0.004" fill="#feff00" d="M 163.5,5.5 C 164.833,6.16667 164.833,6.16667 163.5,5.5 Z"/></g>
<g><path style="opacity:0.004" fill="#feff00" d="M 166.5,5.5 C 167.833,6.16667 167.833,6.16667 166.5,5.5 Z"/></g>
<g><path style="opacity:0.016" fill="#fe7f00" d="M 171.5,5.5 C 172.833,6.16667 172.833,6.16667 171.5,5.5 Z"/></g>
<g><path style="opacity:0.995" fill="#fd9500" d="M 175.5,8.5 C 181.176,13.3327 187.176,17.666 193.5,21.5C 199.811,26.9691 206.311,32.3024 213,37.5C 213.171,42.5329 213.671,47.5329 214.5,52.5C 217.675,52.8507 220.342,53.184 222.5,53.5C 244.236,54.1718 266.069,54.8384 288,55.5C 288.483,54.552 288.649,53.552 288.5,52.5C 289.451,53.9187 289.784,55.5853 289.5,57.5C 288.736,65.0079 288.069,72.6746 287.5,80.5C 287.621,81.8945 287.954,83.2278 288.5,84.5C 322.828,85.6666 357.162,85.8332 391.5,85C 357.664,84.8325 323.998,84.3325 290.5,83.5C 325.84,83.1668 361.173,83.5001 396.5,84.5C 396.201,90.9951 396.535,97.3284 397.5,103.5C 389.528,104.498 381.528,104.831 373.5,104.5C 373.5,131.833 373.5,159.167 373.5,186.5C 372.668,159.336 372.168,132.003 372,104.5C 371.5,112.827 371.334,121.16 371.5,129.5C 371.292,133.352 369.792,136.685 367,139.5C 366.692,138.692 366.192,138.025 365.5,137.5C 364.785,139.778 363.618,141.111 362,141.5C 361,140.833 360,140.167 359,139.5C 358.316,141.359 357.316,143.026 356,144.5C 355.768,142.717 356.268,141.05 357.5,139.5C 357.518,137.627 357.018,137.294 356,138.5C 355.5,138 355,137.5 354.5,137C 355.529,133.259 355.529,129.759 354.5,126.5C 355.025,125.808 355.692,125.308 356.5,125C 355.666,122.288 356,119.621 357.5,117C 356.833,116.667 356.167,116.333 355.5,116C 356.567,113.573 355.9,113.073 353.5,114.5C 353.5,110.5 353.5,106.5 353.5,102.5C 331.643,102.749 309.977,102.416 288.5,101.5C 288.709,111.111 288.376,120.778 287.5,130.5C 281.946,131.806 276.446,131.806 271,130.5C 270.5,111.17 270.333,91.8362 270.5,72.5C 251.164,72.3334 231.83,72.5 212.5,73C 211.507,92.4239 211.174,111.924 211.5,131.5C 206.156,131.666 200.823,131.499 195.5,131C 194.883,128.723 194.216,126.556 193.5,124.5C 192.833,124.5 192.5,124.167 192.5,123.5C 193.484,99.2974 193.817,75.1308 193.5,51C 185.65,44.5825 177.65,38.4158 169.5,32.5C 168.571,31.6851 167.571,30.8518 166.5,30C 156.59,29.8202 146.756,29.3202 137,28.5C 126.145,29.3925 115.312,29.3925 104.5,28.5C 103.5,29 102.5,29.5 101.5,30C 101.773,69.5846 102.107,108.585 102.5,147C 102.333,149.5 102.167,152 102,154.5C 101.399,156.359 100.566,156.692 99.5,155.5C 97.4294,154.191 94.9294,153.525 92,153.5C 89.1111,153.547 86.2778,153.88 83.5,154.5C 82.5001,106.171 82.1667,57.8379 82.5,9.5C 113.573,9.82528 144.573,9.49195 175.5,8.5 Z"/></g>
<g><path style="opacity:0.004" fill="#feff00" d="M 193.5,20.5 C 194.833,21.1667 194.833,21.1667 193.5,20.5 Z"/></g>
<g><path style="opacity:0.004" fill="#fe0000" d="M 475.5,23.5 C 476.833,24.1667 476.833,24.1667 475.5,23.5 Z"/></g>
<g><path style="opacity:0.004" fill="#feff00" d="M 107.5,30.5 C 108.833,31.1667 108.833,31.1667 107.5,30.5 Z"/></g>
<g><path style="opacity:0.008" fill="#fe7f00" d="M 152.5,30.5 C 153.833,31.1667 153.833,31.1667 152.5,30.5 Z"/></g>
<g><path style="opacity:0.004" fill="#feff00" d="M 169.5,32.5 C 168.833,33.1667 168.833,33.1667 169.5,32.5 Z"/></g>
<g><path style="opacity:0.004" fill="#feff00" d="M 172.5,36.5 C 173.833,37.1667 173.833,37.1667 172.5,36.5 Z"/></g>
<g><path style="opacity:0.861" fill="#fc8200" d="M 175.5,8.5 C 144.573,9.49195 113.573,9.82528 82.5,9.5C 82.1667,57.8379 82.5001,106.171 83.5,154.5C 86.2778,153.88 89.1111,153.547 92,153.5C 94.9294,153.525 97.4294,154.191 99.5,155.5C 98.6618,155.842 98.3284,156.508 98.5,157.5C 97.7784,157.082 97.2784,156.416 97,155.5C 96.7216,156.416 96.2216,157.082 95.5,157.5C 93.9448,156.367 92.1114,155.701 90,155.5C 88.2098,156.285 86.5431,156.285 85,155.5C 84,156.167 83,156.833 82,157.5C 81.5,156.333 80.6667,155.5 79.5,155C 80.4972,105.905 80.8306,56.7385 80.5,7.5C 112.338,7.16846 144.004,7.5018 175.5,8.5 Z"/></g>
<g><path style="opacity:0.004" fill="#feff00" d="M 137.5,52.5 C 138.833,53.1667 138.833,53.1667 137.5,52.5 Z"/></g>
<g><path style="opacity:0.016" fill="#ffa1fe" d="M 123.5,52.5 C 124.289,52.7828 124.956,53.2828 125.5,54C 124.184,54.5281 123.517,54.0281 123.5,52.5 Z"/></g>
<g><path style="opacity:0.004" fill="#feff00" d="M 126.5,53.5 C 127.833,54.1667 127.833,54.1667 126.5,53.5 Z"/></g>
<g><path style="opacity:0.008" fill="#fe7f00" d="M 155.5,53.5 C 156.833,54.1667 156.833,54.1667 155.5,53.5 Z"/></g>
<g><path style="opacity:0.004" fill="#feff00" d="M 163.5,53.5 C 164.833,54.1667 164.833,54.1667 163.5,53.5 Z"/></g>
<g><path style="opacity:0.996" fill="#fb7800" d="M 288.5,52.5 C 288.649,53.552 288.483,54.552 288,55.5C 266.069,54.8384 244.236,54.1718 222.5,53.5C 244.343,53.3025 266.343,52.9692 288.5,52.5 Z"/></g>
<g><path style="opacity:0.004" fill="#feff00" d="M 293.5,56.5 C 294.833,57.1667 294.833,57.1667 293.5,56.5 Z"/></g>
<g><path style="opacity:0.994" fill="#fd9300" d="M 150.5,55.5 C 156.842,55.3338 163.175,55.5005 169.5,56C 169.623,62.0156 169.623,68.1823 169.5,74.5C 163.158,74.6662 156.825,74.4995 150.5,74C 149.244,68.0409 149.244,61.8743 150.5,55.5 Z"/></g>
<g><path style="opacity:0.994" fill="#fd9200" d="M 119.5,55.5 C 125.842,55.3338 132.175,55.5005 138.5,56C 139.476,62.0758 139.81,68.2424 139.5,74.5C 132.833,74.5 126.167,74.5 119.5,74.5C 119.5,68.1667 119.5,61.8333 119.5,55.5 Z"/></g>
<g><path style="opacity:0.004" fill="#feff00" d="M 170.5,72.5 C 171.833,73.1667 171.833,73.1667 170.5,72.5 Z"/></g>
<g><path style="opacity:0.008" fill="#fe7f00" d="M 292.5,81.5 C 293.833,82.1667 293.833,82.1667 292.5,81.5 Z"/></g>
<g><path style="opacity:0.004" fill="#feff00" d="M 314.5,81.5 C 315.833,82.1667 315.833,82.1667 314.5,81.5 Z"/></g>
<g><path style="opacity:0.004" fill="#feff00" d="M 321.5,81.5 C 322.833,82.1667 322.833,82.1667 321.5,81.5 Z"/></g>
<g><path style="opacity:0.016" fill="#fe7f00" d="M 359.5,81.5 C 360.833,82.1667 360.833,82.1667 359.5,81.5 Z"/></g>
<g><path style="opacity:0.004" fill="#feff00" d="M 364.5,81.5 C 365.833,82.1667 365.833,82.1667 364.5,81.5 Z"/></g>
<g><path style="opacity:0.027" fill="#d99123" d="M 394.5,81.5 C 395.833,82.1667 395.833,82.1667 394.5,81.5 Z"/></g>
<g><path style="opacity:0.998" fill="#fd8100" d="M 289.5,57.5 C 289.242,66.6242 289.576,75.2909 290.5,83.5C 323.998,84.3325 357.664,84.8325 391.5,85C 357.162,85.8332 322.828,85.6666 288.5,84.5C 287.954,83.2278 287.621,81.8945 287.5,80.5C 288.069,72.6746 288.736,65.0079 289.5,57.5 Z"/></g>
<g><path style="opacity:0.993" fill="#fd9300" d="M 168.5,83.5 C 169.234,84.8775 169.901,86.3775 170.5,88C 169.322,93.2766 169.322,98.2766 170.5,103C 164.012,104.458 157.345,104.958 150.5,104.5C 150.334,97.825 150.5,91.1583 151,84.5C 156.416,85.6389 161.916,85.8056 167.5,85C 168.056,84.6174 168.389,84.1174 168.5,83.5 Z"/></g>
<g><path style="opacity:0.993" fill="#fd9100" d="M 129.5,84.5 C 132.706,84.5475 135.873,84.8808 139,85.5C 139.287,91.304 139.454,97.304 139.5,103.5C 132.574,104.516 125.908,104.516 119.5,103.5C 119.5,97.5 119.5,91.5 119.5,85.5C 123.042,85.8128 126.375,85.4794 129.5,84.5 Z"/></g>
<g><path style="opacity:0.004" fill="#feff00" d="M 171.5,97.5 C 172.833,98.1667 172.833,98.1667 171.5,97.5 Z"/></g>
<g><path style="opacity:0.008" fill="#fe7f00" d="M 148.5,98.5 C 149.833,99.1667 149.833,99.1667 148.5,98.5 Z"/></g>
<g><path style="opacity:0.77" fill="#fd8500" d="M 353.5,114.5 C 353.667,138.169 353.5,161.836 353,185.5C 350.734,217.206 338.734,244.539 317,267.5C 299.212,285.814 277.712,297.481 252.5,302.5C 251.274,302.48 250.274,302.147 249.5,301.5C 299.182,290.15 331.515,260.15 346.5,211.5C 348.95,204.497 350.45,197.164 351,189.5C 351.5,161.169 351.667,132.835 351.5,104.5C 330.833,104.5 310.167,104.5 289.5,104.5C 289.666,114.839 289.5,125.172 289,135.5C 288.617,134.944 288.117,134.611 287.5,134.5C 281.355,133.51 275.022,133.177 268.5,133.5C 268.5,113.833 268.5,94.1667 268.5,74.5C 250.167,74.5 231.833,74.5 213.5,74.5C 213.5,94.1667 213.5,113.833 213.5,133.5C 206.171,134.537 198.837,134.037 191.5,132C 193.113,129.772 193.78,127.272 193.5,124.5C 194.216,126.556 194.883,128.723 195.5,131C 200.823,131.499 206.156,131.666 211.5,131.5C 211.174,111.924 211.507,92.4239 212.5,73C 231.83,72.5 251.164,72.3334 270.5,72.5C 270.333,91.8362 270.5,111.17 271,130.5C 276.446,131.806 281.946,131.806 287.5,130.5C 288.376,120.778 288.709,111.111 288.5,101.5C 309.977,102.416 331.643,102.749 353.5,102.5C 353.5,106.5 353.5,110.5 353.5,114.5 Z"/></g>
<g><path style="opacity:0.008" fill="#fe7f00" d="M 266.5,100.5 C 267.833,101.167 267.833,101.167 266.5,100.5 Z"/></g>
<g><path style="opacity:0.012" fill="#feaa00" d="M 254.5,99.5 C 255.833,100.167 255.833,100.167 254.5,99.5 Z"/></g>
<g><path style="opacity:0.004" fill="#feff00" d="M 252.5,97.5 C 253.833,98.1667 253.833,98.1667 252.5,97.5 Z"/></g>
<g><path style="opacity:0.004" fill="#feff00" d="M 214.5,97.5 C 215.833,98.1667 215.833,98.1667 214.5,97.5 Z"/></g>
<g><path style="opacity:0.004" fill="#feff00" d="M 266.5,96.5 C 267.833,97.1667 267.833,97.1667 266.5,96.5 Z"/></g>
<g><path style="opacity:0.008" fill="#fe7f00" d="M 266.5,94.5 C 267.833,95.1667 267.833,95.1667 266.5,94.5 Z"/></g>
<g><path style="opacity:0.012" fill="#feaa00" d="M 266.5,92.5 C 267.833,93.1667 267.833,93.1667 266.5,92.5 Z"/></g>
<g><path style="opacity:0.004" fill="#feff00" d="M 266.5,88.5 C 267.833,89.1667 267.833,89.1667 266.5,88.5 Z"/></g>
<g><path style="opacity:0.008" fill="#fe7f00" d="M 252.5,88.5 C 253.833,89.1667 253.833,89.1667 252.5,88.5 Z"/></g>
<g><path style="opacity:0.993" fill="#fe9300" d="M 237.5,84.5 C 240.304,85.6378 243.304,85.8045 246.5,85C 247.791,82.1216 249.291,82.2883 251,85.5C 251.667,91.5 251.667,97.5 251,103.5C 244.59,104.478 238.09,104.811 231.5,104.5C 231.5,98.1667 231.5,91.8333 231.5,85.5C 233.621,85.6747 235.621,85.3414 237.5,84.5 Z"/></g>
<g><path style="opacity:0.008" fill="#fe7f00" d="M 253.5,84.5 C 254.833,85.1667 254.833,85.1667 253.5,84.5 Z"/></g>
<g><path style="opacity:0.004" fill="#feff00" d="M 266.5,83.5 C 267.833,84.1667 267.833,84.1667 266.5,83.5 Z"/></g>
<g><path style="opacity:0.008" fill="#fe7f00" d="M 239.5,83.5 C 240.833,84.1667 240.833,84.1667 239.5,83.5 Z"/></g>
<g><path style="opacity:0.004" fill="#feff00" d="M 237.5,83.5 C 238.833,84.1667 238.833,84.1667 237.5,83.5 Z"/></g>
<g><path style="opacity:0.008" fill="#ff8700" d="M 266.5,78.5 C 267.525,78.8966 267.692,79.5632 267,80.5C 266.536,79.9056 266.369,79.2389 266.5,78.5 Z"/></g>
<g><path style="opacity:0.008" fill="#ffacfe" d="M 214.5,77.5 C 215.525,77.8966 215.692,78.5632 215,79.5C 214.536,78.9056 214.369,78.2389 214.5,77.5 Z"/></g>
<g><path style="opacity:0.004" fill="#feff00" d="M 266.5,75.5 C 267.833,76.1667 267.833,76.1667 266.5,75.5 Z"/></g>
<g><path style="opacity:0.004" fill="#feff00" d="M 234.5,75.5 C 235.833,76.1667 235.833,76.1667 234.5,75.5 Z"/></g>
<g><path style="opacity:0.004" fill="#feff00" d="M 219.5,75.5 C 220.833,76.1667 220.833,76.1667 219.5,75.5 Z"/></g>
<g><path style="opacity:0.02" fill="#fe9900" d="M 214.5,75.5 C 215.833,76.1667 215.833,76.1667 214.5,75.5 Z"/></g>
<g><path style="opacity:0.004" fill="#feff00" d="M 266.5,107.5 C 267.833,108.167 267.833,108.167 266.5,107.5 Z"/></g>
<g><path style="opacity:0.004" fill="#feff00" d="M 266.5,109.5 C 267.833,110.167 267.833,110.167 266.5,109.5 Z"/></g>
<g><path style="opacity:0.008" fill="#fe7f00" d="M 191.5,113.5 C 192.525,113.897 192.692,114.563 192,115.5C 191.536,114.906 191.369,114.239 191.5,113.5 Z"/></g>
<g><path style="opacity:0.993" fill="#fd9200" d="M 119.5,114.5 C 125.842,114.334 132.175,114.5 138.5,115C 138.271,120.883 138.604,127.05 139.5,133.5C 132.833,133.5 126.167,133.5 119.5,133.5C 119.5,127.167 119.5,120.833 119.5,114.5 Z"/></g>
<g><path style="opacity:0.992" fill="#fd9200" d="M 250.5,134.5 C 244.5,133.167 238.5,133.167 232.5,134.5C 231.509,128.021 231.176,121.354 231.5,114.5C 238.322,114.192 244.988,114.192 251.5,114.5C 251.824,121.354 251.491,128.021 250.5,134.5 Z"/></g>
<g><path style="opacity:0.008" fill="#fe7f00" d="M 266.5,119.5 C 267.833,120.167 267.833,120.167 266.5,119.5 Z"/></g>
<g><path style="opacity:0.004" fill="#feff00" d="M 266.5,121.5 C 267.833,122.167 267.833,122.167 266.5,121.5 Z"/></g>
<g><path style="opacity:0.004" fill="#feff00" d="M 192.5,123.5 C 191.833,122.167 191.833,122.167 192.5,123.5 Z"/></g>
<g><path style="opacity:0.004" fill="#feff00" d="M 266.5,123.5 C 267.833,124.167 267.833,124.167 266.5,123.5 Z"/></g>
<g><path style="opacity:0.993" fill="#fd9200" d="M 150.5,114.5 C 156.833,114.5 163.167,114.5 169.5,114.5C 169.5,120.833 169.5,127.167 169.5,133.5C 163.321,133.832 156.988,133.832 150.5,133.5C 150.5,127.167 150.5,120.833 150.5,114.5 Z"/></g>
<g><path style="opacity:0.004" fill="#ffe0fe" d="M 214.5,125.5 C 215.573,126.251 215.74,127.251 215,128.5C 214.517,127.552 214.351,126.552 214.5,125.5 Z"/></g>
<g><path style="opacity:0.004" fill="#feff00" d="M 148.5,127.5 C 149.833,128.167 149.833,128.167 148.5,127.5 Z"/></g>
<g><path style="opacity:0.004" fill="#feff00" d="M 266.5,127.5 C 267.833,128.167 267.833,128.167 266.5,127.5 Z"/></g>
<g><path style="opacity:0.008" fill="#fe7f00" d="M 140.5,129.5 C 141.833,130.167 141.833,130.167 140.5,129.5 Z"/></g>
<g><path style="opacity:0.012" fill="#feaa00" d="M 214.5,129.5 C 215.833,130.167 215.833,130.167 214.5,129.5 Z"/></g>
<g><path style="opacity:0.004" fill="#feff00" d="M 142.5,131.5 C 143.833,132.167 143.833,132.167 142.5,131.5 Z"/></g>
<g><path style="opacity:0.012" fill="#feaa00" d="M 214.5,131.5 C 215.833,132.167 215.833,132.167 214.5,131.5 Z"/></g>
<g><path style="opacity:0.008" fill="#fe7f00" d="M 120.5,134.5 C 121.833,135.167 121.833,135.167 120.5,134.5 Z"/></g>
<g><path style="opacity:0.004" fill="#ffd0fe" d="M 122.5,135.5 C 123.601,134.402 124.934,134.235 126.5,135C 125.122,136.334 123.789,136.501 122.5,135.5 Z"/></g>
<g><path style="opacity:0.01" fill="#fe7f00" d="M 135.5,135.5 C 136.251,134.427 137.251,134.26 138.5,135C 137.552,135.483 136.552,135.649 135.5,135.5 Z"/></g>
<g><path style="opacity:0.004" fill="#feff00" d="M 158.5,134.5 C 159.833,135.167 159.833,135.167 158.5,134.5 Z"/></g>
<g><path style="opacity:0.008" fill="#fe7f00" d="M 168.5,134.5 C 169.833,135.167 169.833,135.167 168.5,134.5 Z"/></g>
<g><path style="opacity:0.008" fill="#fe7f00" d="M 193.5,134.5 C 194.833,135.167 194.833,135.167 193.5,134.5 Z"/></g>
<g><path style="opacity:0.004" fill="#ffe3ff" d="M 196.5,135.5 C 196.897,134.475 197.563,134.308 198.5,135C 197.906,135.464 197.239,135.631 196.5,135.5 Z"/></g>
<g><path style="opacity:0.004" fill="#feff00" d="M 201.5,134.5 C 202.833,135.167 202.833,135.167 201.5,134.5 Z"/></g>
<g><path style="opacity:0.008" fill="#fe7f00" d="M 206.5,134.5 C 207.833,135.167 207.833,135.167 206.5,134.5 Z"/></g>
<g><path style="opacity:0.008" fill="#fe8300" d="M 208.5,135.5 C 208.897,134.475 209.563,134.308 210.5,135C 209.906,135.464 209.239,135.631 208.5,135.5 Z"/></g>
<g><path style="opacity:0.004" fill="#feff00" d="M 212.5,135.5 C 211.833,134.167 211.833,134.167 212.5,135.5 Z"/></g>
<g><path style="opacity:0.012" fill="#feaa00" d="M 232.5,134.5 C 233.833,135.167 233.833,135.167 232.5,134.5 Z"/></g>
<g><path style="opacity:0.016" fill="#fe7f00" d="M 235.5,134.5 C 236.833,135.167 236.833,135.167 235.5,134.5 Z"/></g>
<g><path style="opacity:0.012" fill="#ff9500" d="M 250.5,134.5 C 249.749,135.573 248.749,135.74 247.5,135C 248.448,134.517 249.448,134.351 250.5,134.5 Z"/></g>
<g><path style="opacity:0.016" fill="#fe7f00" d="M 270.5,134.5 C 271.833,135.167 271.833,135.167 270.5,134.5 Z"/></g>
<g><path style="opacity:0.004" fill="#feff00" d="M 276.5,134.5 C 277.833,135.167 277.833,135.167 276.5,134.5 Z"/></g>
<g><path style="opacity:0.004" fill="#feff00" d="M 279.5,134.5 C 280.833,135.167 280.833,135.167 279.5,134.5 Z"/></g>
<g><path style="opacity:0.004" fill="#feff00" d="M 281.5,135.5 C 281.897,134.475 282.563,134.308 283.5,135C 282.906,135.464 282.239,135.631 281.5,135.5 Z"/></g>
<g><path style="opacity:0.004" fill="#feff00" d="M 287.5,134.5 C 286.833,135.167 286.833,135.167 287.5,134.5 Z"/></g>
<g><path style="opacity:0.004" fill="#000000" d="M 423.5,134.5 C 424.833,135.167 424.833,135.167 423.5,134.5 Z"/></g>
<g><path style="opacity:0.004" fill="#000000" d="M 425.5,134.5 C 426.833,135.167 426.833,135.167 425.5,134.5 Z"/></g>
<g><path style="opacity:0.004" fill="#000000" d="M 431.5,135.5 C 430.833,134.167 430.833,134.167 431.5,135.5 Z"/></g>
<g><path style="opacity:0.004" fill="#feff00" d="M 212.5,135.5 C 213.833,136.167 213.833,136.167 212.5,135.5 Z"/></g>
<g><path style="opacity:0.008" fill="#ffacfe" d="M 238.5,134.5 C 239.525,134.897 239.692,135.563 239,136.5C 238.536,135.906 238.369,135.239 238.5,134.5 Z"/></g>
<g><path style="opacity:0.012" fill="#545554" d="M 605.5,137.5 C 606.833,138.167 606.833,138.167 605.5,137.5 Z"/></g>
<g><path style="opacity:0.016" fill="#2b2b2b" d="M 738.5,138.5 C 738.897,137.475 739.563,137.308 740.5,138C 739.906,138.464 739.239,138.631 738.5,138.5 Z"/></g>
<g><path style="opacity:0.016" fill="#3e3f3e" d="M 874.5,137.5 C 875.833,138.167 875.833,138.167 874.5,137.5 Z"/></g>
<g><path style="opacity:0.008" fill="#7e7f7e" d="M 877.5,137.5 C 878.833,138.167 878.833,138.167 877.5,137.5 Z"/></g>
<g><path style="opacity:0.008" fill="#7e7f7e" d="M 944.5,138.5 C 943.833,137.167 943.833,137.167 944.5,138.5 Z"/></g>
<g><path style="opacity:0.008" fill="#7e7f7e" d="M 436.5,138.5 C 437.833,139.167 437.833,139.167 436.5,138.5 Z"/></g>
<g><path style="opacity:0.008" fill="#7e7f7e" d="M 464.5,139.5 C 463.833,138.167 463.833,138.167 464.5,139.5 Z"/></g>
<g><path style="opacity:0.008" fill="#7e7f7e" d="M 506.5,138.5 C 507.833,139.167 507.833,139.167 506.5,138.5 Z"/></g>
<g><path style="opacity:0.008" fill="#7e7f7e" d="M 629.5,138.5 C 630.833,139.167 630.833,139.167 629.5,138.5 Z"/></g>
<g><path style="opacity:0.004" fill="#000000" d="M 738.5,138.5 C 737.833,139.167 737.833,139.167 738.5,138.5 Z"/></g>
<g><path style="opacity:0.004" fill="#000000" d="M 802.5,138.5 C 803.833,139.167 803.833,139.167 802.5,138.5 Z"/></g>
<g><path style="opacity:0.004" fill="#000000" d="M 944.5,138.5 C 945.833,139.167 945.833,139.167 944.5,138.5 Z"/></g>
<g><path style="opacity:0.004" fill="#000000" d="M 947.5,138.5 C 948.833,139.167 948.833,139.167 947.5,138.5 Z"/></g>
<g><path style="opacity:0.004" fill="#000000" d="M 851.5,139.5 C 852.833,140.167 852.833,140.167 851.5,139.5 Z"/></g>
<g><path style="opacity:0.004" fill="#000000" d="M 415.5,140.5 C 416.833,141.167 416.833,141.167 415.5,140.5 Z"/></g>
<g><path style="opacity:0.008" fill="#7e7f7e" d="M 695.5,140.5 C 696.833,141.167 696.833,141.167 695.5,140.5 Z"/></g>
<g><path style="opacity:0.004" fill="#000000" d="M 417.5,141.5 C 418.833,142.167 418.833,142.167 417.5,141.5 Z"/></g>
<g><path style="opacity:1" fill="#2c2d2d" d="M 735.5,153.5 C 729.013,152.672 722.346,152.172 715.5,152C 723.827,151.5 732.16,151.334 740.5,151.5C 740.5,148.5 740.5,145.5 740.5,142.5C 727.5,142.5 714.5,142.5 701.5,142.5C 701.5,158.5 701.5,174.5 701.5,190.5C 714.833,190.5 728.167,190.5 741.5,190.5C 741.5,187.167 741.5,183.833 741.5,180.5C 731.833,180.5 722.167,180.5 712.5,180.5C 712.664,174.833 712.997,174.5 713.5,179.5C 721.352,179.825 729.018,179.492 736.5,178.5C 736.842,177.662 737.508,177.328 738.5,177.5C 738.389,178.117 738.056,178.617 737.5,179C 739.134,179.494 740.801,179.66 742.5,179.5C 742.5,183.5 742.5,187.5 742.5,191.5C 728.5,191.5 714.5,191.5 700.5,191.5C 699.774,174.92 699.441,158.587 699.5,142.5C 701.777,141.077 704.277,140.411 707,140.5C 718.592,140.762 730.092,140.928 741.5,141C 741.281,144.766 741.614,148.933 742.5,153.5C 740.167,153.5 737.833,153.5 735.5,153.5 Z"/></g>
<g><path style="opacity:0.004" fill="#000000" d="M 948.5,141.5 C 949.833,142.167 949.833,142.167 948.5,141.5 Z"/></g>
<g><path style="opacity:0.008" fill="#7e7f7e" d="M 559.5,142.5 C 560.833,143.167 560.833,143.167 559.5,142.5 Z"/></g>
<g><path style="opacity:0.004" fill="#000000" d="M 602.5,142.5 C 603.833,143.167 603.833,143.167 602.5,142.5 Z"/></g>
<g><path style="opacity:0.004" fill="#000000" d="M 696.5,142.5 C 697.833,143.167 697.833,143.167 696.5,142.5 Z"/></g>
<g><path style="opacity:0.004" fill="#222222" d="M 852.5,141.5 C 853.573,142.251 853.74,143.251 853,144.5C 852.517,143.552 852.351,142.552 852.5,141.5 Z"/></g>
<g><path style="opacity:0.016" fill="#535353" d="M 960.5,142.5 C 961.525,142.897 961.692,143.563 961,144.5C 960.536,143.906 960.369,143.239 960.5,142.5 Z"/></g>
<g><path style="opacity:0.012" fill="#545554" d="M 559.5,144.5 C 560.833,145.167 560.833,145.167 559.5,144.5 Z"/></g>
<g><path style="opacity:0.004" fill="#000000" d="M 800.5,144.5 C 801.833,145.167 801.833,145.167 800.5,144.5 Z"/></g>
<g><path style="opacity:0.008" fill="#7e7f7e" d="M 697.5,145.5 C 698.833,146.167 698.833,146.167 697.5,145.5 Z"/></g>
<g><path style="opacity:0.008" fill="#7e7f7e" d="M 399.5,146.5 C 400.833,147.167 400.833,147.167 399.5,146.5 Z"/></g>
<g><path style="opacity:0.992" fill="#494a4b" d="M 976.5,139.5 C 977.163,159.402 977.496,179.402 977.5,199.5C 976.679,196.359 976.179,193.025 976,189.5C 975.5,203.829 975.333,218.163 975.5,232.5C 971.486,232.666 967.486,232.499 963.5,232C 964.496,201.574 964.829,171.074 964.5,140.5C 968.437,140.207 972.27,140.54 976,141.5C 976.464,140.906 976.631,140.239 976.5,139.5 Z"/></g>
<g><path style="opacity:0.004" fill="#000000" d="M 960.5,149.5 C 961.833,150.167 961.833,150.167 960.5,149.5 Z"/></g>
<g><path style="opacity:0.008" fill="#7e7f7e" d="M 602.5,150.5 C 603.833,151.167 603.833,151.167 602.5,150.5 Z"/></g>
<g><path style="opacity:0.008" fill="#7e7f7e" d="M 746.5,150.5 C 747.833,151.167 747.833,151.167 746.5,150.5 Z"/></g>
<g><path style="opacity:0.292" fill="#4f5051" d="M 782.5,193.5 C 782.5,175.5 782.5,157.5 782.5,139.5C 778.167,139.5 773.833,139.5 769.5,139.5C 769.783,138.711 770.283,138.044 771,137.5C 775.228,137.599 779.394,137.933 783.5,138.5C 783.83,157.008 783.497,175.341 782.5,193.5 Z"/></g>
<g><path style="opacity:0.994" fill="#3c3a38" d="M 431.5,135.5 C 432.822,135.33 433.989,135.663 435,136.5C 434.435,139.712 434.602,142.879 435.5,146C 442.082,146.81 448.582,146.643 455,145.5C 455.374,146.416 455.874,147.25 456.5,148C 455.663,151.581 455.329,155.081 455.5,158.5C 449.13,159.441 443.297,159.441 438,158.5C 436.933,159.191 435.766,159.691 434.5,160C 448.586,163.053 454.586,171.553 452.5,185.5C 453.254,176.176 449.587,169.01 441.5,164C 439.835,163.212 438.169,162.878 436.5,163C 436.833,164.667 437.167,166.333 437.5,168C 435.396,171.448 434.063,171.114 433.5,167C 433.957,166.586 434.291,166.086 434.5,165.5C 432.821,164.218 430.987,163.218 429,162.5C 425.306,162.556 421.473,162.723 417.5,163C 414.638,163.93 412.305,165.597 410.5,168C 409.563,168.692 408.897,168.525 408.5,167.5C 409.973,165.605 411.64,163.939 413.5,162.5C 416.738,161.367 420.071,160.533 423.5,160C 417.72,159.646 412.22,159.146 407,158.5C 404.592,160.624 402.092,160.457 399.5,158C 401.578,156.73 401.912,155.23 400.5,153.5C 401.388,150.946 401.721,148.279 401.5,145.5C 407.477,146.165 413.477,146.498 419.5,146.5C 419.5,143.167 419.5,139.833 419.5,136.5C 423.702,136.817 427.702,136.483 431.5,135.5 Z"/></g>
<g><path style="opacity:0.988" fill="#4c4c4d" d="M 421.5,137.5 C 425.169,138.751 428.836,138.751 432.5,137.5C 433.652,140.106 433.818,142.773 433,145.5C 432.331,142.972 431.498,142.972 430.5,145.5C 431.025,146.192 431.692,146.692 432.5,147C 432.167,147.333 431.833,147.667 431.5,148C 434.124,148.576 434.791,149.91 433.5,152C 434.025,152.692 434.692,153.192 435.5,153.5C 436.425,152.359 437.259,152.359 438,153.5C 438.483,152.552 438.649,151.552 438.5,150.5C 437.5,150.5 436.5,150.5 435.5,150.5C 435.5,149.5 435.5,148.5 435.5,147.5C 441.833,147.5 448.167,147.5 454.5,147.5C 454.5,150.833 454.5,154.167 454.5,157.5C 437.167,157.5 419.833,157.5 402.5,157.5C 402.5,154.167 402.5,150.833 402.5,147.5C 408.833,147.5 415.167,147.5 421.5,147.5C 421.5,144.167 421.5,140.833 421.5,137.5 Z"/></g>
<g><path style="opacity:0.004" fill="#000000" d="M 800.5,151.5 C 801.833,152.167 801.833,152.167 800.5,151.5 Z"/></g>
<g><path style="opacity:0.951" fill="#2c2d2d" d="M 649.5,153.5 C 658.318,152.507 667.318,152.173 676.5,152.5C 676.5,149.167 676.5,145.833 676.5,142.5C 653.167,142.5 629.833,142.5 606.5,142.5C 606.5,145.833 606.5,149.167 606.5,152.5C 616.833,152.5 627.167,152.5 637.5,152.5C 637.509,154.308 637.009,155.975 636,157.5C 635.31,158.738 634.81,158.738 634.5,157.5C 635.028,156.153 635.195,154.819 635,153.5C 625.043,153.549 614.876,153.549 604.5,153.5C 604.376,148.965 604.709,144.799 605.5,141C 614.333,140.833 623.167,140.667 632,140.5C 647.708,140.92 662.875,141.087 677.5,141C 678.464,145.066 678.797,149.233 678.5,153.5C 668.833,153.5 659.167,153.5 649.5,153.5 Z"/></g>
<g><path style="opacity:0.004" fill="#000000" d="M 861.5,152.5 C 862.833,153.167 862.833,153.167 861.5,152.5 Z"/></g>
<g><path style="opacity:0.991" fill="#2f2f30" d="M 913.5,141.5 C 909.366,142.485 905.032,142.818 900.5,142.5C 900.5,145.833 900.5,149.167 900.5,152.5C 911.833,152.5 923.167,152.5 934.5,152.5C 934.822,158.358 934.489,164.025 933.5,169.5C 933.5,164.5 933.5,159.5 933.5,154.5C 922.162,154.667 910.828,154.5 899.5,154C 898.374,150.256 898.207,146.423 899,142.5C 899.5,142 900,141.5 900.5,141C 905.219,141.429 909.552,141.596 913.5,141.5 Z"/></g>
<g><path style="opacity:0.004" fill="#feff00" d="M 191.5,153.5 C 192.833,154.167 192.833,154.167 191.5,153.5 Z"/></g>
<g><path style="opacity:0.008" fill="#fe7f00" d="M 279.5,153.5 C 280.833,154.167 280.833,154.167 279.5,153.5 Z"/></g>
<g><path style="opacity:0.012" fill="#a95554" d="M 400.5,153.5 C 399.833,154.167 399.833,154.167 400.5,153.5 Z"/></g>
<g><path style="opacity:0.008" fill="#7e7f7e" d="M 652.5,154.5 C 653.833,155.167 653.833,155.167 652.5,154.5 Z"/></g>
<g><path style="opacity:0.941" fill="#353536" d="M 575.5,155.5 C 579.841,155.16 584.507,154.994 589.5,155C 590.629,159.079 590.796,163.245 590,167.5C 585.251,168.305 580.418,168.805 575.5,169C 576.303,174.414 576.636,179.748 576.5,185C 575.751,186.734 575.251,188.567 575,190.5C 570.599,189.533 566.099,189.2 561.5,189.5C 561.5,172.5 561.5,155.5 561.5,138.5C 566.115,137.937 570.615,137.937 575,138.5C 575.374,139.416 575.874,140.25 576.5,141C 576.111,145.907 575.778,150.741 575.5,155.5 Z"/></g>
<g><path style="opacity:0.004" fill="#feff00" d="M 152.5,156.5 C 153.833,157.167 153.833,157.167 152.5,156.5 Z"/></g>
<g><path style="opacity:0.012" fill="#feaa00" d="M 207.5,156.5 C 208.833,157.167 208.833,157.167 207.5,156.5 Z"/></g>
<g><path style="opacity:0.008" fill="#fe7f00" d="M 211.5,156.5 C 212.833,157.167 212.833,157.167 211.5,156.5 Z"/></g>
<g><path style="opacity:0.016" fill="#fe7f00" d="M 285.5,156.5 C 286.833,157.167 286.833,157.167 285.5,156.5 Z"/></g>
<g><path style="opacity:0.004" fill="#feff00" d="M 295.5,156.5 C 296.833,157.167 296.833,157.167 295.5,156.5 Z"/></g>
<g><path style="opacity:0.004" fill="#feff00" d="M 297.5,156.5 C 298.833,157.167 298.833,157.167 297.5,156.5 Z"/></g>
<g><path style="opacity:0.004" fill="#191919" d="M 715.5,155.5 C 716.573,156.251 716.74,157.251 716,158.5C 715.517,157.552 715.351,156.552 715.5,155.5 Z"/></g>
<g><path style="opacity:0.004" fill="#000000" d="M 831.5,156.5 C 832.833,157.167 832.833,157.167 831.5,156.5 Z"/></g>
<g><path style="opacity:0.004" fill="#feff00" d="M 92.5,157.5 C 93.8333,158.167 93.8333,158.167 92.5,157.5 Z"/></g>
<g><path style="opacity:0.004" fill="#feff00" d="M 95.5,157.5 C 94.8333,158.167 94.8333,158.167 95.5,157.5 Z"/></g>
<g><path style="opacity:0.004" fill="#feff00" d="M 98.5,157.5 C 99.8333,158.167 99.8333,158.167 98.5,157.5 Z"/></g>
<g><path style="opacity:0.004" fill="#feff00" d="M 101.5,157.5 C 102.833,158.167 102.833,158.167 101.5,157.5 Z"/></g>
<g><path style="opacity:0.012" fill="#626262" d="M 718.5,156.5 C 719.525,156.897 719.692,157.563 719,158.5C 718.536,157.906 718.369,157.239 718.5,156.5 Z"/></g>
<g><path style="opacity:0.993" fill="#464647" d="M 464.5,139.5 C 465.807,138.847 467.14,138.18 468.5,137.5C 472.094,138.426 475.76,138.759 479.5,138.5C 479.5,147.5 479.5,156.5 479.5,165.5C 484.167,165.5 488.833,165.5 493.5,165.5C 494.501,168.671 494.501,171.671 493.5,174.5C 493.977,175.478 494.643,176.311 495.5,177C 490.279,178.232 484.946,178.899 479.5,179C 480.302,188.361 480.469,197.861 480,207.5C 474.928,208.471 469.762,208.805 464.5,208.5C 465.567,184.566 465.567,161.566 464.5,139.5 Z"/></g>
<g><path style="opacity:0.678" fill="#323333" d="M 877.5,165.5 C 881.634,166.485 885.968,166.818 890.5,166.5C 890.665,170.182 890.499,173.848 890,177.5C 889.502,174.183 889.335,170.85 889.5,167.5C 885.167,167.5 880.833,167.5 876.5,167.5C 876.5,158.833 876.5,150.167 876.5,141.5C 872.833,141.5 869.167,141.5 865.5,141.5C 865.5,163.167 865.5,184.833 865.5,206.5C 869.167,206.5 872.833,206.5 876.5,206.5C 876.168,196.415 876.501,187.082 877.5,178.5C 877.679,187.349 878.012,196.182 878.5,205C 877.773,206.399 877.273,207.899 877,209.5C 872.92,208.7 868.753,208.2 864.5,208C 863.838,196.574 863.505,185.074 863.5,173.5C 863.342,161.681 863.842,150.014 865,138.5C 865.893,139.081 866.893,139.415 868,139.5C 869.573,139.155 870.74,138.489 871.5,137.5C 874.009,138.836 876.676,139.67 879.5,140C 879,140.5 878.5,141 878,141.5C 877.653,149.661 877.486,157.661 877.5,165.5 Z"/></g>
<g><path style="opacity:0.012" fill="#545554" d="M 834.5,159.5 C 835.833,160.167 835.833,160.167 834.5,159.5 Z"/></g>
<g><path style="opacity:0.004" fill="#000000" d="M 931.5,159.5 C 932.833,160.167 932.833,160.167 931.5,159.5 Z"/></g>
<g><path style="opacity:0.994" fill="#fe9400" d="M 165.5,174.5 C 164.754,175.531 164.42,177.364 164.5,180C 164.581,182.625 165.248,184.959 166.5,187C 176.184,187.832 185.851,187.665 195.5,186.5C 196.167,184.167 196.833,181.833 197.5,179.5C 196.379,173.886 196.212,168.22 197,162.5C 201.524,160.301 206.191,159.968 211,161.5C 211.5,185.498 211.667,209.498 211.5,233.5C 206.986,233.232 202.653,232.399 198.5,231C 200.999,231.117 203.665,230.784 206.5,230C 204.782,229.654 203.115,229.154 201.5,228.5C 200.914,228.709 200.414,229.043 200,229.5C 199.073,225.738 199.573,222.238 201.5,219C 200.65,217.714 199.483,217.881 198,219.5C 197.691,218.234 197.191,217.067 196.5,216C 197.127,211.386 197.46,206.72 197.5,202C 185.783,201.183 175.45,201.35 166.5,202.5C 166.051,212.334 165.884,222.668 166,233.5C 160,234.167 154,234.833 148,235.5C 147.308,234.975 146.808,234.308 146.5,233.5C 146.833,232.167 147.167,230.833 147.5,229.5C 146.757,228.818 146.091,228.151 145.5,227.5C 146.376,227.631 147.043,227.298 147.5,226.5C 147.028,204.09 146.695,181.423 146.5,158.5C 153.2,158.17 159.866,158.503 166.5,159.5C 166.728,164.51 166.394,169.51 165.5,174.5 Z"/></g>
<g><path style="opacity:0.02" fill="#fe9900" d="M 301.5,160.5 C 302.833,161.167 302.833,161.167 301.5,160.5 Z"/></g>
<g><path style="opacity:0.995" fill="#4b4c4d" d="M 575.5,155.5 C 579.634,156.485 583.968,156.818 588.5,156.5C 588.5,159.833 588.5,163.167 588.5,166.5C 584.154,166.334 579.821,166.501 575.5,167C 574.686,173.753 574.186,180.586 574,187.5C 570.606,186.544 567.106,186.211 563.5,186.5C 563.5,171.167 563.5,155.833 563.5,140.5C 567.167,140.5 570.833,140.5 574.5,140.5C 574.179,145.695 574.513,150.695 575.5,155.5 Z"/></g>
<g><path style="opacity:0.996" fill="#4a4b4c" d="M 762.5,143.5 C 761.566,142.432 761.232,141.099 761.5,139.5C 758.15,139.335 754.817,139.502 751.5,140C 754.426,140.218 757.26,140.718 760,141.5C 760.499,147.491 760.666,153.491 760.5,159.5C 763.833,159.5 767.167,159.5 770.5,159.5C 770.5,153.167 770.5,146.833 770.5,140.5C 774.167,140.5 777.833,140.5 781.5,140.5C 781.5,157.833 781.5,175.167 781.5,192.5C 777.833,192.5 774.167,192.5 770.5,192.5C 770.666,185.159 770.5,177.826 770,170.5C 766.725,168.909 763.725,169.242 761,171.5C 760.667,177.833 760.333,184.167 760,190.5C 756.943,191.451 753.777,191.784 750.5,191.5C 750.667,174.163 750.5,156.83 750,139.5C 749.5,157.164 749.333,174.83 749.5,192.5C 753.5,192.5 757.5,192.5 761.5,192.5C 756.377,194.114 751.377,193.614 746.5,191C 748.478,173.738 749.145,156.238 748.5,138.5C 753.167,138.5 757.833,138.5 762.5,138.5C 762.5,140.167 762.5,141.833 762.5,143.5 Z"/></g>
<g><path style="opacity:0.004" fill="#000000" d="M 861.5,160.5 C 862.833,161.167 862.833,161.167 861.5,160.5 Z"/></g>
<g><path style="opacity:0.016" fill="#7e7f3e" d="M 413.5,162.5 C 412.833,161.167 412.833,161.167 413.5,162.5 Z"/></g>
<g><path style="opacity:0.004" fill="#000000" d="M 814.5,161.5 C 815.833,162.167 815.833,162.167 814.5,161.5 Z"/></g>
<g><path style="opacity:0.004" fill="#feff00" d="M 231.5,162.5 C 232.833,163.167 232.833,163.167 231.5,162.5 Z"/></g>
<g><path style="opacity:1" fill="#fd8500" d="M 279.5,201.5 C 280.164,203.487 281.331,205.154 283,206.5C 283.167,206.167 283.333,205.833 283.5,205.5C 283.342,198.26 283.008,190.594 282.5,182.5C 283.222,182.082 283.722,181.416 284,180.5C 284.351,189.584 284.851,198.417 285.5,207C 283.782,208.037 281.949,208.537 280,208.5C 279.64,206.392 278.973,204.392 278,202.5C 268.962,189.296 260.128,175.963 251.5,162.5C 246.415,160.385 241.248,160.052 236,161.5C 235.333,185.167 235.333,208.833 236,232.5C 240.401,233.467 244.901,233.8 249.5,233.5C 249.333,220.829 249.5,208.162 250,195.5C 250.278,196.416 250.778,197.082 251.5,197.5C 251.5,209.833 251.5,222.167 251.5,234.5C 245.456,234.589 239.622,234.589 234,234.5C 233.5,209.169 233.333,183.836 233.5,158.5C 239.509,158.334 245.509,158.501 251.5,159C 260.733,173.318 270.066,187.484 279.5,201.5 Z M 250.5,187.5 C 251.401,188.29 252.068,189.29 252.5,190.5C 250.952,190.179 250.285,189.179 250.5,187.5 Z"/></g>
<g><path style="opacity:0.008" fill="#535353" d="M 485.5,164.5 C 485.897,163.475 486.563,163.308 487.5,164C 486.906,164.464 486.239,164.631 485.5,164.5 Z"/></g>
<g><path style="opacity:0.012" fill="#4d4d4d" d="M 887.5,164.5 C 887.897,163.475 888.563,163.308 889.5,164C 888.906,164.464 888.239,164.631 887.5,164.5 Z"/></g>
<g><path style="opacity:0.995" fill="#fe9500" d="M 282.5,182.5 C 282.179,177.305 282.513,172.305 283.5,167.5C 283.338,169.527 283.505,171.527 284,173.5C 284.2,169.247 284.7,165.08 285.5,161C 289.821,160.501 294.154,160.334 298.5,160.5C 298.828,184.741 298.494,208.908 297.5,233C 292.536,232.937 287.536,232.437 282.5,231.5C 271.891,215.798 261.724,200.465 252,185.5C 250.97,185.836 250.47,186.503 250.5,187.5C 250.285,189.179 250.952,190.179 252.5,190.5C 251.631,192.717 251.298,195.05 251.5,197.5C 250.778,197.082 250.278,196.416 250,195.5C 249.5,208.162 249.333,220.829 249.5,233.5C 244.901,233.8 240.401,233.467 236,232.5C 235.333,208.833 235.333,185.167 236,161.5C 241.248,160.052 246.415,160.385 251.5,162.5C 260.128,175.963 268.962,189.296 278,202.5C 278.973,204.392 279.64,206.392 280,208.5C 281.949,208.537 283.782,208.037 285.5,207C 284.851,198.417 284.351,189.584 284,180.5C 283.722,181.416 283.222,182.082 282.5,182.5 Z M 250.5,187.5 C 251.401,188.29 252.068,189.29 252.5,190.5C 250.952,190.179 250.285,189.179 250.5,187.5 Z"/></g>
<g><path style="opacity:0.004" fill="#feff00" d="M 280.5,160.5 C 281.833,161.167 281.833,161.167 280.5,160.5 Z"/></g>
<g><path style="opacity:0.004" fill="#feff00" d="M 192.5,165.5 C 193.833,166.167 193.833,166.167 192.5,165.5 Z"/></g>
<g><path style="opacity:0.992" fill="#4a494a" d="M 452.5,185.5 C 452.672,186.492 452.338,187.158 451.5,187.5C 443.339,198.712 432.006,202.212 417.5,198C 405.231,192.095 401.898,182.928 407.5,170.5C 407.376,169.893 407.043,169.56 406.5,169.5C 406.833,168.5 407.5,167.833 408.5,167.5C 408.897,168.525 409.563,168.692 410.5,168C 412.305,165.597 414.638,163.93 417.5,163C 421.473,162.723 425.306,162.556 429,162.5C 430.987,163.218 432.821,164.218 434.5,165.5C 434.291,166.086 433.957,166.586 433.5,167C 434.063,171.114 435.396,171.448 437.5,168C 437.167,166.333 436.833,164.667 436.5,163C 438.169,162.878 439.835,163.212 441.5,164C 449.587,169.01 453.254,176.176 452.5,185.5 Z M 434.5,186.5 C 432.71,187.997 430.544,188.664 428,188.5C 425.456,188.664 423.29,187.997 421.5,186.5C 417.748,184.206 416.581,180.872 418,176.5C 421.882,172.273 426.216,171.273 431,173.5C 435.535,172.364 438.368,174.198 439.5,179C 439.43,180.624 438.93,182.457 438,184.5C 437.184,185.823 436.017,186.489 434.5,186.5 Z"/></g>
<g><path style="opacity:0.995" fill="#48494a" d="M 649.5,153.5 C 652.898,161.898 658.898,167.564 667.5,170.5C 672.742,173.529 678.409,175.696 684.5,177C 681.627,180.577 679.127,184.411 677,188.5C 676.275,189.059 675.442,189.392 674.5,189.5C 662.666,185.98 652.332,179.98 643.5,171.5C 643.167,170.167 642.833,170.167 642.5,171.5C 633.411,179.135 623.245,185.135 612,189.5C 608.7,186.528 605.7,183.195 603,179.5C 602.312,178.668 602.479,178.002 603.5,177.5C 616.308,173.35 626.641,166.683 634.5,157.5C 634.81,158.738 635.31,158.738 636,157.5C 637.009,155.975 637.509,154.308 637.5,152.5C 627.167,152.5 616.833,152.5 606.5,152.5C 606.5,149.167 606.5,145.833 606.5,142.5C 629.833,142.5 653.167,142.5 676.5,142.5C 676.5,145.833 676.5,149.167 676.5,152.5C 667.318,152.173 658.318,152.507 649.5,153.5 Z"/></g>
<g><path style="opacity:0.004" fill="#000000" d="M 931.5,167.5 C 932.833,168.167 932.833,168.167 931.5,167.5 Z"/></g>
<g><path style="opacity:0.016" fill="#3e3f3e" d="M 811.5,168.5 C 812.833,169.167 812.833,169.167 811.5,168.5 Z"/></g>
<g><path style="opacity:0.004" fill="#000000" d="M 829.5,168.5 C 830.833,169.167 830.833,169.167 829.5,168.5 Z"/></g>
<g><path style="opacity:0.004" fill="#000000" d="M 852.5,168.5 C 853.833,169.167 853.833,169.167 852.5,168.5 Z"/></g>
<g><path style="opacity:0.016" fill="#535353" d="M 892.5,167.5 C 893.525,167.897 893.692,168.563 893,169.5C 892.536,168.906 892.369,168.239 892.5,167.5 Z"/></g>
<g><path style="opacity:0.804" fill="#fd8700" d="M 166.5,202.5 C 175.45,201.35 185.783,201.183 197.5,202C 197.46,206.72 197.127,211.386 196.5,216C 197.191,217.067 197.691,218.234 198,219.5C 199.483,217.881 200.65,217.714 201.5,219C 199.573,222.238 199.073,225.738 200,229.5C 200.414,229.043 200.914,228.709 201.5,228.5C 203.115,229.154 204.782,229.654 206.5,230C 203.665,230.784 200.999,231.117 198.5,231C 202.653,232.399 206.986,233.232 211.5,233.5C 211.667,209.498 211.5,185.498 211,161.5C 206.191,159.968 201.524,160.301 197,162.5C 196.212,168.22 196.379,173.886 197.5,179.5C 196.833,181.833 196.167,184.167 195.5,186.5C 185.851,187.665 176.184,187.832 166.5,187C 165.248,184.959 164.581,182.625 164.5,180C 164.42,177.364 164.754,175.531 165.5,174.5C 166.344,178.099 166.677,181.766 166.5,185.5C 175.68,185.432 184.68,185.432 193.5,185.5C 194.815,176.941 194.815,168.441 193.5,160C 199.988,158.542 206.655,158.042 213.5,158.5C 213.5,183.833 213.5,209.167 213.5,234.5C 207.242,234.19 201.076,234.524 195,235.5C 194.5,224.505 194.333,213.505 194.5,202.5C 185.167,202.5 175.833,202.5 166.5,202.5 Z"/></g>
<g><path style="opacity:0.004" fill="#feff00" d="M 301.5,169.5 C 302.833,170.167 302.833,170.167 301.5,169.5 Z"/></g>
<g><path style="opacity:0.008" fill="#7e7f7e" d="M 667.5,169.5 C 668.833,170.167 668.833,170.167 667.5,169.5 Z"/></g>
<g><path style="opacity:0.004" fill="#feff00" d="M 231.5,170.5 C 232.833,171.167 232.833,171.167 231.5,170.5 Z"/></g>
<g><path style="opacity:0.004" fill="#000000" d="M 559.5,170.5 C 560.833,171.167 560.833,171.167 559.5,170.5 Z"/></g>
<g><path style="opacity:0.004" fill="#000000" d="M 612.5,170.5 C 613.833,171.167 613.833,171.167 612.5,170.5 Z"/></g>
<g><path style="opacity:0.766" fill="#2e2e2f" d="M 851.5,140.5 C 851.5,152.833 851.5,165.167 851.5,177.5C 846.982,178.037 842.315,178.037 837.5,177.5C 837.5,169.833 837.5,162.167 837.5,154.5C 825.833,154.5 814.167,154.5 802.5,154.5C 802.5,150.167 802.5,145.833 802.5,141.5C 817.355,141.466 832.355,141.3 847.5,141C 848.564,139.489 849.897,139.323 851.5,140.5 Z"/></g>
<g><path style="opacity:0.997" fill="#4a4b4c" d="M 804.5,142.5 C 819.5,142.5 834.5,142.5 849.5,142.5C 849.5,153.833 849.5,165.167 849.5,176.5C 845.833,176.5 842.167,176.5 838.5,176.5C 838.815,168.58 838.482,160.747 837.5,153C 826.505,152.5 815.505,152.333 804.5,152.5C 804.5,149.167 804.5,145.833 804.5,142.5 Z"/></g>
<g><path style="opacity:0.008" fill="#fe7f00" d="M 214.5,171.5 C 215.833,172.167 215.833,172.167 214.5,171.5 Z"/></g>
<g><path style="opacity:0.02" fill="#656665" d="M 642.5,171.5 C 642.833,171.5 643.167,171.5 643.5,171.5C 643.315,172.17 642.981,172.17 642.5,171.5 Z"/></g>
<g><path style="opacity:0.008" fill="#fe7f00" d="M 192.5,172.5 C 193.833,173.167 193.833,173.167 192.5,172.5 Z"/></g>
<g><path style="opacity:0.997" fill="#4a4a4b" d="M 877.5,165.5 C 882.167,165.5 886.833,165.5 891.5,165.5C 891.5,169.833 891.5,174.167 891.5,178.5C 886.833,178.5 882.167,178.5 877.5,178.5C 876.501,187.082 876.168,196.415 876.5,206.5C 872.833,206.5 869.167,206.5 865.5,206.5C 865.5,184.833 865.5,163.167 865.5,141.5C 869.167,141.5 872.833,141.5 876.5,141.5C 876.5,150.167 876.5,158.833 876.5,167.5C 880.833,167.5 885.167,167.5 889.5,167.5C 889.335,170.85 889.502,174.183 890,177.5C 890.499,173.848 890.665,170.182 890.5,166.5C 885.968,166.818 881.634,166.485 877.5,165.5 Z"/></g>
<g><path style="opacity:0.004" fill="#000000" d="M 716.5,173.5 C 717.833,174.167 717.833,174.167 716.5,173.5 Z"/></g>
<g><path style="opacity:0.004" fill="#000000" d="M 721.5,173.5 C 722.833,174.167 722.833,174.167 721.5,173.5 Z"/></g>
<g><path style="opacity:0.004" fill="#000000" d="M 737.5,173.5 C 738.833,174.167 738.833,174.167 737.5,173.5 Z"/></g>
<g><path style="opacity:0.02" fill="#986632" d="M 401.5,174.5 C 402.833,175.167 402.833,175.167 401.5,174.5 Z"/></g>
<g><path style="opacity:0.012" fill="#545554" d="M 742.5,174.5 C 743.833,175.167 743.833,175.167 742.5,174.5 Z"/></g>
<g><path style="opacity:0.008" fill="#7e7f7e" d="M 401.5,175.5 C 400.833,176.167 400.833,176.167 401.5,175.5 Z"/></g>
<g><path style="opacity:0.016" fill="#3e3f3e" d="M 715.5,176.5 C 715.897,175.475 716.563,175.308 717.5,176C 716.906,176.464 716.239,176.631 715.5,176.5 Z"/></g>
<g><path style="opacity:0.004" fill="#000000" d="M 559.5,176.5 C 560.833,177.167 560.833,177.167 559.5,176.5 Z"/></g>
<g><path style="opacity:0.004" fill="#000000" d="M 852.5,176.5 C 853.833,177.167 853.833,177.167 852.5,176.5 Z"/></g>
<g><path style="opacity:0.998" fill="#fc7f00" d="M 108.5,216.5 C 108.5,217.5 108.5,218.5 108.5,219.5C 108.565,219.938 108.399,220.272 108,220.5C 102.677,207.424 100.177,193.757 100.5,179.5C 93.8333,179.5 87.1667,179.5 80.5,179.5C 81.2068,188.194 82.2068,196.861 83.5,205.5C 83.4805,206.726 83.1471,207.726 82.5,208.5C 80.1338,198.319 79.1338,187.986 79.5,177.5C 87.1739,177.334 94.8406,177.5 102.5,178C 101.892,179.231 101.559,180.564 101.5,182C 102.26,188.509 103.094,195.009 104,201.5C 104.747,206.843 106.247,211.843 108.5,216.5 Z"/></g>
<g><path style="opacity:0.004" fill="#000000" d="M 454.5,180.5 C 455.833,181.167 455.833,181.167 454.5,180.5 Z"/></g>
<g><path style="opacity:0.004" fill="#000000" d="M 798.5,181.5 C 797.833,180.167 797.833,180.167 798.5,181.5 Z"/></g>
<g><path style="opacity:0.997" fill="#494a4b" d="M 914.5,141.5 C 924.653,142.494 934.986,142.828 945.5,142.5C 945.244,155.53 945.577,168.53 946.5,181.5C 935.162,181.333 923.828,181.5 912.5,182C 924.162,182.5 935.829,182.667 947.5,182.5C 936.346,183.495 925.012,183.828 913.5,183.5C 913.5,189.5 913.5,195.5 913.5,201.5C 927.59,201.724 941.423,201.39 955,200.5C 957.007,203.543 957.507,206.377 956.5,209C 957.328,209.915 958.328,210.581 959.5,211C 958.263,211.232 957.263,211.732 956.5,212.5C 937.833,212.5 919.167,212.5 900.5,212.5C 900.5,198.833 900.5,185.167 900.5,171.5C 911.916,171.832 922.583,171.499 932.5,170.5C 932.5,169.833 932.833,169.5 933.5,169.5C 934.489,164.025 934.822,158.358 934.5,152.5C 923.167,152.5 911.833,152.5 900.5,152.5C 900.5,149.167 900.5,145.833 900.5,142.5C 905.032,142.818 909.366,142.485 913.5,141.5C 913.833,140.167 914.167,140.167 914.5,141.5 Z"/></g>
<g><path style="opacity:0.004" fill="#000000" d="M 798.5,181.5 C 799.833,182.167 799.833,182.167 798.5,181.5 Z"/></g>
<g><path style="opacity:0.004" fill="#000000" d="M 810.5,182.5 C 810.897,181.475 811.563,181.308 812.5,182C 811.906,182.464 811.239,182.631 810.5,182.5 Z"/></g>
<g><path style="opacity:0.008" fill="#7e7f7e" d="M 829.5,181.5 C 830.833,182.167 830.833,182.167 829.5,181.5 Z"/></g>
<g><path style="opacity:0.988" fill="#272828" d="M 947.5,182.5 C 935.829,182.667 924.162,182.5 912.5,182C 923.828,181.5 935.162,181.333 946.5,181.5C 945.577,168.53 945.244,155.53 945.5,142.5C 934.986,142.828 924.653,142.494 914.5,141.5C 925.417,141.475 936.417,141.141 947.5,140.5C 947.545,154.013 947.545,167.346 947.5,180.5C 949.925,181.649 949.925,182.316 947.5,182.5 Z"/></g>
<g><path style="opacity:0.012" fill="#545554" d="M 950.5,181.5 C 951.833,182.167 951.833,182.167 950.5,181.5 Z"/></g>
<g><path style="opacity:0.016" fill="#3e3f3e" d="M 655.5,182.5 C 656.833,183.167 656.833,183.167 655.5,182.5 Z"/></g>
<g><path style="opacity:0.031" fill="#4d4d4d" d="M 914.5,185.5 C 915.946,184.387 917.613,184.22 919.5,185C 917.866,185.494 916.199,185.66 914.5,185.5 Z"/></g>
<g><path style="opacity:0.004" fill="#000000" d="M 926.5,184.5 C 927.833,185.167 927.833,185.167 926.5,184.5 Z"/></g>
<g><path style="opacity:0.004" fill="#000000" d="M 939.5,184.5 C 940.833,185.167 940.833,185.167 939.5,184.5 Z"/></g>
<g><path style="opacity:0.016" fill="#464646" d="M 942.5,185.5 C 942.897,184.475 943.563,184.308 944.5,185C 943.906,185.464 943.239,185.631 942.5,185.5 Z"/></g>
<g><path style="opacity:0.004" fill="#fe0000" d="M 401.5,185.5 C 402.833,186.167 402.833,186.167 401.5,185.5 Z"/></g>
<g><path style="opacity:0.996" fill="#333233" d="M 536.5,174.5 C 529.981,175.281 523.314,175.948 516.5,176.5C 516.5,165.167 516.5,153.833 516.5,142.5C 512.833,142.5 509.167,142.5 505.5,142.5C 505.5,156.833 505.5,171.167 505.5,185.5C 521.5,185.5 537.5,185.5 553.5,185.5C 553.5,182.167 553.5,178.833 553.5,175.5C 549.61,175.272 545.776,175.606 542,176.5C 540.272,176.101 538.772,175.434 537.5,174.5C 542.782,174.659 548.282,174.326 554,173.5C 554.5,174 555,174.5 555.5,175C 554.93,179.079 554.596,183.079 554.5,187C 537.503,187.5 520.503,187.667 503.5,187.5C 503.5,172.167 503.5,156.833 503.5,141.5C 508.406,141.255 513.406,140.921 518.5,140.5C 518.333,151.505 518.5,162.505 519,173.5C 524.621,173.75 530.454,174.084 536.5,174.5 Z"/></g>
<g><path style="opacity:0.991" fill="#4a4b4c" d="M 536.5,174.5 C 536.833,173.167 537.167,173.167 537.5,174.5C 538.772,175.434 540.272,176.101 542,176.5C 545.776,175.606 549.61,175.272 553.5,175.5C 553.5,178.833 553.5,182.167 553.5,185.5C 537.5,185.5 521.5,185.5 505.5,185.5C 505.5,171.167 505.5,156.833 505.5,142.5C 509.167,142.5 512.833,142.5 516.5,142.5C 516.5,153.833 516.5,165.167 516.5,176.5C 523.314,175.948 529.981,175.281 536.5,174.5 Z"/></g>
<g><path style="opacity:0.008" fill="#7e7f7e" d="M 559.5,185.5 C 560.833,186.167 560.833,186.167 559.5,185.5 Z"/></g>
<g><path style="opacity:0.991" fill="#48494b" d="M 735.5,153.5 C 728.5,153.5 721.5,153.5 714.5,153.5C 714.5,155.5 714.5,157.5 714.5,159.5C 723.173,159.334 731.84,159.5 740.5,160C 741.626,163.744 741.793,167.577 741,171.5C 739.667,172.833 738.333,172.833 737,171.5C 736.333,172.167 735.667,172.833 735,173.5C 728.256,172.521 721.422,172.188 714.5,172.5C 714.5,174.5 714.5,176.5 714.5,178.5C 721.726,178.291 729.059,178.291 736.5,178.5C 729.018,179.492 721.352,179.825 713.5,179.5C 712.997,174.5 712.664,174.833 712.5,180.5C 722.167,180.5 731.833,180.5 741.5,180.5C 741.5,183.833 741.5,187.167 741.5,190.5C 728.167,190.5 714.833,190.5 701.5,190.5C 701.5,174.5 701.5,158.5 701.5,142.5C 714.5,142.5 727.5,142.5 740.5,142.5C 740.5,145.5 740.5,148.5 740.5,151.5C 732.16,151.334 723.827,151.5 715.5,152C 722.346,152.172 729.013,152.672 735.5,153.5 Z"/></g>
<g><path style="opacity:0.667" fill="#39393a" d="M 976.5,139.5 C 976.631,140.239 976.464,140.906 976,141.5C 972.27,140.54 968.437,140.207 964.5,140.5C 964.829,171.074 964.496,201.574 963.5,232C 967.486,232.499 971.486,232.666 975.5,232.5C 975.333,218.163 975.5,203.829 976,189.5C 976.179,193.025 976.679,196.359 977.5,199.5C 977.667,210.838 977.5,222.172 977,233.5C 972.263,234.469 967.43,234.803 962.5,234.5C 962.829,202.593 962.496,170.76 961.5,139C 966.684,138.184 971.684,138.35 976.5,139.5 Z"/></g>
<g><path style="opacity:0.004" fill="#000000" d="M 453.5,186.5 C 454.833,187.167 454.833,187.167 453.5,186.5 Z"/></g>
<g><path style="opacity:0.016" fill="#3e3f3e" d="M 678.5,187.5 C 679.833,188.167 679.833,188.167 678.5,187.5 Z"/></g>
<g><path style="opacity:0.004" fill="#fe0000" d="M 401.5,188.5 C 402.833,189.167 402.833,189.167 401.5,188.5 Z"/></g>
<g><path style="opacity:0.012" fill="#545554" d="M 503.5,188.5 C 504.833,189.167 504.833,189.167 503.5,188.5 Z"/></g>
<g><path style="opacity:0.008" fill="#7e7f7e" d="M 510.5,188.5 C 511.833,189.167 511.833,189.167 510.5,188.5 Z"/></g>
<g><path style="opacity:0.004" fill="#000000" d="M 513.5,188.5 C 514.833,189.167 514.833,189.167 513.5,188.5 Z"/></g>
<g><path style="opacity:0.008" fill="#7e7f7e" d="M 607.5,188.5 C 608.833,189.167 608.833,189.167 607.5,188.5 Z"/></g>
<g><path style="opacity:0.999" fill="#4a4b4c" d="M 828.5,167.5 C 829.167,167.5 829.5,167.833 829.5,168.5C 828.513,173.305 828.179,178.305 828.5,183.5C 838.348,183.173 848.014,183.506 857.5,184.5C 847.828,184.334 838.161,184.5 828.5,185C 837.418,186.414 846.418,186.914 855.5,186.5C 855.5,189.5 855.5,192.5 855.5,195.5C 836.833,195.5 818.167,195.5 799.5,195.5C 799.5,192.5 799.5,189.5 799.5,186.5C 804.833,186.5 810.167,186.5 815.5,186.5C 815.5,179.833 815.5,173.167 815.5,166.5C 819.167,166.5 822.833,166.5 826.5,166.5C 826.334,172.509 826.501,178.509 827,184.5C 827.173,178.652 827.673,172.985 828.5,167.5 Z"/></g>
<g><path style="opacity:0.008" fill="#7e7f7e" d="M 744.5,189.5 C 745.833,190.167 745.833,190.167 744.5,189.5 Z"/></g>
<g><path style="opacity:0.012" fill="#a95554" d="M 402.5,190.5 C 403.833,191.167 403.833,191.167 402.5,190.5 Z"/></g>
<g><path style="opacity:0.004" fill="#000000" d="M 563.5,190.5 C 564.833,191.167 564.833,191.167 563.5,190.5 Z"/></g>
<g><path style="opacity:0.008" fill="#7e7f7e" d="M 678.5,190.5 C 679.833,191.167 679.833,191.167 678.5,190.5 Z"/></g>
<g><path style="opacity:0.995" fill="#fd9500" d="M 371.5,129.5 C 371.667,150.836 371.5,172.169 371,193.5C 369.467,203.633 367.3,213.633 364.5,223.5C 364.543,224.416 364.876,225.083 365.5,225.5C 365.737,226.791 365.404,227.791 364.5,228.5C 364.631,227.761 364.464,227.094 364,226.5C 356.897,246.042 346.23,263.376 332,278.5C 331.517,279.448 331.351,280.448 331.5,281.5C 290.135,322.176 241.469,334.843 185.5,319.5C 180.275,316.657 174.275,314.157 167.5,312C 149.574,303.296 133.741,291.796 120,277.5C 119.536,278.094 119.369,278.761 119.5,279.5C 118.167,278.167 116.833,276.833 115.5,275.5C 110.469,268.81 105.469,262.143 100.5,255.5C 100.573,253.973 99.9063,252.973 98.5,252.5C 91.3799,238.472 86.0466,223.806 82.5,208.5C 83.1471,207.726 83.4805,206.726 83.5,205.5C 82.2068,196.861 81.2068,188.194 80.5,179.5C 87.1667,179.5 93.8333,179.5 100.5,179.5C 100.177,193.757 102.677,207.424 108,220.5C 108.399,220.272 108.565,219.938 108.5,219.5C 109.338,219.842 109.672,220.508 109.5,221.5C 108.903,221.735 108.57,222.235 108.5,223C 121.94,256.774 145.274,281.108 178.5,296C 200.132,303.738 222.466,306.405 245.5,304C 248.097,303.221 248.097,302.721 245.5,302.5C 246.568,301.566 247.901,301.232 249.5,301.5C 250.274,302.147 251.274,302.48 252.5,302.5C 277.712,297.481 299.212,285.814 317,267.5C 338.734,244.539 350.734,217.206 353,185.5C 353.5,161.836 353.667,138.169 353.5,114.5C 355.9,113.073 356.567,113.573 355.5,116C 356.167,116.333 356.833,116.667 357.5,117C 356,119.621 355.666,122.288 356.5,125C 355.692,125.308 355.025,125.808 354.5,126.5C 355.529,129.759 355.529,133.259 354.5,137C 355,137.5 355.5,138 356,138.5C 357.018,137.294 357.518,137.627 357.5,139.5C 356.268,141.05 355.768,142.717 356,144.5C 357.316,143.026 358.316,141.359 359,139.5C 360,140.167 361,140.833 362,141.5C 363.618,141.111 364.785,139.778 365.5,137.5C 366.192,138.025 366.692,138.692 367,139.5C 369.792,136.685 371.292,133.352 371.5,129.5 Z M 250.5,187.5 C 251.401,188.29 252.068,189.29 252.5,190.5C 250.952,190.179 250.285,189.179 250.5,187.5 Z"/></g>
<g><path style="opacity:0.004" fill="#ffea00" d="M 214.5,190.5 C 215.573,191.251 215.74,192.251 215,193.5C 214.517,192.552 214.351,191.552 214.5,190.5 Z"/></g>
<g><path style="opacity:0.004" fill="#feff00" d="M 231.5,186.5 C 232.833,187.167 232.833,187.167 231.5,186.5 Z"/></g>
<g><path style="opacity:0.016" fill="#fe7f00" d="M 214.5,179.5 C 215.833,180.167 215.833,180.167 214.5,179.5 Z"/></g>
<g><path style="opacity:0.049" fill="#545354" d="M 738.5,177.5 C 740.071,178.197 741.571,178.53 743,178.5C 743.499,183.155 743.666,187.821 743.5,192.5C 729.588,192.177 715.754,192.51 702,193.5C 701.283,192.956 700.783,192.289 700.5,191.5C 714.5,191.5 728.5,191.5 742.5,191.5C 742.5,187.5 742.5,183.5 742.5,179.5C 740.801,179.66 739.134,179.494 737.5,179C 738.056,178.617 738.389,178.117 738.5,177.5 Z"/></g>
<g><path style="opacity:0.978" fill="#2a2a2b" d="M 762.5,143.5 C 761.273,148.32 761.439,153.32 763,158.5C 764.722,158.038 766.555,157.872 768.5,158C 769.321,152.594 769.655,147.094 769.5,141.5C 767.075,140.351 767.075,139.684 769.5,139.5C 773.833,139.5 778.167,139.5 782.5,139.5C 782.5,157.5 782.5,175.5 782.5,193.5C 778.167,193.5 773.833,193.5 769.5,193.5C 769.333,186.334 769.333,179.001 769.5,171.5C 766.084,170.894 763.418,171.894 761.5,174.5C 762.033,180.433 762.033,186.433 761.5,192.5C 757.5,192.5 753.5,192.5 749.5,192.5C 749.333,174.83 749.5,157.164 750,139.5C 750.5,156.83 750.667,174.163 750.5,191.5C 753.777,191.784 756.943,191.451 760,190.5C 760.333,184.167 760.667,177.833 761,171.5C 763.725,169.242 766.725,168.909 770,170.5C 770.5,177.826 770.666,185.159 770.5,192.5C 774.167,192.5 777.833,192.5 781.5,192.5C 781.5,175.167 781.5,157.833 781.5,140.5C 777.833,140.5 774.167,140.5 770.5,140.5C 770.5,146.833 770.5,153.167 770.5,159.5C 767.167,159.5 763.833,159.5 760.5,159.5C 760.666,153.491 760.499,147.491 760,141.5C 757.26,140.718 754.426,140.218 751.5,140C 754.817,139.502 758.15,139.335 761.5,139.5C 761.232,141.099 761.566,142.432 762.5,143.5 Z"/></g>
<g><path style="opacity:0.012" fill="#545554" d="M 763.5,176.5 C 764.833,177.167 764.833,177.167 763.5,176.5 Z"/></g>
<g><path style="opacity:0.004" fill="#000000" d="M 767.5,151.5 C 768.833,152.167 768.833,152.167 767.5,151.5 Z"/></g>
<g><path style="opacity:0.008" fill="#7e7f7e" d="M 765.5,144.5 C 766.833,145.167 766.833,145.167 765.5,144.5 Z"/></g>
<g><path style="opacity:0.004" fill="#000000" d="M 960.5,191.5 C 961.833,192.167 961.833,192.167 960.5,191.5 Z"/></g>
<g><path style="opacity:0.016" fill="#3e3f3e" d="M 564.5,192.5 C 565.833,193.167 565.833,193.167 564.5,192.5 Z"/></g>
<g><path style="opacity:0.127" fill="#575758" d="M 575.5,195.5 C 553.833,195.5 532.167,195.5 510.5,195.5C 510.369,194.761 510.536,194.094 511,193.5C 532.598,194.161 554.098,194.828 575.5,195.5 Z"/></g>
<g><path style="opacity:0.008" fill="#7e7f7e" d="M 775.5,194.5 C 776.833,195.167 776.833,195.167 775.5,194.5 Z"/></g>
<g><path style="opacity:0.004" fill="#feff00" d="M 231.5,195.5 C 232.833,196.167 232.833,196.167 231.5,195.5 Z"/></g>
<g><path style="opacity:0.004" fill="#000000" d="M 463.5,195.5 C 464.833,196.167 464.833,196.167 463.5,195.5 Z"/></g>
<g><path style="opacity:0.975" fill="#242425" d="M 510.5,195.5 C 532.167,195.5 553.833,195.5 575.5,195.5C 576.469,207.895 576.802,220.228 576.5,232.5C 554.174,233.666 531.841,233.833 509.5,233C 510.489,220.58 510.822,208.08 510.5,195.5 Z M 560.5,217.5 C 560.804,218.15 561.137,218.817 561.5,219.5C 559.153,220.712 556.653,221.379 554,221.5C 544.797,220.49 535.63,220.323 526.5,221C 525.536,216.934 525.203,212.767 525.5,208.5C 537.5,208.5 549.5,208.5 561.5,208.5C 561.81,211.713 561.477,214.713 560.5,217.5 Z"/></g>
<g><path style="opacity:0.967" fill="#373839" d="M 828.5,167.5 C 827.673,172.985 827.173,178.652 827,184.5C 826.501,178.509 826.334,172.509 826.5,166.5C 822.833,166.5 819.167,166.5 815.5,166.5C 815.5,173.167 815.5,179.833 815.5,186.5C 810.167,186.5 804.833,186.5 799.5,186.5C 799.5,189.5 799.5,192.5 799.5,195.5C 818.167,195.5 836.833,195.5 855.5,195.5C 855.5,192.5 855.5,189.5 855.5,186.5C 846.418,186.914 837.418,186.414 828.5,185C 838.161,184.5 847.828,184.334 857.5,184.5C 858.259,187.852 858.592,191.185 858.5,194.5C 858.167,195.167 857.833,195.833 857.5,196.5C 855.659,197.23 853.825,197.897 852,198.5C 833.573,197.673 815.073,197.173 796.5,197C 796.402,192.893 796.735,188.727 797.5,184.5C 802.792,183.505 808.125,183.172 813.5,183.5C 813.334,177.491 813.501,171.491 814,165.5C 819.2,164.079 824.367,164.245 829.5,166C 828.944,166.383 828.611,166.883 828.5,167.5 Z"/></g>
<g><path style="opacity:0.995" fill="#262727" d="M 932.5,170.5 C 922.583,171.499 911.916,171.832 900.5,171.5C 900.5,185.167 900.5,198.833 900.5,212.5C 919.167,212.5 937.833,212.5 956.5,212.5C 959.167,212.833 959.167,213.167 956.5,213.5C 937.5,213.5 918.5,213.5 899.5,213.5C 899.343,198.984 899.343,184.318 899.5,169.5C 910.581,169.19 921.581,169.523 932.5,170.5 Z"/></g>
<g><path style="opacity:0.995" fill="#fc8200" d="M 277.5,228.5 C 277.068,227.29 276.401,226.29 275.5,225.5C 271.651,218.456 267.318,211.789 262.5,205.5C 259.402,200.291 256.068,195.291 252.5,190.5C 252.068,189.29 251.401,188.29 250.5,187.5C 250.47,186.503 250.97,185.836 252,185.5C 261.724,200.465 271.891,215.798 282.5,231.5C 287.536,232.437 292.536,232.937 297.5,233C 298.494,208.908 298.828,184.741 298.5,160.5C 294.154,160.334 289.821,160.501 285.5,161C 284.7,165.08 284.2,169.247 284,173.5C 283.505,171.527 283.338,169.527 283.5,167.5C 283.296,164.455 283.296,161.621 283.5,159C 289.157,158.501 294.824,158.334 300.5,158.5C 300.5,183.833 300.5,209.167 300.5,234.5C 294.158,234.666 287.825,234.5 281.5,234C 280.512,231.833 279.179,230 277.5,228.5 Z"/></g>
<g><path style="opacity:0.004" fill="#feff00" d="M 277.5,192.5 C 278.833,193.167 278.833,193.167 277.5,192.5 Z"/></g>
<g><path style="opacity:0.004" fill="#feff00" d="M 270.5,185.5 C 271.833,186.167 271.833,186.167 270.5,185.5 Z"/></g>
<g><path style="opacity:0.993" fill="#494a4b" d="M 597.5,194.5 C 617.5,193.167 637.5,193.167 657.5,194.5C 657.389,195.117 657.056,195.617 656.5,196C 666.201,196.755 675.868,196.588 685.5,195.5C 685.5,198.833 685.5,202.167 685.5,205.5C 673.149,205.168 660.815,205.501 648.5,206.5C 647.529,215.112 647.196,223.779 647.5,232.5C 643.833,232.5 640.167,232.5 636.5,232.5C 636.597,223.713 636.597,215.046 636.5,206.5C 623.851,205.501 611.184,205.168 598.5,205.5C 598.183,202.428 598.516,199.428 599.5,196.5C 604.265,194.841 603.598,194.174 597.5,194.5 Z"/></g>
<g><path style="opacity:0.004" fill="#000000" d="M 715.5,196.5 C 716.833,197.167 716.833,197.167 715.5,196.5 Z"/></g>
<g><path style="opacity:0.008" fill="#7e7f7e" d="M 720.5,197.5 C 720.897,196.475 721.563,196.308 722.5,197C 721.906,197.464 721.239,197.631 720.5,197.5 Z"/></g>
<g><path style="opacity:0.004" fill="#000000" d="M 737.5,196.5 C 738.833,197.167 738.833,197.167 737.5,196.5 Z"/></g>
<g><path style="opacity:0.004" fill="#000000" d="M 750.5,196.5 C 751.833,197.167 751.833,197.167 750.5,196.5 Z"/></g>
<g><path style="opacity:0.004" fill="#000000" d="M 758.5,196.5 C 759.833,197.167 759.833,197.167 758.5,196.5 Z"/></g>
<g><path style="opacity:0.004" fill="#000000" d="M 761.5,196.5 C 762.833,197.167 762.833,197.167 761.5,196.5 Z"/></g>
<g><path style="opacity:0.004" fill="#000000" d="M 768.5,196.5 C 769.833,197.167 769.833,197.167 768.5,196.5 Z"/></g>
<g><path style="opacity:0.004" fill="#1f1f1f" d="M 774.5,197.5 C 774.897,196.475 775.563,196.308 776.5,197C 775.906,197.464 775.239,197.631 774.5,197.5 Z"/></g>
<g><path style="opacity:0.004" fill="#000000" d="M 793.5,196.5 C 794.833,197.167 794.833,197.167 793.5,196.5 Z"/></g>
<g><path style="opacity:0.992" fill="#494a4b" d="M 511.5,196.5 C 532.5,196.5 553.5,196.5 574.5,196.5C 574.5,208.5 574.5,220.5 574.5,232.5C 553.5,232.5 532.5,232.5 511.5,232.5C 511.5,220.5 511.5,208.5 511.5,196.5 Z M 560.5,217.5 C 561.477,214.713 561.81,211.713 561.5,208.5C 549.5,208.5 537.5,208.5 525.5,208.5C 525.203,212.767 525.536,216.934 526.5,221C 535.63,220.323 544.797,220.49 554,221.5C 556.653,221.379 559.153,220.712 561.5,219.5C 561.137,218.817 560.804,218.15 560.5,217.5 Z"/></g>
<g><path style="opacity:0.004" fill="#000000" d="M 413.5,198.5 C 412.833,199.167 412.833,199.167 413.5,198.5 Z"/></g>
<g><path style="opacity:0.38" fill="#4b4b4c" d="M 769.5,216.5 C 769.5,222.167 769.5,227.833 769.5,233.5C 773.833,233.5 778.167,233.5 782.5,233.5C 782.5,222.167 782.5,210.833 782.5,199.5C 759.475,198.844 736.809,199.51 714.5,201.5C 712.058,201.881 711.391,201.214 712.5,199.5C 736.157,198.5 759.824,198.167 783.5,198.5C 783.5,210.5 783.5,222.5 783.5,234.5C 778.5,234.5 773.5,234.5 768.5,234.5C 768.177,228.31 768.51,222.31 769.5,216.5 Z"/></g>
<g><path style="opacity:0.008" fill="#7e7f7e" d="M 808.5,198.5 C 809.833,199.167 809.833,199.167 808.5,198.5 Z"/></g>
<g><path style="opacity:0.004" fill="#000000" d="M 838.5,198.5 C 839.833,199.167 839.833,199.167 838.5,198.5 Z"/></g>
<g><path style="opacity:0.008" fill="#fe7f00" d="M 255.5,199.5 C 256.833,200.167 256.833,200.167 255.5,199.5 Z"/></g>
<g><path style="opacity:1" fill="#34312f" d="M 406.5,169.5 C 407.043,169.56 407.376,169.893 407.5,170.5C 401.898,182.928 405.231,192.095 417.5,198C 432.006,202.212 443.339,198.712 451.5,187.5C 448.401,195.086 442.734,199.586 434.5,201C 427.247,202.071 420.247,201.238 413.5,198.5C 411.266,196.11 408.599,194.276 405.5,193C 405.957,192.586 406.291,192.086 406.5,191.5C 405.469,190.3 404.635,188.966 404,187.5C 403.333,182.833 403.333,178.167 404,173.5C 404.662,172.016 405.496,170.683 406.5,169.5 Z"/></g>
<g><path style="opacity:0.991" fill="#242426" d="M 769.5,216.5 C 768.193,215.198 768.193,213.865 769.5,212.5C 766.667,212.167 763.833,211.833 761,211.5C 747.174,211.379 733.341,211.712 719.5,212.5C 719.167,211.167 718.833,211.167 718.5,212.5C 717.833,212.833 717.167,213.167 716.5,213.5C 715.306,212.728 714.306,211.728 713.5,210.5C 714.477,207.713 714.81,204.713 714.5,201.5C 736.809,199.51 759.475,198.844 782.5,199.5C 782.5,210.833 782.5,222.167 782.5,233.5C 778.167,233.5 773.833,233.5 769.5,233.5C 769.5,227.833 769.5,222.167 769.5,216.5 Z"/></g>
<g><path style="opacity:0.008" fill="#ff8d00" d="M 231.5,199.5 C 232.525,199.897 232.692,200.563 232,201.5C 231.536,200.906 231.369,200.239 231.5,199.5 Z"/></g>
<g><path style="opacity:0.004" fill="#feff00" d="M 279.5,200.5 C 280.833,201.167 280.833,201.167 279.5,200.5 Z"/></g>
<g><path style="opacity:0.004" fill="#feff00" d="M 372.5,200.5 C 373.833,201.167 373.833,201.167 372.5,200.5 Z"/></g>
<g><path style="opacity:0.004" fill="#000000" d="M 413.5,200.5 C 414.833,201.167 414.833,201.167 413.5,200.5 Z"/></g>
<g><path style="opacity:0.008" fill="#7e7f7e" d="M 810.5,201.5 C 811.833,202.167 811.833,202.167 810.5,201.5 Z"/></g>
<g><path style="opacity:0.004" fill="#000000" d="M 814.5,201.5 C 815.833,202.167 815.833,202.167 814.5,201.5 Z"/></g>
<g><path style="opacity:0.004" fill="#feff00" d="M 231.5,202.5 C 232.573,203.251 232.74,204.251 232,205.5C 231.517,204.552 231.351,203.552 231.5,202.5 Z"/></g>
<g><path style="opacity:0.016" fill="#815453" d="M 425.5,204.5 C 424.761,204.631 424.094,204.464 423.5,204C 424.437,203.308 425.103,203.475 425.5,204.5 Z"/></g>
<g><path style="opacity:0.004" fill="#000000" d="M 430.5,203.5 C 431.833,204.167 431.833,204.167 430.5,203.5 Z"/></g>
<g><path style="opacity:0.004" fill="#000000" d="M 827.5,203.5 C 828.833,204.167 828.833,204.167 827.5,203.5 Z"/></g>
<g><path style="opacity:0.004" fill="#000000" d="M 861.5,203.5 C 862.833,204.167 862.833,204.167 861.5,203.5 Z"/></g>
<g><path style="opacity:0.004" fill="#feff00" d="M 79.5,204.5 C 80.8333,205.167 80.8333,205.167 79.5,204.5 Z"/></g>
<g><path style="opacity:0.004" fill="#feff00" d="M 262.5,205.5 C 261.833,206.167 261.833,206.167 262.5,205.5 Z"/></g>
<g><path style="opacity:0.012" fill="#545554" d="M 712.5,206.5 C 713.833,207.167 713.833,207.167 712.5,206.5 Z"/></g>
<g><path style="opacity:0.008" fill="#7e7f7e" d="M 825.5,206.5 C 826.833,207.167 826.833,207.167 825.5,206.5 Z"/></g>
<g><path style="opacity:0.008" fill="#707070" d="M 428.5,206.5 C 429.525,206.897 429.692,207.563 429,208.5C 428.536,207.906 428.369,207.239 428.5,206.5 Z"/></g>
<g><path style="opacity:0.004" fill="#feff00" d="M 261.5,208.5 C 262.833,209.167 262.833,209.167 261.5,208.5 Z"/></g>
<g><path style="opacity:1" fill="#fb7c01" d="M 373.5,186.5 C 372.612,199.942 369.945,212.942 365.5,225.5C 364.876,225.083 364.543,224.416 364.5,223.5C 367.3,213.633 369.467,203.633 371,193.5C 371.5,172.169 371.667,150.836 371.5,129.5C 371.334,121.16 371.5,112.827 372,104.5C 372.168,132.003 372.668,159.336 373.5,186.5 Z"/></g>
<g><path style="opacity:0.02" fill="#656665" d="M 597.5,208.5 C 598.833,209.167 598.833,209.167 597.5,208.5 Z"/></g>
<g><path style="opacity:0.004" fill="#000000" d="M 604.5,208.5 C 605.833,209.167 605.833,209.167 604.5,208.5 Z"/></g>
<g><path style="opacity:0.004" fill="#000000" d="M 613.5,208.5 C 614.833,209.167 614.833,209.167 613.5,208.5 Z"/></g>
<g><path style="opacity:0.004" fill="#000000" d="M 615.5,208.5 C 616.833,209.167 616.833,209.167 615.5,208.5 Z"/></g>
<g><path style="opacity:0.02" fill="#656665" d="M 632.5,208.5 C 633.833,209.167 633.833,209.167 632.5,208.5 Z"/></g>
<g><path style="opacity:0.95" fill="#383839" d="M 683.5,208.5 C 672.346,207.505 661.012,207.172 649.5,207.5C 649.473,215.931 649.806,224.431 650.5,233C 647.861,234.118 645.027,234.618 642,234.5C 638.973,234.618 636.139,234.118 633.5,233C 634.354,224.183 635.021,215.849 635.5,208C 634.251,207.26 633.251,207.427 632.5,208.5C 620.58,207.521 608.58,207.188 596.5,207.5C 596.681,204.603 596.348,201.77 595.5,199C 595.899,197.272 596.566,195.772 597.5,194.5C 603.598,194.174 604.265,194.841 599.5,196.5C 598.516,199.428 598.183,202.428 598.5,205.5C 611.184,205.168 623.851,205.501 636.5,206.5C 636.597,215.046 636.597,223.713 636.5,232.5C 640.167,232.5 643.833,232.5 647.5,232.5C 647.196,223.779 647.529,215.112 648.5,206.5C 660.815,205.501 673.149,205.168 685.5,205.5C 685.5,202.167 685.5,198.833 685.5,195.5C 675.868,196.588 666.201,196.755 656.5,196C 657.056,195.617 657.389,195.117 657.5,194.5C 667.604,193.518 677.271,193.351 686.5,194C 687.629,198.079 687.796,202.245 687,206.5C 686.665,209.19 685.499,209.857 683.5,208.5 Z"/></g>
<g><path style="opacity:0.008" fill="#7e7f7e" d="M 683.5,208.5 C 682.833,209.167 682.833,209.167 683.5,208.5 Z"/></g>
<g><path style="opacity:0.016" fill="#464646" d="M 679.5,209.5 C 679.897,208.475 680.563,208.308 681.5,209C 680.906,209.464 680.239,209.631 679.5,209.5 Z"/></g>
<g><path style="opacity:0.012" fill="#545554" d="M 676.5,208.5 C 677.833,209.167 677.833,209.167 676.5,208.5 Z"/></g>
<g><path style="opacity:0.012" fill="#545554" d="M 672.5,208.5 C 673.833,209.167 673.833,209.167 672.5,208.5 Z"/></g>
<g><path style="opacity:0.004" fill="#000000" d="M 655.5,208.5 C 656.833,209.167 656.833,209.167 655.5,208.5 Z"/></g>
<g><path style="opacity:0.004" fill="#000000" d="M 652.5,209.5 C 652.897,208.475 653.563,208.308 654.5,209C 653.906,209.464 653.239,209.631 652.5,209.5 Z"/></g>
<g><path style="opacity:0.004" fill="#2b2b2b" d="M 713.5,210.5 C 712.475,210.103 712.308,209.437 713,208.5C 713.464,209.094 713.631,209.761 713.5,210.5 Z"/></g>
<g><path style="opacity:0.004" fill="#feff00" d="M 346.5,211.5 C 345.833,210.167 345.833,210.167 346.5,211.5 Z"/></g>
<g><path style="opacity:0.004" fill="#feff00" d="M 214.5,211.5 C 215.833,212.167 215.833,212.167 214.5,211.5 Z"/></g>
<g><path style="opacity:0.004" fill="#feff00" d="M 81.5,212.5 C 82.8333,213.167 82.8333,213.167 81.5,212.5 Z"/></g>
<g><path style="opacity:0.02" fill="#656665" d="M 718.5,212.5 C 718.833,212.5 719.167,212.5 719.5,212.5C 719.315,213.17 718.981,213.17 718.5,212.5 Z"/></g>
<g><path style="opacity:0.004" fill="#000000" d="M 721.5,212.5 C 722.833,213.167 722.833,213.167 721.5,212.5 Z"/></g>
<g><path style="opacity:0.012" fill="#626262" d="M 716.5,213.5 C 716.5,213.833 716.5,214.167 716.5,214.5C 713.833,214.167 713.833,213.833 716.5,213.5 Z"/></g>
<g><path style="opacity:0.004" fill="#000000" d="M 721.5,213.5 C 720.833,214.167 720.833,214.167 721.5,213.5 Z"/></g>
<g><path style="opacity:0.008" fill="#7e7f7e" d="M 745.5,213.5 C 746.833,214.167 746.833,214.167 745.5,213.5 Z"/></g>
<g><path style="opacity:0.082" fill="#555556" d="M 899.5,213.5 C 918.5,213.5 937.5,213.5 956.5,213.5C 953.103,214.198 949.603,214.865 946,215.5C 937,214.167 928,214.167 919,215.5C 912.401,214.85 905.901,214.184 899.5,213.5 Z"/></g>
<g><path style="opacity:0.008" fill="#7e7f7e" d="M 716.5,214.5 C 717.833,215.167 717.833,215.167 716.5,214.5 Z"/></g>
<g><path style="opacity:0.016" fill="#febf00" d="M 108.5,215.5 C 109.833,216.167 109.833,216.167 108.5,215.5 Z"/></g>
<g><path style="opacity:0.004" fill="#000000" d="M 911.5,215.5 C 912.833,216.167 912.833,216.167 911.5,215.5 Z"/></g>
<g><path style="opacity:0.008" fill="#707070" d="M 931.5,216.5 C 931.897,215.475 932.563,215.308 933.5,216C 932.906,216.464 932.239,216.631 931.5,216.5 Z"/></g>
<g><path style="opacity:0.008" fill="#7e7f7e" d="M 940.5,215.5 C 941.833,216.167 941.833,216.167 940.5,215.5 Z"/></g>
<g><path style="opacity:0.008" fill="#7e7f7e" d="M 951.5,215.5 C 952.833,216.167 952.833,216.167 951.5,215.5 Z"/></g>
<g><path style="opacity:0.008" fill="#fe7f00" d="M 110.5,216.5 C 111.833,217.167 111.833,217.167 110.5,216.5 Z"/></g>
<g><path style="opacity:0.008" fill="#7e7f7e" d="M 428.5,217.5 C 429.833,218.167 429.833,218.167 428.5,217.5 Z"/></g>
<g><path style="opacity:0.008" fill="#7e7f7e" d="M 847.5,218.5 C 848.833,219.167 848.833,219.167 847.5,218.5 Z"/></g>
<g><path style="opacity:0.004" fill="#000000" d="M 868.5,218.5 C 869.833,219.167 869.833,219.167 868.5,218.5 Z"/></g>
<g><path style="opacity:0.008" fill="#7e7f7e" d="M 873.5,218.5 C 874.833,219.167 874.833,219.167 873.5,218.5 Z"/></g>
<g><path style="opacity:0.004" fill="#feff00" d="M 214.5,219.5 C 215.833,220.167 215.833,220.167 214.5,219.5 Z"/></g>
<g><path style="opacity:0.993" fill="#4a4b4d" d="M 715.5,200.5 C 737.5,200.5 759.5,200.5 781.5,200.5C 781.5,211.167 781.5,221.833 781.5,232.5C 777.833,232.5 774.167,232.5 770.5,232.5C 770.5,225.167 770.5,217.833 770.5,210.5C 752.167,210.5 733.833,210.5 715.5,210.5C 715.5,207.167 715.5,203.833 715.5,200.5 Z"/></g>
<g><path style="opacity:0.988" fill="#2c2a29" d="M 425.5,204.5 C 426.339,205.641 427.006,206.974 427.5,208.5C 426.567,212.429 426.234,216.429 426.5,220.5C 443.189,220.324 459.356,220.657 475,221.5C 477,220.833 479,220.167 481,219.5C 481.425,224.284 481.925,228.784 482.5,233C 460.169,233.5 437.836,233.667 415.5,233.5C 436.66,232.503 457.993,232.169 479.5,232.5C 479.5,229.167 479.5,225.833 479.5,222.5C 461.5,222.5 443.5,222.5 425.5,222.5C 425.5,217.5 425.5,212.5 425.5,207.5C 423.801,207.66 422.134,207.494 420.5,207C 421.448,206.517 422.448,206.351 423.5,206.5C 424.5,206.167 425.167,205.5 425.5,204.5 Z"/></g>
<g><path style="opacity:0.004" fill="#feff00" d="M 80.5,222.5 C 81.8333,223.167 81.8333,223.167 80.5,222.5 Z"/></g>
<g><path style="opacity:0.988" fill="#4b4b4b" d="M 423.5,206.5 C 422.448,206.351 421.448,206.517 420.5,207C 422.134,207.494 423.801,207.66 425.5,207.5C 425.5,212.5 425.5,217.5 425.5,222.5C 443.5,222.5 461.5,222.5 479.5,222.5C 479.5,225.833 479.5,229.167 479.5,232.5C 457.993,232.169 436.66,232.503 415.5,233.5C 413.833,233.5 412.167,233.5 410.5,233.5C 410.227,231.549 410.893,230.049 412.5,229C 411.167,228 411.167,227 412.5,226C 410.219,224.518 410.219,222.851 412.5,221C 411.802,220.029 411.802,218.863 412.5,217.5C 412.182,216.353 411.516,215.519 410.5,215C 411.578,214.326 412.245,213.326 412.5,212C 412.057,210.175 411.723,208.342 411.5,206.5C 415.648,205.356 419.648,205.356 423.5,206.5 Z"/></g>
<g><path style="opacity:0.008" fill="#535353" d="M 482.5,221.5 C 483.525,221.897 483.692,222.563 483,223.5C 482.536,222.906 482.369,222.239 482.5,221.5 Z"/></g>
<g><path style="opacity:0.004" fill="#feff00" d="M 84.5,224.5 C 85.8333,225.167 85.8333,225.167 84.5,224.5 Z"/></g>
<g><path style="opacity:0.004" fill="#feff00" d="M 301.5,224.5 C 302.833,225.167 302.833,225.167 301.5,224.5 Z"/></g>
<g><path style="opacity:0.012" fill="#feaa00" d="M 192.5,225.5 C 193.833,226.167 193.833,226.167 192.5,225.5 Z"/></g>
<g><path style="opacity:0.004" fill="#feff00" d="M 275.5,225.5 C 274.833,226.167 274.833,226.167 275.5,225.5 Z"/></g>
<g><path style="opacity:0.004" fill="#feff00" d="M 145.5,227.5 C 144.833,226.167 144.833,226.167 145.5,227.5 Z"/></g>
<g><path style="opacity:0.016" fill="#fe7f00" d="M 366.5,226.5 C 367.833,227.167 367.833,227.167 366.5,226.5 Z"/></g>
<g><path style="opacity:0.008" fill="#ffacfe" d="M 214.5,226.5 C 215.525,226.897 215.692,227.563 215,228.5C 214.536,227.906 214.369,227.239 214.5,226.5 Z"/></g>
<g><path style="opacity:0.004" fill="#feff00" d="M 231.5,227.5 C 232.833,228.167 232.833,228.167 231.5,227.5 Z"/></g>
<g><path style="opacity:0.004" fill="#feff00" d="M 277.5,228.5 C 276.833,229.167 276.833,229.167 277.5,228.5 Z"/></g>
<g><path style="opacity:0.988" fill="#494a4b" d="M 824.5,205.5 C 823.945,209.997 824.611,214.164 826.5,218C 825.692,218.308 825.025,218.808 824.5,219.5C 842.821,220.5 861.155,220.833 879.5,220.5C 879.818,225.032 879.485,229.366 878.5,233.5C 878.666,229.486 878.499,225.486 878,221.5C 877.501,225.152 877.335,228.818 877.5,232.5C 855.5,232.5 833.5,232.5 811.5,232.5C 811.5,223.5 811.5,214.5 811.5,205.5C 815.833,205.5 820.167,205.5 824.5,205.5 Z"/></g>
<g><path style="opacity:0.004" fill="#feff00" d="M 277.5,230.5 C 278.833,231.167 278.833,231.167 277.5,230.5 Z"/></g>
<g><path style="opacity:0.004" fill="#feff00" d="M 301.5,232.5 C 302.833,233.167 302.833,233.167 301.5,232.5 Z"/></g>
<g><path style="opacity:0.945" fill="#232425" d="M 824.5,205.5 C 820.167,205.5 815.833,205.5 811.5,205.5C 811.5,214.5 811.5,223.5 811.5,232.5C 833.5,232.5 855.5,232.5 877.5,232.5C 877.335,228.818 877.501,225.152 878,221.5C 878.499,225.486 878.666,229.486 878.5,233.5C 855.977,233.591 832.977,233.591 809.5,233.5C 809.5,223.833 809.5,214.167 809.5,204.5C 814.43,204.803 819.263,204.469 824,203.5C 824.464,204.094 824.631,204.761 824.5,205.5 Z"/></g>
<g><path style="opacity:0.004" fill="#ffd6fe" d="M 192.5,232.5 C 193.525,232.897 193.692,233.563 193,234.5C 192.536,233.906 192.369,233.239 192.5,232.5 Z"/></g>
<g><path style="opacity:0.008" fill="#fe7f00" d="M 162.5,235.5 C 163.833,236.167 163.833,236.167 162.5,235.5 Z"/></g>
<g><path style="opacity:0.004" fill="#feff00" d="M 209.5,235.5 C 210.833,236.167 210.833,236.167 209.5,235.5 Z"/></g>
<g><path style="opacity:0.008" fill="#fe7f00" d="M 87.5,236.5 C 88.8333,237.167 88.8333,237.167 87.5,236.5 Z"/></g>
<g><path style="opacity:0.004" fill="#feff00" d="M 89.5,236.5 C 90.8333,237.167 90.8333,237.167 89.5,236.5 Z"/></g>
<g><path style="opacity:0.004" fill="#feff00" d="M 118.5,237.5 C 119.833,238.167 119.833,238.167 118.5,237.5 Z"/></g>
<g><path style="opacity:0.008" fill="#fe7f00" d="M 89.5,239.5 C 90.8333,240.167 90.8333,240.167 89.5,239.5 Z"/></g>
<g><path style="opacity:0.004" fill="#feff00" d="M 237.5,240.5 C 238.833,241.167 238.833,241.167 237.5,240.5 Z"/></g>
<g><path style="opacity:0.008" fill="#fe7f00" d="M 124.5,242.5 C 125.833,243.167 125.833,243.167 124.5,242.5 Z"/></g>
<g><path style="opacity:0.004" fill="#feff00" d="M 329.5,244.5 C 330.833,245.167 330.833,245.167 329.5,244.5 Z"/></g>
<g><path style="opacity:0.863" fill="#fb8101" d="M 364.5,228.5 C 357.278,248.629 346.278,266.296 331.5,281.5C 331.351,280.448 331.517,279.448 332,278.5C 346.23,263.376 356.897,246.042 364,226.5C 364.464,227.094 364.631,227.761 364.5,228.5 Z"/></g>
<g><path style="opacity:0.004" fill="#feff00" d="M 98.5,252.5 C 97.8333,253.167 97.8333,253.167 98.5,252.5 Z"/></g>
<g><path style="opacity:0.024" fill="#feaa00" d="M 100.5,255.5 C 99.8333,256.167 99.8333,256.167 100.5,255.5 Z"/></g>
<g><path style="opacity:0.004" fill="#feff00" d="M 304.5,270.5 C 305.833,271.167 305.833,271.167 304.5,270.5 Z"/></g>
<g><path style="opacity:0.004" fill="#feff00" d="M 115.5,275.5 C 114.833,276.167 114.833,276.167 115.5,275.5 Z"/></g>
<g><path style="opacity:0.004" fill="#feff00" d="M 299.5,276.5 C 300.833,277.167 300.833,277.167 299.5,276.5 Z"/></g>
<g><path style="opacity:0.004" fill="#feff00" d="M 158.5,281.5 C 159.833,282.167 159.833,282.167 158.5,281.5 Z"/></g>
<g><path style="opacity:0.016" fill="#fe7f00" d="M 132.5,293.5 C 133.833,294.167 133.833,294.167 132.5,293.5 Z"/></g>
<g><path style="opacity:0.769" fill="#fc8200" d="M 109.5,221.5 C 118.959,247.453 135.293,267.786 158.5,282.5C 176.364,295.145 196.364,301.978 218.5,303C 227.508,303.441 236.508,303.274 245.5,302.5C 248.097,302.721 248.097,303.221 245.5,304C 222.466,306.405 200.132,303.738 178.5,296C 145.274,281.108 121.94,256.774 108.5,223C 108.57,222.235 108.903,221.735 109.5,221.5 Z"/></g>
<g><path style="opacity:0.894" fill="#fc8200" d="M 185.5,319.5 C 159.647,312.253 137.647,298.919 119.5,279.5C 119.369,278.761 119.536,278.094 120,277.5C 133.741,291.796 149.574,303.296 167.5,312C 174.275,314.157 180.275,316.657 185.5,319.5 Z"/></g>
<g><path style="opacity:0.004" fill="#feff00" d="M 167.5,316.5 C 168.833,317.167 168.833,317.167 167.5,316.5 Z"/></g>
<g><path style="opacity:0.012" fill="#ff9c00" d="M 204.5,326.5 C 204.897,325.475 205.563,325.308 206.5,326C 205.906,326.464 205.239,326.631 204.5,326.5 Z"/></g>
<g><path style="opacity:0.016" fill="#fe7f00" d="M 209.5,326.5 C 210.833,327.167 210.833,327.167 209.5,326.5 Z"/></g>
<g><path style="opacity:0.008" fill="#ffacfe" d="M 219.5,327.5 C 219.897,326.475 220.563,326.308 221.5,327C 220.906,327.464 220.239,327.631 219.5,327.5 Z"/></g>
</svg>
