<?xml version="1.0" encoding="UTF-8"?>
<!DOCTYPE svg PUBLIC "-//W3C//DTD SVG 1.1//EN" "http://www.w3.org/Graphics/SVG/1.1/DTD/svg11.dtd">
<svg xmlns="http://www.w3.org/2000/svg" version="1.1" width="1024px" height="1024px" style="shape-rendering:geometricPrecision; text-rendering:geometricPrecision; image-rendering:optimizeQuality; fill-rule:evenodd; clip-rule:evenodd" xmlns:xlink="http://www.w3.org/1999/xlink">
<g><path style="opacity:0.004" fill="#676965" d="M 451.5,61.5 C 452.833,62.1667 452.833,62.1667 451.5,61.5 Z"/></g>
<g><path style="opacity:0.004" fill="#626360" d="M 731.5,197.5 C 732.833,198.167 732.833,198.167 731.5,197.5 Z"/></g>
<g><path style="opacity:0.004" fill="#60605f" d="M 868.5,256.5 C 869.833,257.167 869.833,257.167 868.5,256.5 Z"/></g>
<g><path style="opacity:0.02" fill="#f29707" d="M 83.5,347.5 C 84.8333,348.167 84.8333,348.167 83.5,347.5 Z"/></g>
<g><path style="opacity:0.012" fill="#f19607" d="M 86.5,347.5 C 87.8333,348.167 87.8333,348.167 86.5,347.5 Z"/></g>
<g><path style="opacity:0.004" fill="#f89906" d="M 99.5,347.5 C 100.833,348.167 100.833,348.167 99.5,347.5 Z"/></g>
<g><path style="opacity:0.004" fill="#f89804" d="M 107.5,347.5 C 108.833,348.167 108.833,348.167 107.5,347.5 Z"/></g>
<g><path style="opacity:0.004" fill="#f69906" d="M 116.5,347.5 C 117.833,348.167 117.833,348.167 116.5,347.5 Z"/></g>
<g><path style="opacity:0.016" fill="#f99a03" d="M 123.5,347.5 C 124.833,348.167 124.833,348.167 123.5,347.5 Z"/></g>
<g><path style="opacity:0.008" fill="#f99904" d="M 131.5,348.5 C 131.897,347.475 132.563,347.308 133.5,348C 132.906,348.464 132.239,348.631 131.5,348.5 Z"/></g>
<g><path style="opacity:0.008" fill="#fb9805" d="M 139.5,347.5 C 140.833,348.167 140.833,348.167 139.5,347.5 Z"/></g>
<g><path style="opacity:0.004" fill="#f89903" d="M 153.5,347.5 C 154.833,348.167 154.833,348.167 153.5,347.5 Z"/></g>
<g><path style="opacity:0.012" fill="#f99a04" d="M 155.5,347.5 C 156.833,348.167 156.833,348.167 155.5,347.5 Z"/></g>
<g><path style="opacity:0.004" fill="#fa9904" d="M 163.5,347.5 C 164.833,348.167 164.833,348.167 163.5,347.5 Z"/></g>
<g><path style="opacity:0.004" fill="#f69905" d="M 166.5,347.5 C 167.833,348.167 167.833,348.167 166.5,347.5 Z"/></g>
<g><path style="opacity:0.016" fill="#f99a07" d="M 171.5,347.5 C 172.833,348.167 172.833,348.167 171.5,347.5 Z"/></g>
<g><path style="opacity:0.995" fill="#fe9600" d="M 215.5,396.5 C 234.008,396.83 252.341,396.497 270.5,395.5C 270.833,394.167 271.167,394.167 271.5,395.5C 276.9,396.187 282.4,396.854 288,397.5C 288.692,396.563 288.525,395.897 287.5,395.5C 287.56,394.957 287.893,394.624 288.5,394.5C 289.452,396.045 289.785,397.712 289.5,399.5C 288.806,407.704 288.139,416.038 287.5,424.5C 287.833,425.167 288.167,425.833 288.5,426.5C 322.828,427.667 357.162,427.833 391.5,427C 357.664,426.832 323.998,426.332 290.5,425.5C 326.004,425.168 361.337,425.502 396.5,426.5C 392.162,426.622 391.828,426.955 395.5,427.5C 395.807,433.093 395.473,438.593 394.5,444C 387.684,445.357 380.684,445.69 373.5,445C 372.944,445.383 372.611,445.883 372.5,446.5C 371.503,465.659 371.17,484.993 371.5,504.5C 370.046,508.362 369.713,512.362 370.5,516.5C 369.953,519.826 369.453,523.16 369,526.5C 368.51,525.207 368.343,523.873 368.5,522.5C 367.448,522.351 366.448,522.517 365.5,523C 366.524,524.367 366.024,525.2 364,525.5C 362.779,524.728 361.779,523.728 361,522.5C 360.333,524.5 359.667,526.5 359,528.5C 357.644,527.62 356.144,527.286 354.5,527.5C 354.737,526.209 354.404,525.209 353.5,524.5C 353.5,497.833 353.5,471.167 353.5,444.5C 334.164,444.333 314.83,444.5 295.5,445C 294.944,445.383 294.611,445.883 294.5,446.5C 292.219,446.077 290.552,446.744 289.5,448.5C 288.671,455.989 288.171,463.656 288,471.5C 287.5,472 287,472.5 286.5,473C 281.249,473.804 276.082,473.637 271,472.5C 270.667,453.833 270.333,435.167 270,416.5C 269.832,434.671 269.332,452.671 268.5,470.5C 268.5,452.5 268.5,434.5 268.5,416.5C 250.167,416.5 231.833,416.5 213.5,416.5C 231.662,415.668 249.995,415.168 268.5,415C 249.593,414.175 230.76,414.341 212,415.5C 211.5,434.83 211.333,454.164 211.5,473.5C 205.833,473.5 200.167,473.5 194.5,473.5C 194.831,446.995 194.498,420.661 193.5,394.5C 193.436,393.635 193.103,392.635 192.5,391.5C 191.797,389.284 190.464,387.451 188.5,386C 181.565,380.869 174.565,376.036 167.5,371.5C 167.657,370.127 167.49,368.793 167,367.5C 162.066,368.144 157.233,368.81 152.5,369.5C 134.785,369.165 118.451,369.499 103.5,370.5C 101.709,371.228 101.042,372.228 101.5,373.5C 100.501,413.997 100.168,454.663 100.5,495.5C 94.7711,495.212 89.1045,495.546 83.5,496.5C 82.5001,448.171 82.1667,399.838 82.5,351.5C 112.835,351.333 143.168,351.5 173.5,352C 186.19,360.679 198.523,369.846 210.5,379.5C 211.289,385.115 211.789,390.782 212,396.5C 213.292,397.791 214.458,397.791 215.5,396.5 Z"/></g>
<g><path style="opacity:0.004" fill="#fa9c05" d="M 193.5,362.5 C 194.833,363.167 194.833,363.167 193.5,362.5 Z"/></g>
<g><path style="opacity:0.004" fill="#817053" d="M 475.5,365.5 C 476.833,366.167 476.833,366.167 475.5,365.5 Z"/></g>
<g><path style="opacity:0.849" fill="#fc8300" d="M 193.5,363.5 C 199.811,368.969 206.311,374.302 213,379.5C 212.957,385.122 213.791,390.456 215.5,395.5C 212.833,395.833 212.833,396.167 215.5,396.5C 214.458,397.791 213.292,397.791 212,396.5C 211.789,390.782 211.289,385.115 210.5,379.5C 198.523,369.846 186.19,360.679 173.5,352C 143.168,351.5 112.835,351.333 82.5,351.5C 82.1667,399.838 82.5001,448.171 83.5,496.5C 89.1045,495.546 94.7711,495.212 100.5,495.5C 100.5,496.167 100.833,496.5 101.5,496.5C 101.294,498.549 100.461,498.883 99,497.5C 98.5357,498.094 98.369,498.761 98.5,499.5C 97.7784,499.082 97.2784,498.416 97,497.5C 96.7216,498.416 96.2216,499.082 95.5,499.5C 93.9448,498.367 92.1114,497.701 90,497.5C 88.2098,498.285 86.5431,498.285 85,497.5C 84,498.167 83,498.833 82,499.5C 81.5,498.333 80.6667,497.5 79.5,497C 80.4972,447.905 80.8306,398.739 80.5,349.5C 112.168,349.333 143.835,349.5 175.5,350C 181.023,355.248 187.023,359.748 193.5,363.5 Z"/></g>
<g><path style="opacity:0.004" fill="#fd9801" d="M 172.5,378.5 C 173.833,379.167 173.833,379.167 172.5,378.5 Z"/></g>
<g><path style="opacity:1" fill="#fd8a00" d="M 192.5,391.5 C 184.655,386.077 176.989,380.411 169.5,374.5C 168.571,373.685 167.571,372.852 166.5,372C 156.658,371.83 146.991,371.33 137.5,370.5C 146.839,370.666 156.173,370.5 165.5,370C 161.179,369.501 156.846,369.334 152.5,369.5C 157.233,368.81 162.066,368.144 167,367.5C 167.49,368.793 167.657,370.127 167.5,371.5C 174.565,376.036 181.565,380.869 188.5,386C 190.464,387.451 191.797,389.284 192.5,391.5 Z"/></g>
<g><path style="opacity:0.004" fill="#fa9400" d="M 169.5,374.5 C 168.833,375.167 168.833,375.167 169.5,374.5 Z"/></g>
<g><path style="opacity:0.008" fill="#fe9505" d="M 152.5,372.5 C 153.833,373.167 153.833,373.167 152.5,372.5 Z"/></g>
<g><path style="opacity:0.004" fill="#fe9a03" d="M 107.5,372.5 C 108.833,373.167 108.833,373.167 107.5,372.5 Z"/></g>
<g><path style="opacity:0.981" fill="#fe7e00" d="M 152.5,369.5 C 156.846,369.334 161.179,369.501 165.5,370C 156.173,370.5 146.839,370.666 137.5,370.5C 126.146,371.375 114.812,371.375 103.5,370.5C 118.451,369.499 134.785,369.165 152.5,369.5 Z"/></g>
<g><path style="opacity:0.012" fill="#fe9a00" d="M 123.5,394.5 C 124.289,394.783 124.956,395.283 125.5,396C 124.184,396.528 123.517,396.028 123.5,394.5 Z"/></g>
<g><path style="opacity:0.004" fill="#fe9b02" d="M 137.5,394.5 C 138.833,395.167 138.833,395.167 137.5,394.5 Z"/></g>
<g><path style="opacity:0.004" fill="#fe9b01" d="M 126.5,395.5 C 127.833,396.167 127.833,396.167 126.5,395.5 Z"/></g>
<g><path style="opacity:0.008" fill="#fe9a00" d="M 155.5,395.5 C 156.833,396.167 156.833,396.167 155.5,395.5 Z"/></g>
<g><path style="opacity:0.004" fill="#fe9b00" d="M 163.5,395.5 C 164.833,396.167 164.833,396.167 163.5,395.5 Z"/></g>
<g><path style="opacity:0.988" fill="#fc7800" d="M 270.5,395.5 C 252.341,396.497 234.008,396.83 215.5,396.5C 212.833,396.167 212.833,395.833 215.5,395.5C 233.3,395.186 251.633,395.186 270.5,395.5 Z"/></g>
<g><path style="opacity:0.969" fill="#fb7700" d="M 271.5,395.5 C 276.833,395.5 282.167,395.5 287.5,395.5C 288.525,395.897 288.692,396.563 288,397.5C 282.4,396.854 276.9,396.187 271.5,395.5 Z"/></g>
<g><path style="opacity:0.004" fill="#f39a0c" d="M 293.5,398.5 C 294.833,399.167 294.833,399.167 293.5,398.5 Z"/></g>
<g><path style="opacity:0.559" fill="#fd8900" d="M 150.5,397.5 C 156.842,397.334 163.175,397.5 169.5,398C 169.623,404.016 169.623,410.182 169.5,416.5C 163.158,416.666 156.825,416.5 150.5,416C 149.244,410.041 149.244,403.874 150.5,397.5 Z"/></g>
<g><path style="opacity:0.994" fill="#fe9700" d="M 152.5,399.5 C 157.5,399.5 162.5,399.5 167.5,399.5C 168.098,404.56 168.098,409.56 167.5,414.5C 162.167,414.5 156.833,414.5 151.5,414.5C 151.221,409.405 151.555,404.405 152.5,399.5 Z"/></g>
<g><path style="opacity:0.994" fill="#fe9500" d="M 138.5,398.5 C 132.824,398.334 127.157,398.501 121.5,399C 126.823,399.499 132.156,399.666 137.5,399.5C 137.5,404.5 137.5,409.5 137.5,414.5C 131.5,414.5 125.5,414.5 119.5,414.5C 119.5,408.833 119.5,403.167 119.5,397.5C 126.022,397.177 132.355,397.51 138.5,398.5 Z"/></g>
<g><path style="opacity:0.967" fill="#fe7a00" d="M 138.5,398.5 C 138.5,404.167 138.5,409.833 138.5,415.5C 132.167,415.5 125.833,415.5 119.5,415.5C 119.5,415.167 119.5,414.833 119.5,414.5C 125.5,414.5 131.5,414.5 137.5,414.5C 137.5,409.5 137.5,404.5 137.5,399.5C 132.156,399.666 126.823,399.499 121.5,399C 127.157,398.501 132.824,398.334 138.5,398.5 Z"/></g>
<g><path style="opacity:0.004" fill="#fb9701" d="M 170.5,414.5 C 171.833,415.167 171.833,415.167 170.5,414.5 Z"/></g>
<g><path style="opacity:0.222" fill="#fd9201" d="M 138.5,398.5 C 139.49,404.31 139.823,410.31 139.5,416.5C 132.646,416.824 125.979,416.491 119.5,415.5C 125.833,415.5 132.167,415.5 138.5,415.5C 138.5,409.833 138.5,404.167 138.5,398.5 Z"/></g>
<g><path style="opacity:0.02" fill="#fe9b03" d="M 214.5,417.5 C 215.833,418.167 215.833,418.167 214.5,417.5 Z"/></g>
<g><path style="opacity:0.004" fill="#fe9c01" d="M 219.5,417.5 C 220.833,418.167 220.833,418.167 219.5,417.5 Z"/></g>
<g><path style="opacity:0.004" fill="#fe9b00" d="M 234.5,417.5 C 235.833,418.167 235.833,418.167 234.5,417.5 Z"/></g>
<g><path style="opacity:0.004" fill="#fe9e01" d="M 266.5,417.5 C 267.833,418.167 267.833,418.167 266.5,417.5 Z"/></g>
<g><path style="opacity:0.006" fill="#ff9a00" d="M 214.5,419.5 C 215.525,419.897 215.692,420.563 215,421.5C 214.536,420.906 214.369,420.239 214.5,419.5 Z"/></g>
<g><path style="opacity:0.008" fill="#fe9c02" d="M 266.5,420.5 C 267.525,420.897 267.692,421.563 267,422.5C 266.536,421.906 266.369,421.239 266.5,420.5 Z"/></g>
<g><path style="opacity:0.008" fill="#fa9902" d="M 292.5,423.5 C 293.833,424.167 293.833,424.167 292.5,423.5 Z"/></g>
<g><path style="opacity:0.004" fill="#fa9e04" d="M 314.5,423.5 C 315.833,424.167 315.833,424.167 314.5,423.5 Z"/></g>
<g><path style="opacity:0.004" fill="#fa9d04" d="M 321.5,423.5 C 322.833,424.167 322.833,424.167 321.5,423.5 Z"/></g>
<g><path style="opacity:0.016" fill="#f59d07" d="M 359.5,423.5 C 360.833,424.167 360.833,424.167 359.5,423.5 Z"/></g>
<g><path style="opacity:0.004" fill="#f29707" d="M 364.5,423.5 C 365.833,424.167 365.833,424.167 364.5,423.5 Z"/></g>
<g><path style="opacity:0.027" fill="#e39418" d="M 394.5,423.5 C 395.833,424.167 395.833,424.167 394.5,423.5 Z"/></g>
<g><path style="opacity:0.004" fill="#fc9c00" d="M 237.5,425.5 C 238.833,426.167 238.833,426.167 237.5,425.5 Z"/></g>
<g><path style="opacity:0.008" fill="#fe9f00" d="M 239.5,425.5 C 240.833,426.167 240.833,426.167 239.5,425.5 Z"/></g>
<g><path style="opacity:0.004" fill="#fd9c00" d="M 266.5,425.5 C 267.833,426.167 267.833,426.167 266.5,425.5 Z"/></g>
<g><path style="opacity:0.008" fill="#fe9802" d="M 253.5,426.5 C 254.833,427.167 254.833,427.167 253.5,426.5 Z"/></g>
<g><path style="opacity:0.998" fill="#fd8100" d="M 289.5,399.5 C 289.242,408.624 289.576,417.291 290.5,425.5C 323.998,426.332 357.664,426.832 391.5,427C 357.162,427.833 322.828,427.667 288.5,426.5C 288.167,425.833 287.833,425.167 287.5,424.5C 288.139,416.038 288.806,407.704 289.5,399.5 Z"/></g>
<g><path style="opacity:0.995" fill="#fe9600" d="M 120.5,445.5 C 119.539,443.735 119.205,441.735 119.5,439.5C 120.268,440.263 120.768,441.263 121,442.5C 121.767,438.442 121.6,434.442 120.5,430.5C 125.5,429.167 130.5,429.167 135.5,430.5C 137.971,434.611 137.971,438.777 135.5,443C 130.067,442.882 125.067,443.715 120.5,445.5 Z"/></g>
<g><path style="opacity:0.993" fill="#fe9400" d="M 250.5,445.5 C 250.649,444.448 250.483,443.448 250,442.5C 247.617,443.766 244.95,444.432 242,444.5C 239.111,444.453 236.278,444.12 233.5,443.5C 233.727,438.551 233.394,433.551 232.5,428.5C 234.099,428.768 235.432,428.434 236.5,427.5C 236.5,426.833 236.833,426.5 237.5,426.5C 240.304,427.638 243.304,427.805 246.5,427C 247.791,424.122 249.291,424.288 251,427.5C 251.819,433.681 251.653,439.681 250.5,445.5 Z"/></g>
<g><path style="opacity:0.705" fill="#fd8700" d="M 236.5,427.5 C 235.432,428.434 234.099,428.768 232.5,428.5C 233.394,433.551 233.727,438.551 233.5,443.5C 236.278,444.12 239.111,444.453 242,444.5C 244.95,444.432 247.617,443.766 250,442.5C 250.483,443.448 250.649,444.448 250.5,445.5C 244.355,446.49 238.022,446.823 231.5,446.5C 231.5,440.167 231.5,433.833 231.5,427.5C 233.167,427.5 234.833,427.5 236.5,427.5 Z"/></g>
<g><path style="opacity:0.008" fill="#fc9600" d="M 252.5,430.5 C 253.833,431.167 253.833,431.167 252.5,430.5 Z"/></g>
<g><path style="opacity:0.004" fill="#fe9a00" d="M 266.5,430.5 C 267.833,431.167 267.833,431.167 266.5,430.5 Z"/></g>
<g><path style="opacity:0.516" fill="#fe7f00" d="M 193.5,394.5 C 194.498,420.661 194.831,446.995 194.5,473.5C 200.167,473.5 205.833,473.5 211.5,473.5C 211.333,454.164 211.5,434.83 212,415.5C 230.76,414.341 249.593,414.175 268.5,415C 249.995,415.168 231.662,415.668 213.5,416.5C 213.5,436.167 213.5,455.833 213.5,475.5C 206.171,476.537 198.837,476.037 191.5,474C 193.603,471.335 193.936,468.501 192.5,465.5C 193.498,442.006 193.831,418.339 193.5,394.5 Z"/></g>
<g><path style="opacity:0.976" fill="#fe7f00" d="M 101.5,373.5 C 102.273,414.78 102.273,455.78 101.5,496.5C 100.833,496.5 100.5,496.167 100.5,495.5C 100.168,454.663 100.501,413.997 101.5,373.5 Z"/></g>
<g><path style="opacity:0.957" fill="#fd8900" d="M 168.5,425.5 C 169.234,426.878 169.901,428.378 170.5,430C 169.322,435.277 169.322,440.277 170.5,445C 164.012,446.458 157.345,446.958 150.5,446.5C 150.334,439.825 150.5,433.158 151,426.5C 156.416,427.639 161.916,427.806 167.5,427C 168.056,426.617 168.389,426.117 168.5,425.5 Z"/></g>
<g><path style="opacity:0.993" fill="#fe9500" d="M 153.5,428.5 C 158.141,429.127 162.807,429.46 167.5,429.5C 167.223,434.233 167.557,438.9 168.5,443.5C 162.872,444.495 157.206,444.829 151.5,444.5C 151.609,439.455 151.609,434.622 151.5,430C 152.416,429.722 153.082,429.222 153.5,428.5 Z"/></g>
<g><path style="opacity:0.012" fill="#fd9902" d="M 266.5,434.5 C 267.833,435.167 267.833,435.167 266.5,434.5 Z"/></g>
<g><path style="opacity:0.008" fill="#fc9a01" d="M 266.5,436.5 C 267.833,437.167 267.833,437.167 266.5,436.5 Z"/></g>
<g><path style="opacity:0.004" fill="#fc9900" d="M 266.5,438.5 C 267.833,439.167 267.833,439.167 266.5,438.5 Z"/></g>
<g><path style="opacity:0.004" fill="#fe9a00" d="M 171.5,439.5 C 172.833,440.167 172.833,440.167 171.5,439.5 Z"/></g>
<g><path style="opacity:0.004" fill="#fe9800" d="M 214.5,439.5 C 215.833,440.167 215.833,440.167 214.5,439.5 Z"/></g>
<g><path style="opacity:0.004" fill="#fd9801" d="M 252.5,439.5 C 253.833,440.167 253.833,440.167 252.5,439.5 Z"/></g>
<g><path style="opacity:0.971" fill="#fd8600" d="M 120.5,445.5 C 125.067,443.715 130.067,442.882 135.5,443C 137.971,438.777 137.971,434.611 135.5,430.5C 130.5,429.167 125.5,429.167 120.5,430.5C 121.6,434.442 121.767,438.442 121,442.5C 120.768,441.263 120.268,440.263 119.5,439.5C 119.5,435.5 119.5,431.5 119.5,427.5C 126.264,426.805 132.597,426.638 138.5,427C 139.262,432.892 139.595,439.058 139.5,445.5C 132.901,446.581 126.568,446.581 120.5,445.5 Z"/></g>
<g><path style="opacity:0.008" fill="#fd9902" d="M 148.5,440.5 C 149.833,441.167 149.833,441.167 148.5,440.5 Z"/></g>
<g><path style="opacity:0.012" fill="#fe9a00" d="M 254.5,441.5 C 255.833,442.167 255.833,442.167 254.5,441.5 Z"/></g>
<g><path style="opacity:0.008" fill="#fe9e01" d="M 266.5,442.5 C 267.833,443.167 267.833,443.167 266.5,442.5 Z"/></g>
<g><path style="opacity:0.796" fill="#f88a04" d="M 396.5,426.5 C 396.194,432.966 396.528,439.299 397.5,445.5C 389.528,446.498 381.528,446.831 373.5,446.5C 373.831,474.338 373.498,502.005 372.5,529.5C 372.5,501.833 372.5,474.167 372.5,446.5C 372.611,445.883 372.944,445.383 373.5,445C 380.684,445.69 387.684,445.357 394.5,444C 395.473,438.593 395.807,433.093 395.5,427.5C 391.828,426.955 392.162,426.622 396.5,426.5 Z"/></g>
<g><path style="opacity:0.791" fill="#fd8700" d="M 353.5,524.5 C 353.737,525.791 353.404,526.791 352.5,527.5C 352.167,527.5 351.833,527.5 351.5,527.5C 351.5,500.5 351.5,473.5 351.5,446.5C 332.5,446.5 313.5,446.5 294.5,446.5C 294.611,445.883 294.944,445.383 295.5,445C 314.83,444.5 334.164,444.333 353.5,444.5C 353.5,471.167 353.5,497.833 353.5,524.5 Z"/></g>
<g><path style="opacity:0.004" fill="#fd9b02" d="M 266.5,449.5 C 267.833,450.167 267.833,450.167 266.5,449.5 Z"/></g>
<g><path style="opacity:0.004" fill="#fd9e00" d="M 266.5,451.5 C 267.833,452.167 267.833,452.167 266.5,451.5 Z"/></g>
<g><path style="opacity:0.008" fill="#ff9a02" d="M 191.5,455.5 C 192.525,455.897 192.692,456.563 192,457.5C 191.536,456.906 191.369,456.239 191.5,455.5 Z"/></g>
<g><path style="opacity:0.993" fill="#fe9500" d="M 138.5,467.5 C 139.473,469.948 139.806,472.615 139.5,475.5C 134.833,475.5 130.167,475.5 125.5,475.5C 128.641,474.679 131.975,474.179 135.5,474C 130.845,473.501 126.179,473.334 121.5,473.5C 121.5,468.5 121.5,463.5 121.5,458.5C 126.565,458.219 131.565,458.552 136.5,459.5C 137.308,464.588 137.642,469.588 137.5,474.5C 138.474,472.257 138.808,469.924 138.5,467.5 Z"/></g>
<g><path style="opacity:0.991" fill="#fe9600" d="M 250.5,476.5 C 244.5,475.167 238.5,475.167 232.5,476.5C 231.662,476.158 231.328,475.492 231.5,474.5C 236.844,474.666 242.177,474.499 247.5,474C 242.467,473.829 237.467,473.329 232.5,472.5C 233.508,467.867 233.508,463.2 232.5,458.5C 238.167,458.5 243.833,458.5 249.5,458.5C 249.334,463.844 249.501,469.177 250,474.5C 250.499,468.843 250.666,463.176 250.5,457.5C 244.167,457.5 237.833,457.5 231.5,457.5C 236.233,456.81 241.066,456.144 246,455.5C 247.699,456.406 249.533,456.739 251.5,456.5C 251.824,463.354 251.491,470.021 250.5,476.5 Z"/></g>
<g><path style="opacity:0.761" fill="#fd7e00" d="M 231.5,457.5 C 237.833,457.5 244.167,457.5 250.5,457.5C 250.666,463.176 250.499,468.843 250,474.5C 249.501,469.177 249.334,463.844 249.5,458.5C 243.833,458.5 238.167,458.5 232.5,458.5C 233.508,463.2 233.508,467.867 232.5,472.5C 237.467,473.329 242.467,473.829 247.5,474C 242.177,474.499 236.844,474.666 231.5,474.5C 231.5,468.833 231.5,463.167 231.5,457.5 Z"/></g>
<g><path style="opacity:0.407" fill="#fd8600" d="M 138.5,467.5 C 138.808,469.924 138.474,472.257 137.5,474.5C 137.642,469.588 137.308,464.588 136.5,459.5C 131.565,458.552 126.565,458.219 121.5,458.5C 121.5,463.5 121.5,468.5 121.5,473.5C 126.179,473.334 130.845,473.501 135.5,474C 131.975,474.179 128.641,474.679 125.5,475.5C 123.5,475.5 121.5,475.5 119.5,475.5C 119.5,469.167 119.5,462.833 119.5,456.5C 125.842,456.334 132.175,456.5 138.5,457C 138.632,460.531 138.632,464.031 138.5,467.5 Z"/></g>
<g><path style="opacity:0.775" fill="#fd8600" d="M 150.5,456.5 C 156.833,456.5 163.167,456.5 169.5,456.5C 169.5,462.833 169.5,469.167 169.5,475.5C 163.321,475.832 156.988,475.832 150.5,475.5C 150.5,469.167 150.5,462.833 150.5,456.5 Z"/></g>
<g><path style="opacity:0.991" fill="#fe9600" d="M 151.5,458.5 C 156.833,458.5 162.167,458.5 167.5,458.5C 167.5,463.5 167.5,468.5 167.5,473.5C 162.435,473.781 157.435,473.448 152.5,472.5C 151.507,467.88 151.173,463.214 151.5,458.5 Z"/></g>
<g><path style="opacity:0.008" fill="#fe9a02" d="M 266.5,461.5 C 267.833,462.167 267.833,462.167 266.5,461.5 Z"/></g>
<g><path style="opacity:0.004" fill="#fd9c00" d="M 266.5,463.5 C 267.833,464.167 267.833,464.167 266.5,463.5 Z"/></g>
<g><path style="opacity:0.004" fill="#fe9a01" d="M 192.5,465.5 C 191.833,464.167 191.833,464.167 192.5,465.5 Z"/></g>
<g><path style="opacity:0.004" fill="#fc9900" d="M 266.5,465.5 C 267.833,466.167 267.833,466.167 266.5,465.5 Z"/></g>
<g><path style="opacity:0.004" fill="#fd9701" d="M 214.5,467.5 C 215.573,468.251 215.74,469.251 215,470.5C 214.517,469.552 214.351,468.552 214.5,467.5 Z"/></g>
<g><path style="opacity:0.004" fill="#fe9900" d="M 148.5,469.5 C 149.833,470.167 149.833,470.167 148.5,469.5 Z"/></g>
<g><path style="opacity:0.004" fill="#fe9902" d="M 266.5,469.5 C 267.833,470.167 267.833,470.167 266.5,469.5 Z"/></g>
<g><path style="opacity:0.008" fill="#fe9901" d="M 140.5,471.5 C 141.833,472.167 141.833,472.167 140.5,471.5 Z"/></g>
<g><path style="opacity:0.012" fill="#fa9d00" d="M 214.5,471.5 C 215.833,472.167 215.833,472.167 214.5,471.5 Z"/></g>
<g><path style="opacity:0.004" fill="#fe9900" d="M 142.5,473.5 C 143.833,474.167 143.833,474.167 142.5,473.5 Z"/></g>
<g><path style="opacity:0.012" fill="#fd9b02" d="M 214.5,473.5 C 215.833,474.167 215.833,474.167 214.5,473.5 Z"/></g>
<g><path style="opacity:0.995" fill="#fe8000" d="M 289.5,448.5 C 289.666,458.172 289.5,467.839 289,477.5C 288.617,476.944 288.117,476.611 287.5,476.5C 281.355,475.51 275.022,475.177 268.5,475.5C 268.5,473.833 268.5,472.167 268.5,470.5C 269.332,452.671 269.832,434.671 270,416.5C 270.333,435.167 270.667,453.833 271,472.5C 276.082,473.637 281.249,473.804 286.5,473C 287,472.5 287.5,472 288,471.5C 288.171,463.656 288.671,455.989 289.5,448.5 Z"/></g>
<g><path style="opacity:0.008" fill="#fc9a00" d="M 120.5,476.5 C 121.833,477.167 121.833,477.167 120.5,476.5 Z"/></g>
<g><path style="opacity:0.008" fill="#fe9801" d="M 122.5,477.5 C 123.601,476.402 124.934,476.235 126.5,477C 125.122,478.334 123.789,478.501 122.5,477.5 Z"/></g>
<g><path style="opacity:0.012" fill="#fd9400" d="M 135.5,477.5 C 136.251,476.427 137.251,476.26 138.5,477C 137.552,477.483 136.552,477.649 135.5,477.5 Z"/></g>
<g><path style="opacity:0.004" fill="#fb9b00" d="M 158.5,476.5 C 159.833,477.167 159.833,477.167 158.5,476.5 Z"/></g>
<g><path style="opacity:0.008" fill="#fd9a01" d="M 168.5,476.5 C 169.833,477.167 169.833,477.167 168.5,476.5 Z"/></g>
<g><path style="opacity:0.008" fill="#fe9704" d="M 193.5,476.5 C 194.833,477.167 194.833,477.167 193.5,476.5 Z"/></g>
<g><path style="opacity:0.004" fill="#ff9700" d="M 196.5,477.5 C 196.897,476.475 197.563,476.308 198.5,477C 197.906,477.464 197.239,477.631 196.5,477.5 Z"/></g>
<g><path style="opacity:0.004" fill="#fd9a00" d="M 201.5,476.5 C 202.833,477.167 202.833,477.167 201.5,476.5 Z"/></g>
<g><path style="opacity:0.008" fill="#fd9b01" d="M 206.5,476.5 C 207.833,477.167 207.833,477.167 206.5,476.5 Z"/></g>
<g><path style="opacity:0.008" fill="#fb9601" d="M 208.5,477.5 C 208.897,476.475 209.563,476.308 210.5,477C 209.906,477.464 209.239,477.631 208.5,477.5 Z"/></g>
<g><path style="opacity:0.004" fill="#fe9601" d="M 212.5,477.5 C 211.833,476.167 211.833,476.167 212.5,477.5 Z"/></g>
<g><path style="opacity:0.012" fill="#fd9900" d="M 232.5,476.5 C 233.833,477.167 233.833,477.167 232.5,476.5 Z"/></g>
<g><path style="opacity:0.016" fill="#fe9800" d="M 235.5,476.5 C 236.833,477.167 236.833,477.167 235.5,476.5 Z"/></g>
<g><path style="opacity:0.006" fill="#fe9c00" d="M 238.5,476.5 C 239.525,476.897 239.692,477.563 239,478.5C 238.536,477.906 238.369,477.239 238.5,476.5 Z"/></g>
<g><path style="opacity:0.009" fill="#fd9701" d="M 250.5,476.5 C 249.749,477.573 248.749,477.74 247.5,477C 248.448,476.517 249.448,476.351 250.5,476.5 Z"/></g>
<g><path style="opacity:0.016" fill="#fb9702" d="M 270.5,476.5 C 271.833,477.167 271.833,477.167 270.5,476.5 Z"/></g>
<g><path style="opacity:0.004" fill="#fd9800" d="M 276.5,476.5 C 277.833,477.167 277.833,477.167 276.5,476.5 Z"/></g>
<g><path style="opacity:0.004" fill="#fc9b02" d="M 279.5,476.5 C 280.833,477.167 280.833,477.167 279.5,476.5 Z"/></g>
<g><path style="opacity:0.004" fill="#fe9b03" d="M 281.5,477.5 C 281.897,476.475 282.563,476.308 283.5,477C 282.906,477.464 282.239,477.631 281.5,477.5 Z"/></g>
<g><path style="opacity:0.004" fill="#fe9a01" d="M 287.5,476.5 C 286.833,477.167 286.833,477.167 287.5,476.5 Z"/></g>
<g><path style="opacity:0.004" fill="#786757" d="M 423.5,476.5 C 424.833,477.167 424.833,477.167 423.5,476.5 Z"/></g>
<g><path style="opacity:0.004" fill="#756755" d="M 425.5,476.5 C 426.833,477.167 426.833,477.167 425.5,476.5 Z"/></g>
<g><path style="opacity:0.004" fill="#726555" d="M 431.5,477.5 C 430.833,476.167 430.833,476.167 431.5,477.5 Z"/></g>
<g><path style="opacity:0.004" fill="#fe9800" d="M 212.5,477.5 C 213.833,478.167 213.833,478.167 212.5,477.5 Z"/></g>
<g><path style="opacity:0.012" fill="#5b5b5a" d="M 605.5,479.5 C 606.833,480.167 606.833,480.167 605.5,479.5 Z"/></g>
<g><path style="opacity:0.01" fill="#5b5c5c" d="M 738.5,480.5 C 738.897,479.475 739.563,479.308 740.5,480C 739.906,480.464 739.239,480.631 738.5,480.5 Z"/></g>
<g><path style="opacity:0.016" fill="#575c5a" d="M 874.5,479.5 C 875.833,480.167 875.833,480.167 874.5,479.5 Z"/></g>
<g><path style="opacity:0.008" fill="#595b5b" d="M 877.5,479.5 C 878.833,480.167 878.833,480.167 877.5,479.5 Z"/></g>
<g><path style="opacity:0.008" fill="#5d605e" d="M 944.5,480.5 C 943.833,479.167 943.833,479.167 944.5,480.5 Z"/></g>
<g><path style="opacity:0.99" fill="#4c4c4c" d="M 431.5,477.5 C 435.035,477.337 436.035,478.67 434.5,481.5C 434.631,480.761 434.464,480.094 434,479.5C 433.782,482.426 433.282,485.26 432.5,488C 432.833,488.333 433.167,488.667 433.5,489C 440.492,489.5 447.492,489.666 454.5,489.5C 454.5,492.833 454.5,496.167 454.5,499.5C 442.833,499.5 431.167,499.5 419.5,499.5C 413.833,499.5 408.167,499.5 402.5,499.5C 402.768,497.901 402.434,496.568 401.5,495.5C 401.167,495.5 400.833,495.5 400.5,495.5C 401.388,492.946 401.721,490.279 401.5,487.5C 403.735,487.205 405.735,487.539 407.5,488.5C 408.671,489.742 413.338,490.075 421.5,489.5C 421.665,486.15 421.498,482.817 421,479.5C 420.819,482.695 420.319,485.695 419.5,488.5C 419.5,485.167 419.5,481.833 419.5,478.5C 423.702,478.817 427.702,478.483 431.5,477.5 Z"/></g>
<g><path style="opacity:0.008" fill="#685f55" d="M 436.5,480.5 C 437.833,481.167 437.833,481.167 436.5,480.5 Z"/></g>
<g><path style="opacity:0.008" fill="#67615b" d="M 464.5,481.5 C 463.833,480.167 463.833,480.167 464.5,481.5 Z"/></g>
<g><path style="opacity:0.008" fill="#5b595a" d="M 506.5,480.5 C 507.833,481.167 507.833,481.167 506.5,480.5 Z"/></g>
<g><path style="opacity:0.008" fill="#5a595c" d="M 629.5,480.5 C 630.833,481.167 630.833,481.167 629.5,480.5 Z"/></g>
<g><path style="opacity:0.004" fill="#5d5959" d="M 738.5,480.5 C 737.833,481.167 737.833,481.167 738.5,480.5 Z"/></g>
<g><path style="opacity:0.004" fill="#5a575b" d="M 802.5,480.5 C 803.833,481.167 803.833,481.167 802.5,480.5 Z"/></g>
<g><path style="opacity:0.004" fill="#585c5f" d="M 944.5,480.5 C 945.833,481.167 945.833,481.167 944.5,480.5 Z"/></g>
<g><path style="opacity:0.004" fill="#595d5b" d="M 947.5,480.5 C 948.833,481.167 948.833,481.167 947.5,480.5 Z"/></g>
<g><path style="opacity:0.876" fill="#282928" d="M 479.5,481.5 C 479.5,490.167 479.5,498.833 479.5,507.5C 484.167,507.5 488.833,507.5 493.5,507.5C 493.5,508.5 493.5,509.5 493.5,510.5C 488.664,509.859 483.831,509.192 479,508.5C 478.5,499.84 478.334,491.173 478.5,482.5C 474.486,482.666 470.486,482.499 466.5,482C 470.821,481.501 475.154,481.334 479.5,481.5 Z"/></g>
<g><path style="opacity:0.992" fill="#292a29" d="M 575.5,481.5 C 575.703,486.804 575.703,492.137 575.5,497.5C 574.513,492.695 574.179,487.695 574.5,482.5C 570.833,482.5 567.167,482.5 563.5,482.5C 566.722,481.498 570.722,481.165 575.5,481.5 Z"/></g>
<g><path style="opacity:0.004" fill="#595a5d" d="M 851.5,481.5 C 852.833,482.167 852.833,482.167 851.5,481.5 Z"/></g>
<g><path style="opacity:0.004" fill="#74644e" d="M 415.5,482.5 C 416.833,483.167 416.833,483.167 415.5,482.5 Z"/></g>
<g><path style="opacity:0.992" fill="#4a4b4b" d="M 479.5,481.5 C 475.154,481.334 470.821,481.501 466.5,482C 470.486,482.499 474.486,482.666 478.5,482.5C 478.334,491.173 478.5,499.84 479,508.5C 483.831,509.192 488.664,509.859 493.5,510.5C 493.846,512.338 493.846,514.338 493.5,516.5C 493.977,517.478 494.643,518.311 495.5,519C 494.906,519.464 494.239,519.631 493.5,519.5C 488.695,518.513 483.695,518.179 478.5,518.5C 478.5,528.5 478.5,538.5 478.5,548.5C 474.486,548.334 470.486,548.501 466.5,549C 470.821,549.499 475.154,549.666 479.5,549.5C 474.695,550.487 469.695,550.821 464.5,550.5C 465.567,526.566 465.567,503.566 464.5,481.5C 465.807,480.847 467.14,480.18 468.5,479.5C 472.303,480.104 475.969,480.77 479.5,481.5 Z"/></g>
<g><path style="opacity:0.008" fill="#5b5a5a" d="M 695.5,482.5 C 696.833,483.167 696.833,483.167 695.5,482.5 Z"/></g>
<g><path style="opacity:0.024" fill="#58595a" d="M 851.5,482.5 C 851.5,482.833 851.5,483.167 851.5,483.5C 850.167,483.5 848.833,483.5 847.5,483.5C 848.292,481.255 849.625,480.922 851.5,482.5 Z"/></g>
<g><path style="opacity:0.004" fill="#74634e" d="M 417.5,483.5 C 418.833,484.167 418.833,484.167 417.5,483.5 Z"/></g>
<g><path style="opacity:0.993" fill="#4b4c4d" d="M 563.5,482.5 C 567.167,482.5 570.833,482.5 574.5,482.5C 574.179,487.695 574.513,492.695 575.5,497.5C 579.841,497.16 584.507,496.994 589.5,497C 590.822,501.267 590.822,505.434 589.5,509.5C 589.665,505.818 589.499,502.152 589,498.5C 588.502,501.817 588.335,505.15 588.5,508.5C 583.968,508.182 579.634,508.515 575.5,509.5C 574.833,516.012 574.167,522.679 573.5,529.5C 570.242,528.583 566.909,528.249 563.5,528.5C 563.5,513.167 563.5,497.833 563.5,482.5 Z"/></g>
<g><path style="opacity:0.984" fill="#2e2f2e" d="M 649.5,495.5 C 658.318,494.507 667.318,494.173 676.5,494.5C 676.5,491.167 676.5,487.833 676.5,484.5C 653.167,484.5 629.833,484.5 606.5,484.5C 606.5,487.833 606.5,491.167 606.5,494.5C 616.5,494.5 626.5,494.5 636.5,494.5C 636.5,495.833 636.5,497.167 636.5,498.5C 635.833,498.5 635.5,498.167 635.5,497.5C 635.631,496.761 635.464,496.094 635,495.5C 625.043,495.549 614.876,495.549 604.5,495.5C 604.376,490.965 604.709,486.799 605.5,483C 614.333,482.833 623.167,482.667 632,482.5C 647.708,482.92 662.875,483.087 677.5,483C 678.464,487.066 678.797,491.233 678.5,495.5C 668.833,495.5 659.167,495.5 649.5,495.5 Z"/></g>
<g><path style="opacity:0.97" fill="#171717" d="M 847.5,483.5 C 848.833,483.5 850.167,483.5 851.5,483.5C 851.5,483.833 851.5,484.167 851.5,484.5C 850.833,484.5 850.167,484.5 849.5,484.5C 834.5,484.5 819.5,484.5 804.5,484.5C 803.833,484.5 803.5,484.167 803.5,483.5C 818.017,483.32 832.684,483.32 847.5,483.5 Z"/></g>
<g><path style="opacity:0.004" fill="#58585c" d="M 948.5,483.5 C 949.833,484.167 949.833,484.167 948.5,483.5 Z"/></g>
<g><path style="opacity:0.008" fill="#5e5b5b" d="M 559.5,484.5 C 560.833,485.167 560.833,485.167 559.5,484.5 Z"/></g>
<g><path style="opacity:0.004" fill="#585657" d="M 602.5,484.5 C 603.833,485.167 603.833,485.167 602.5,484.5 Z"/></g>
<g><path style="opacity:0.004" fill="#5b5b57" d="M 696.5,484.5 C 697.833,485.167 697.833,485.167 696.5,484.5 Z"/></g>
<g><path style="opacity:0.004" fill="#58595a" d="M 852.5,483.5 C 853.573,484.251 853.74,485.251 853,486.5C 852.517,485.552 852.351,484.552 852.5,483.5 Z"/></g>
<g><path style="opacity:0.991" fill="#4a4b4c" d="M 877.5,483.5 C 861.516,482.755 861.183,482.755 876.5,483.5C 876.5,492.167 876.5,500.833 876.5,509.5C 880.182,509.665 883.848,509.499 887.5,509C 883.975,508.821 880.641,508.321 877.5,507.5C 882.167,507.5 886.833,507.5 891.5,507.5C 891.5,511.833 891.5,516.167 891.5,520.5C 886.833,520.5 882.167,520.5 877.5,520.5C 876.501,529.082 876.168,538.415 876.5,548.5C 872.833,548.5 869.167,548.5 865.5,548.5C 865.667,528.164 865.5,507.831 865,487.5C 864.809,489.708 864.309,491.708 863.5,493.5C 863.069,488.968 863.569,484.635 865,480.5C 865.893,481.081 866.893,481.415 868,481.5C 869.573,481.155 870.74,480.489 871.5,479.5C 874.009,480.836 876.676,481.67 879.5,482C 878.956,482.717 878.289,483.217 877.5,483.5 Z"/></g>
<g><path style="opacity:0.012" fill="#5b5b5c" d="M 960.5,484.5 C 961.525,484.897 961.692,485.563 961,486.5C 960.536,485.906 960.369,485.239 960.5,484.5 Z"/></g>
<g><path style="opacity:0.992" fill="#4b4c4d" d="M 510.5,483.5 C 512.265,484.461 514.265,484.795 516.5,484.5C 516.5,495.833 516.5,507.167 516.5,518.5C 523.314,517.948 529.981,517.281 536.5,516.5C 536.833,515.167 537.167,515.167 537.5,516.5C 542.64,517.488 547.974,517.821 553.5,517.5C 553.5,520.833 553.5,524.167 553.5,527.5C 537.5,527.5 521.5,527.5 505.5,527.5C 505.5,513.167 505.5,498.833 505.5,484.5C 507.099,484.768 508.432,484.434 509.5,483.5C 509.833,482.167 510.167,482.167 510.5,483.5 Z"/></g>
<g><path style="opacity:0.012" fill="#5d5e5c" d="M 559.5,486.5 C 560.833,487.167 560.833,487.167 559.5,486.5 Z"/></g>
<g><path style="opacity:0.994" fill="#4a4b4c" d="M 649.5,495.5 C 649.012,499.245 650.346,502.578 653.5,505.5C 653.333,505.833 653.167,506.167 653,506.5C 651.721,504.063 650.221,503.563 648.5,505C 650.32,505.979 651.487,507.479 652,509.5C 653.085,508.707 654.252,508.04 655.5,507.5C 662.958,513.051 671.125,517.384 680,520.5C 679.222,523.549 677.722,526.382 675.5,529C 672.972,528.895 670.638,529.062 668.5,529.5C 666.847,529.34 665.514,528.674 664.5,527.5C 665.738,527.19 665.738,526.69 664.5,526C 656.844,523.018 650.511,518.351 645.5,512C 644.563,511.308 643.897,511.475 643.5,512.5C 642.833,512.5 642.5,512.833 642.5,513.5C 640.246,514.415 638.246,515.748 636.5,517.5C 636.44,516.957 636.107,516.624 635.5,516.5C 628.612,522.113 620.946,526.446 612.5,529.5C 609.45,527.451 607.117,524.784 605.5,521.5C 614.328,518.009 622.828,513.009 631,506.5C 633.054,503.953 634.887,501.286 636.5,498.5C 636.5,497.167 636.5,495.833 636.5,494.5C 626.5,494.5 616.5,494.5 606.5,494.5C 606.5,491.167 606.5,487.833 606.5,484.5C 629.833,484.5 653.167,484.5 676.5,484.5C 676.5,487.833 676.5,491.167 676.5,494.5C 667.318,494.173 658.318,494.507 649.5,495.5 Z"/></g>
<g><path style="opacity:0.004" fill="#595a59" d="M 800.5,486.5 C 801.833,487.167 801.833,487.167 800.5,486.5 Z"/></g>
<g><path style="opacity:0.008" fill="#565a56" d="M 697.5,487.5 C 698.833,488.167 698.833,488.167 697.5,487.5 Z"/></g>
<g><path style="opacity:0.008" fill="#9a7444" d="M 399.5,488.5 C 400.833,489.167 400.833,489.167 399.5,488.5 Z"/></g>
<g><path style="opacity:0.933" fill="#292928" d="M 407.5,488.5 C 411.5,488.5 415.5,488.5 419.5,488.5C 420.319,485.695 420.819,482.695 421,479.5C 421.498,482.817 421.665,486.15 421.5,489.5C 413.338,490.075 408.671,489.742 407.5,488.5 Z"/></g>
<g><path style="opacity:0.959" fill="#363737" d="M 735.5,495.5 C 729.013,494.672 722.346,494.172 715.5,494C 723.827,493.5 732.16,493.334 740.5,493.5C 740.5,490.5 740.5,487.5 740.5,484.5C 736.958,484.813 733.625,484.479 730.5,483.5C 734.112,482.489 737.779,482.322 741.5,483C 741.281,486.766 741.614,490.933 742.5,495.5C 740.167,495.5 737.833,495.5 735.5,495.5 Z"/></g>
<g><path style="opacity:0.004" fill="#5e5d5c" d="M 960.5,491.5 C 961.833,492.167 961.833,492.167 960.5,491.5 Z"/></g>
<g><path style="opacity:0.008" fill="#555656" d="M 602.5,492.5 C 603.833,493.167 603.833,493.167 602.5,492.5 Z"/></g>
<g><path style="opacity:0.008" fill="#5a5957" d="M 746.5,492.5 C 747.833,493.167 747.833,493.167 746.5,492.5 Z"/></g>
<g><path style="opacity:0.901" fill="#262627" d="M 877.5,483.5 C 877.65,491.667 877.65,499.667 877.5,507.5C 880.641,508.321 883.975,508.821 887.5,509C 883.848,509.499 880.182,509.665 876.5,509.5C 876.5,500.833 876.5,492.167 876.5,483.5C 861.183,482.755 861.516,482.755 877.5,483.5 Z"/></g>
<g><path style="opacity:1" fill="#313132" d="M 510.5,483.5 C 512.167,483.5 513.833,483.5 515.5,483.5C 516.833,494.5 518.167,505.5 519.5,516.5C 525.001,516.169 530.668,516.169 536.5,516.5C 529.981,517.281 523.314,517.948 516.5,518.5C 516.5,507.167 516.5,495.833 516.5,484.5C 514.265,484.795 512.265,484.461 510.5,483.5 Z"/></g>
<g><path style="opacity:0.004" fill="#5b5b59" d="M 800.5,493.5 C 801.833,494.167 801.833,494.167 800.5,493.5 Z"/></g>
<g><path style="opacity:0.997" fill="#4a4b4c" d="M 723.5,483.5 C 726.102,482.534 728.435,482.534 730.5,483.5C 733.625,484.479 736.958,484.813 740.5,484.5C 740.5,487.5 740.5,490.5 740.5,493.5C 732.16,493.334 723.827,493.5 715.5,494C 722.346,494.172 729.013,494.672 735.5,495.5C 728.5,495.5 721.5,495.5 714.5,495.5C 714.5,497.5 714.5,499.5 714.5,501.5C 723.349,501.174 732.016,501.507 740.5,502.5C 731.475,502.168 722.475,502.502 713.5,503.5C 722.141,504.498 730.808,504.831 739.5,504.5C 739.5,507.167 739.5,509.833 739.5,512.5C 731.16,512.334 722.827,512.5 714.5,513C 721.826,513.5 729.159,513.666 736.5,513.5C 736.217,514.289 735.717,514.956 735,515.5C 728.256,514.521 721.422,514.188 714.5,514.5C 714.5,516.5 714.5,518.5 714.5,520.5C 723.774,520.806 732.941,520.472 742,519.5C 742.717,520.044 743.217,520.711 743.5,521.5C 733.074,522.127 722.907,521.46 713,519.5C 712.517,520.448 712.351,521.448 712.5,522.5C 722.167,522.5 731.833,522.5 741.5,522.5C 741.5,525.833 741.5,529.167 741.5,532.5C 728.167,532.5 714.833,532.5 701.5,532.5C 701.5,516.5 701.5,500.5 701.5,484.5C 711.552,484.879 718.886,484.546 723.5,483.5 Z"/></g>
<g><path style="opacity:0.297" fill="#505052" d="M 782.5,535.5 C 782.5,517.5 782.5,499.5 782.5,481.5C 778.167,481.5 773.833,481.5 769.5,481.5C 769.783,480.711 770.283,480.044 771,479.5C 775.228,479.599 779.394,479.933 783.5,480.5C 783.83,499.008 783.497,517.341 782.5,535.5 Z"/></g>
<g><path style="opacity:0.004" fill="#595c59" d="M 861.5,494.5 C 862.833,495.167 862.833,495.167 861.5,494.5 Z"/></g>
<g><path style="opacity:0.004" fill="#fe9d00" d="M 191.5,495.5 C 192.833,496.167 192.833,496.167 191.5,495.5 Z"/></g>
<g><path style="opacity:0.008" fill="#fd9c02" d="M 279.5,495.5 C 280.833,496.167 280.833,496.167 279.5,495.5 Z"/></g>
<g><path style="opacity:0.012" fill="#977245" d="M 400.5,495.5 C 399.833,496.167 399.833,496.167 400.5,495.5 Z"/></g>
<g><path style="opacity:0.408" fill="#464545" d="M 515.5,483.5 C 516.209,482.596 517.209,482.263 518.5,482.5C 518.189,493.914 518.523,505.248 519.5,516.5C 518.167,505.5 516.833,494.5 515.5,483.5 Z"/></g>
<g><path style="opacity:0.008" fill="#575956" d="M 652.5,496.5 C 653.833,497.167 653.833,497.167 652.5,496.5 Z"/></g>
<g><path style="opacity:0.863" fill="#2c2d2d" d="M 947.5,524.5 C 935.829,524.667 924.162,524.5 912.5,524C 923.828,523.5 935.162,523.333 946.5,523.5C 946.5,510.5 946.5,497.5 946.5,484.5C 931.167,484.5 915.833,484.5 900.5,484.5C 900.5,487.833 900.5,491.167 900.5,494.5C 911.833,494.5 923.167,494.5 934.5,494.5C 934.822,500.358 934.489,506.025 933.5,511.5C 933.5,506.5 933.5,501.5 933.5,496.5C 922.162,496.667 910.828,496.5 899.5,496C 898.374,492.256 898.207,488.423 899,484.5C 900.126,483.056 901.626,482.39 903.5,482.5C 917.604,482.958 932.271,482.958 947.5,482.5C 947.545,496.013 947.545,509.346 947.5,522.5C 949.925,523.649 949.925,524.316 947.5,524.5 Z"/></g>
<g><path style="opacity:0.004" fill="#fd9a02" d="M 152.5,498.5 C 153.833,499.167 153.833,499.167 152.5,498.5 Z"/></g>
<g><path style="opacity:0.012" fill="#fe9901" d="M 207.5,498.5 C 208.833,499.167 208.833,499.167 207.5,498.5 Z"/></g>
<g><path style="opacity:0.008" fill="#fe9800" d="M 211.5,498.5 C 212.833,499.167 212.833,499.167 211.5,498.5 Z"/></g>
<g><path style="opacity:0.016" fill="#fc9c02" d="M 285.5,498.5 C 286.833,499.167 286.833,499.167 285.5,498.5 Z"/></g>
<g><path style="opacity:0.004" fill="#fc9b04" d="M 295.5,498.5 C 296.833,499.167 296.833,499.167 295.5,498.5 Z"/></g>
<g><path style="opacity:0.004" fill="#fc9d00" d="M 297.5,498.5 C 298.833,499.167 298.833,499.167 297.5,498.5 Z"/></g>
<g><path style="opacity:0.004" fill="#575659" d="M 715.5,497.5 C 716.573,498.251 716.74,499.251 716,500.5C 715.517,499.552 715.351,498.552 715.5,497.5 Z"/></g>
<g><path style="opacity:0.004" fill="#5a5959" d="M 831.5,498.5 C 832.833,499.167 832.833,499.167 831.5,498.5 Z"/></g>
<g><path style="opacity:0.004" fill="#fe9c03" d="M 92.5,499.5 C 93.8333,500.167 93.8333,500.167 92.5,499.5 Z"/></g>
<g><path style="opacity:0.004" fill="#fd9b05" d="M 95.5,499.5 C 94.8333,500.167 94.8333,500.167 95.5,499.5 Z"/></g>
<g><path style="opacity:0.004" fill="#fe9903" d="M 98.5,499.5 C 99.8333,500.167 99.8333,500.167 98.5,499.5 Z"/></g>
<g><path style="opacity:0.004" fill="#fd9c01" d="M 101.5,499.5 C 102.833,500.167 102.833,500.167 101.5,499.5 Z"/></g>
<g><path style="opacity:0.984" fill="#3d3833" d="M 401.5,495.5 C 402.434,496.568 402.768,497.901 402.5,499.5C 408.167,499.5 413.833,499.5 419.5,499.5C 420.568,500.434 421.901,500.768 423.5,500.5C 423.5,500.833 423.5,501.167 423.5,501.5C 417.595,501.383 411.928,501.049 406.5,500.5C 404.833,500.5 403.167,500.5 401.5,500.5C 400.761,500.631 400.094,500.464 399.5,500C 401.107,498.951 401.773,497.451 401.5,495.5 Z"/></g>
<g><path style="opacity:0.996" fill="#252524" d="M 434.5,481.5 C 434.244,483.792 434.577,485.959 435.5,488C 442.082,488.81 448.582,488.643 455,487.5C 455.374,488.416 455.874,489.25 456.5,490C 455.663,493.581 455.329,497.081 455.5,500.5C 448.964,501.413 442.964,501.413 437.5,500.5C 436.167,500.5 434.833,500.5 433.5,500.5C 432.833,500.5 432.167,500.5 431.5,500.5C 430.167,500.5 428.833,500.5 427.5,500.5C 426.167,500.5 424.833,500.5 423.5,500.5C 421.901,500.768 420.568,500.434 419.5,499.5C 431.167,499.5 442.833,499.5 454.5,499.5C 454.5,496.167 454.5,492.833 454.5,489.5C 447.492,489.666 440.492,489.5 433.5,489C 433.167,488.667 432.833,488.333 432.5,488C 433.282,485.26 433.782,482.426 434,479.5C 434.464,480.094 434.631,480.761 434.5,481.5 Z"/></g>
<g><path style="opacity:0.012" fill="#595759" d="M 718.5,498.5 C 719.525,498.897 719.692,499.563 719,500.5C 718.536,499.906 718.369,499.239 718.5,498.5 Z"/></g>
<g><path style="opacity:1" fill="#242525" d="M 769.5,481.5 C 773.833,481.5 778.167,481.5 782.5,481.5C 782.5,499.5 782.5,517.5 782.5,535.5C 778.167,535.5 773.833,535.5 769.5,535.5C 769.333,528.334 769.333,521.001 769.5,513.5C 770.499,519.742 770.833,526.742 770.5,534.5C 774.167,534.5 777.833,534.5 781.5,534.5C 781.5,517.167 781.5,499.833 781.5,482.5C 777.833,482.5 774.167,482.5 770.5,482.5C 770.822,488.358 770.489,494.025 769.5,499.5C 769.37,494.151 769.37,488.818 769.5,483.5C 767.075,482.351 767.075,481.684 769.5,481.5 Z"/></g>
<g><path style="opacity:0.033" fill="#7e6d58" d="M 401.5,500.5 C 403.167,500.5 404.833,500.5 406.5,500.5C 404.833,503.167 403.167,503.167 401.5,500.5 Z"/></g>
<g><path style="opacity:0.012" fill="#595958" d="M 834.5,501.5 C 835.833,502.167 835.833,502.167 834.5,501.5 Z"/></g>
<g><path style="opacity:0.004" fill="#555555" d="M 931.5,501.5 C 932.833,502.167 932.833,502.167 931.5,501.5 Z"/></g>
<g><path style="opacity:0.02" fill="#fd9903" d="M 301.5,502.5 C 302.833,503.167 302.833,503.167 301.5,502.5 Z"/></g>
<g><path style="opacity:0.004" fill="#5a595c" d="M 861.5,502.5 C 862.833,503.167 862.833,503.167 861.5,502.5 Z"/></g>
<g><path style="opacity:0.016" fill="#76634f" d="M 413.5,504.5 C 412.833,503.167 412.833,503.167 413.5,504.5 Z"/></g>
<g><path style="opacity:0.993" fill="#4b4b4b" d="M 427.5,500.5 C 428.833,500.5 430.167,500.5 431.5,500.5C 432.167,501.833 432.833,501.833 433.5,500.5C 434.833,500.5 436.167,500.5 437.5,500.5C 436.737,501.268 435.737,501.768 434.5,502C 436.382,502.198 438.048,502.698 439.5,503.5C 438.448,503.351 437.448,503.517 436.5,504C 447.966,507.791 453.3,515.624 452.5,527.5C 452.672,528.492 452.338,529.158 451.5,529.5C 443.339,540.712 432.006,544.212 417.5,540C 405.231,534.095 401.898,524.928 407.5,512.5C 407.376,511.893 407.043,511.56 406.5,511.5C 408.527,508.806 410.861,506.473 413.5,504.5C 416.94,503.489 420.274,502.489 423.5,501.5C 425.099,501.768 426.432,501.434 427.5,500.5 Z M 426.5,513.5 C 429.591,514.997 432.925,515.83 436.5,516C 438.466,518.442 439.466,520.942 439.5,523.5C 438.662,523.842 438.328,524.508 438.5,525.5C 437.738,527.262 436.404,528.262 434.5,528.5C 432.71,529.997 430.544,530.664 428,530.5C 425.456,530.664 423.29,529.997 421.5,528.5C 417.909,526.218 416.576,522.884 417.5,518.5C 420.127,516.023 423.127,514.356 426.5,513.5 Z"/></g>
<g><path style="opacity:0.997" fill="#2e2e30" d="M 740.5,502.5 C 741.643,505.976 741.81,509.642 741,513.5C 739.51,514.728 738.01,514.728 736.5,513.5C 729.159,513.666 721.826,513.5 714.5,513C 722.827,512.5 731.16,512.334 739.5,512.5C 739.5,509.833 739.5,507.167 739.5,504.5C 730.808,504.831 722.141,504.498 713.5,503.5C 722.475,502.502 731.475,502.168 740.5,502.5 Z"/></g>
<g><path style="opacity:0.004" fill="#555857" d="M 814.5,503.5 C 815.833,504.167 815.833,504.167 814.5,503.5 Z"/></g>
<g><path style="opacity:0.004" fill="#fe9a00" d="M 231.5,504.5 C 232.833,505.167 232.833,505.167 231.5,504.5 Z"/></g>
<g><path style="opacity:0.537" fill="#353534" d="M 439.5,503.5 C 450.688,507.88 455.021,515.88 452.5,527.5C 453.3,515.624 447.966,507.791 436.5,504C 437.448,503.517 438.448,503.351 439.5,503.5 Z"/></g>
<g><path style="opacity:0.863" fill="#fd8700" d="M 279.5,543.5 C 280.11,544.391 280.443,545.391 280.5,546.5C 280.19,547.738 279.69,547.738 279,546.5C 270.021,532.359 260.855,518.359 251.5,504.5C 246.248,502.355 240.915,502.022 235.5,503.5C 234.5,526.455 234.166,550.788 234.5,576.5C 233.502,551.339 233.169,526.005 233.5,500.5C 239.509,500.334 245.509,500.501 251.5,501C 260.733,515.318 270.066,529.484 279.5,543.5 Z M 252.5,532.5 C 251.833,532.5 251.167,532.5 250.5,532.5C 250.638,528.714 251.305,528.714 252.5,532.5 Z"/></g>
<g><path style="opacity:0.008" fill="#595857" d="M 485.5,506.5 C 485.897,505.475 486.563,505.308 487.5,506C 486.906,506.464 486.239,506.631 485.5,506.5 Z"/></g>
<g><path style="opacity:0.014" fill="#575658" d="M 887.5,506.5 C 887.897,505.475 888.563,505.308 889.5,506C 888.906,506.464 888.239,506.631 887.5,506.5 Z"/></g>
<g><path style="opacity:0.976" fill="#1f2020" d="M 589.5,509.5 C 584.833,509.5 580.167,509.5 575.5,509.5C 579.634,508.515 583.968,508.182 588.5,508.5C 588.335,505.15 588.502,501.817 589,498.5C 589.499,502.152 589.665,505.818 589.5,509.5 Z"/></g>
<g><path style="opacity:0.004" fill="#545356" d="M 931.5,509.5 C 932.833,510.167 932.833,510.167 931.5,509.5 Z"/></g>
<g><path style="opacity:0.016" fill="#535556" d="M 811.5,510.5 C 812.833,511.167 812.833,511.167 811.5,510.5 Z"/></g>
<g><path style="opacity:0.004" fill="#575457" d="M 829.5,510.5 C 830.833,511.167 830.833,511.167 829.5,510.5 Z"/></g>
<g><path style="opacity:0.004" fill="#575758" d="M 852.5,510.5 C 853.833,511.167 853.833,511.167 852.5,510.5 Z"/></g>
<g><path style="opacity:0.016" fill="#595759" d="M 892.5,509.5 C 893.525,509.897 893.692,510.563 893,511.5C 892.536,510.906 892.369,510.239 892.5,509.5 Z"/></g>
<g><path style="opacity:0.8" fill="#fd8400" d="M 166.5,544.5 C 175.45,543.35 185.783,543.183 197.5,544C 196.991,553.806 196.658,563.973 196.5,574.5C 201.537,574.413 206.537,574.746 211.5,575.5C 211.667,551.498 211.5,527.498 211,503.5C 206.191,501.968 201.524,502.301 197,504.5C 196.212,510.22 196.379,515.886 197.5,521.5C 196.833,523.833 196.167,526.167 195.5,528.5C 185.469,529.808 175.469,529.808 165.5,528.5C 164.193,519.103 164.193,510.436 165.5,502.5C 165.985,510.839 166.319,519.173 166.5,527.5C 175.68,527.432 184.68,527.432 193.5,527.5C 194.815,518.941 194.815,510.441 193.5,502C 199.988,500.542 206.655,500.042 213.5,500.5C 213.5,525.833 213.5,551.167 213.5,576.5C 207.242,576.19 201.076,576.524 195,577.5C 194.5,566.505 194.333,555.505 194.5,544.5C 185.167,544.5 175.833,544.5 166.5,544.5 Z"/></g>
<g><path style="opacity:0.004" fill="#fd9b00" d="M 301.5,511.5 C 302.833,512.167 302.833,512.167 301.5,511.5 Z"/></g>
<g><path style="opacity:0.008" fill="#555657" d="M 667.5,511.5 C 668.833,512.167 668.833,512.167 667.5,511.5 Z"/></g>
<g><path style="opacity:0.004" fill="#fe9900" d="M 231.5,512.5 C 232.833,513.167 232.833,513.167 231.5,512.5 Z"/></g>
<g><path style="opacity:0.004" fill="#545755" d="M 559.5,512.5 C 560.833,513.167 560.833,513.167 559.5,512.5 Z"/></g>
<g><path style="opacity:0.004" fill="#5a575a" d="M 612.5,512.5 C 613.833,513.167 613.833,513.167 612.5,512.5 Z"/></g>
<g><path style="opacity:0.766" fill="#313132" d="M 803.5,483.5 C 803.5,484.167 803.833,484.5 804.5,484.5C 804.5,487.833 804.5,491.167 804.5,494.5C 815.505,494.333 826.505,494.5 837.5,495C 838.482,502.747 838.815,510.58 838.5,518.5C 842.167,518.5 845.833,518.5 849.5,518.5C 849.5,507.167 849.5,495.833 849.5,484.5C 850.167,484.5 850.833,484.5 851.5,484.5C 851.5,496.167 851.5,507.833 851.5,519.5C 846.982,520.037 842.315,520.037 837.5,519.5C 837.5,511.833 837.5,504.167 837.5,496.5C 825.833,496.5 814.167,496.5 802.5,496.5C 802.182,491.968 802.515,487.634 803.5,483.5 Z"/></g>
<g><path style="opacity:0.994" fill="#4b4c4d" d="M 804.5,484.5 C 819.5,484.5 834.5,484.5 849.5,484.5C 849.5,495.833 849.5,507.167 849.5,518.5C 845.833,518.5 842.167,518.5 838.5,518.5C 838.815,510.58 838.482,502.747 837.5,495C 826.505,494.5 815.505,494.333 804.5,494.5C 804.5,491.167 804.5,487.833 804.5,484.5 Z"/></g>
<g><path style="opacity:0.008" fill="#fd9b00" d="M 214.5,513.5 C 215.833,514.167 215.833,514.167 214.5,513.5 Z"/></g>
<g><path style="opacity:0.02" fill="#585857" d="M 642.5,513.5 C 642.833,513.5 643.167,513.5 643.5,513.5C 643.315,514.17 642.981,514.17 642.5,513.5 Z"/></g>
<g><path style="opacity:0.991" fill="#4b4b4c" d="M 761.5,486.5 C 761.5,484.833 761.5,483.167 761.5,481.5C 758.15,481.335 754.817,481.502 751.5,482C 754.426,482.218 757.26,482.718 760,483.5C 760.333,489.5 760.667,495.5 761,501.5C 761.495,499.527 761.662,497.527 761.5,495.5C 762.302,496.952 762.802,498.618 763,500.5C 765.139,500.457 767.306,500.123 769.5,499.5C 770.489,494.025 770.822,488.358 770.5,482.5C 774.167,482.5 777.833,482.5 781.5,482.5C 781.5,499.833 781.5,517.167 781.5,534.5C 777.833,534.5 774.167,534.5 770.5,534.5C 770.833,526.742 770.499,519.742 769.5,513.5C 766.467,513.132 763.8,513.798 761.5,515.5C 761.631,514.761 761.464,514.094 761,513.5C 759.79,520.112 759.29,526.778 759.5,533.5C 756.5,533.5 753.5,533.5 750.5,533.5C 750.667,516.163 750.5,498.83 750,481.5C 749.5,499.164 749.333,516.83 749.5,534.5C 753.5,534.5 757.5,534.5 761.5,534.5C 756.377,536.114 751.377,535.614 746.5,533C 748.478,515.738 749.145,498.238 748.5,480.5C 753.167,480.5 757.833,480.5 762.5,480.5C 762.795,482.735 762.461,484.735 761.5,486.5 Z"/></g>
<g><path style="opacity:0.004" fill="#5c5d5c" d="M 767.5,493.5 C 768.833,494.167 768.833,494.167 767.5,493.5 Z"/></g>
<g><path style="opacity:0.008" fill="#595b5a" d="M 765.5,486.5 C 766.833,487.167 766.833,487.167 765.5,486.5 Z"/></g>
<g><path style="opacity:0.969" fill="#282829" d="M 761.5,486.5 C 762.372,489.421 762.372,492.421 761.5,495.5C 761.662,497.527 761.495,499.527 761,501.5C 760.667,495.5 760.333,489.5 760,483.5C 757.26,482.718 754.426,482.218 751.5,482C 754.817,481.502 758.15,481.335 761.5,481.5C 761.5,483.167 761.5,484.833 761.5,486.5 Z"/></g>
<g><path style="opacity:0.992" fill="#4a4b4d" d="M 947.5,524.5 C 936.346,525.495 925.012,525.828 913.5,525.5C 913.5,531.5 913.5,537.5 913.5,543.5C 926.833,544.833 940.167,544.833 953.5,543.5C 954.397,542.402 955.23,542.402 956,543.5C 956.273,545.101 956.773,546.601 957.5,548C 955.841,550.226 956.508,551.893 959.5,553C 956.456,553.359 956.122,554.026 958.5,555C 957.906,555.464 957.239,555.631 956.5,555.5C 955.833,555.5 955.167,555.5 954.5,555.5C 936.674,554.503 918.674,554.17 900.5,554.5C 900.5,540.833 900.5,527.167 900.5,513.5C 911.916,513.832 922.583,513.499 932.5,512.5C 932.5,511.833 932.833,511.5 933.5,511.5C 934.489,506.025 934.822,500.358 934.5,494.5C 923.167,494.5 911.833,494.5 900.5,494.5C 900.5,491.167 900.5,487.833 900.5,484.5C 915.833,484.5 931.167,484.5 946.5,484.5C 946.5,497.5 946.5,510.5 946.5,523.5C 935.162,523.333 923.828,523.5 912.5,524C 924.162,524.5 935.829,524.667 947.5,524.5 Z"/></g>
<g><path style="opacity:0.827" fill="#383736" d="M 439.5,523.5 C 439.466,520.942 438.466,518.442 436.5,516C 432.925,515.83 429.591,514.997 426.5,513.5C 426.379,512.157 428.712,511.99 433.5,513C 439.416,515.355 441.416,518.855 439.5,523.5 Z"/></g>
<g><path style="opacity:0.738" fill="#3e3e3f" d="M 575.5,481.5 C 570.722,481.165 566.722,481.498 563.5,482.5C 563.5,497.833 563.5,513.167 563.5,528.5C 566.909,528.249 570.242,528.583 573.5,529.5C 574.167,522.679 574.833,516.012 575.5,509.5C 580.167,509.5 584.833,509.5 589.5,509.5C 585.018,510.326 580.351,510.826 575.5,511C 576.303,516.414 576.636,521.748 576.5,527C 575.751,528.734 575.251,530.567 575,532.5C 570.599,531.533 566.099,531.2 561.5,531.5C 561.5,514.5 561.5,497.5 561.5,480.5C 565.805,480.737 569.972,480.404 574,479.5C 574.717,480.044 575.217,480.711 575.5,481.5 Z"/></g>
<g><path style="opacity:0.761" fill="#383839" d="M 649.5,495.5 C 652.898,503.898 658.898,509.564 667.5,512.5C 672.742,515.529 678.409,517.696 684.5,519C 681.585,522.828 678.919,526.828 676.5,531C 673.581,531.433 670.914,530.933 668.5,529.5C 670.638,529.062 672.972,528.895 675.5,529C 677.722,526.382 679.222,523.549 680,520.5C 671.125,517.384 662.958,513.051 655.5,507.5C 654.252,508.04 653.085,508.707 652,509.5C 651.487,507.479 650.32,505.979 648.5,505C 650.221,503.563 651.721,504.063 653,506.5C 653.167,506.167 653.333,505.833 653.5,505.5C 650.346,502.578 649.012,499.245 649.5,495.5 Z"/></g>
<g><path style="opacity:0.004" fill="#585958" d="M 716.5,515.5 C 717.833,516.167 717.833,516.167 716.5,515.5 Z"/></g>
<g><path style="opacity:0.004" fill="#565755" d="M 721.5,515.5 C 722.833,516.167 722.833,516.167 721.5,515.5 Z"/></g>
<g><path style="opacity:0.004" fill="#5b5859" d="M 737.5,515.5 C 738.833,516.167 738.833,516.167 737.5,515.5 Z"/></g>
<g><path style="opacity:0.995" fill="#fe9600" d="M 371.5,504.5 C 372.5,527.332 369.667,549.665 363,571.5C 360.199,578.435 356.866,585.102 353,591.5C 352.26,592.749 352.427,593.749 353.5,594.5C 353.068,595.71 352.401,596.71 351.5,597.5C 351.19,596.262 350.69,596.262 350,597.5C 329.262,629.232 300.762,650.732 264.5,662C 264.728,662.399 265.062,662.565 265.5,662.5C 265.158,663.338 264.492,663.672 263.5,663.5C 262.903,662.861 262.07,662.528 261,662.5C 256.628,663.504 252.294,664.504 248,665.5C 234.646,665.613 221.146,665.447 207.5,665C 199.185,663.895 191.352,661.395 184,657.5C 182.238,657.944 182.405,658.444 184.5,659C 180.179,658.675 176.012,657.508 172,655.5C 171.235,655.57 170.735,655.903 170.5,656.5C 169.508,656.672 168.842,656.338 168.5,655.5C 159.985,649.455 150.652,643.621 140.5,638C 125.629,626.012 112.796,612.179 102,596.5C 97.2969,587.081 92.9636,577.414 89,567.5C 88.31,566.262 87.81,566.262 87.5,567.5C 86.6618,567.158 86.3284,566.492 86.5,565.5C 87.1471,564.726 87.4805,563.726 87.5,562.5C 83.4555,549.154 81.1221,535.487 80.5,521.5C 87.1667,521.5 93.8333,521.5 100.5,521.5C 104.448,583.922 136.115,624.755 195.5,644C 200.011,644.401 204.511,644.901 209,645.5C 210.385,645.486 211.551,645.152 212.5,644.5C 222.829,645.755 233.162,645.755 243.5,644.5C 245.628,645.629 247.961,645.796 250.5,645C 287.066,637.48 315.233,617.98 335,586.5C 335.74,585.251 335.573,584.251 334.5,583.5C 334.5,582.833 334.833,582.5 335.5,582.5C 341.776,574.183 346.276,564.849 349,554.5C 351.298,545.656 352.464,536.656 352.5,527.5C 353.404,526.791 353.737,525.791 353.5,524.5C 354.404,525.209 354.737,526.209 354.5,527.5C 356.144,527.286 357.644,527.62 359,528.5C 359.667,526.5 360.333,524.5 361,522.5C 361.779,523.728 362.779,524.728 364,525.5C 366.024,525.2 366.524,524.367 365.5,523C 366.448,522.517 367.448,522.351 368.5,522.5C 368.343,523.873 368.51,525.207 369,526.5C 369.453,523.16 369.953,519.826 370.5,516.5C 369.713,512.362 370.046,508.362 371.5,504.5 Z M 252.5,532.5 C 251.833,532.5 251.167,532.5 250.5,532.5C 250.638,528.714 251.305,528.714 252.5,532.5 Z"/></g>
<g><path style="opacity:0.02" fill="#876d47" d="M 401.5,516.5 C 402.833,517.167 402.833,517.167 401.5,516.5 Z"/></g>
<g><path style="opacity:0.012" fill="#59565a" d="M 742.5,516.5 C 743.833,517.167 743.833,517.167 742.5,516.5 Z"/></g>
<g><path style="opacity:0.008" fill="#8b7048" d="M 401.5,517.5 C 400.833,518.167 400.833,518.167 401.5,517.5 Z"/></g>
<g><path style="opacity:1" fill="#373738" d="M 635.5,497.5 C 635.5,498.167 635.833,498.5 636.5,498.5C 634.887,501.286 633.054,503.953 631,506.5C 622.828,513.009 614.328,518.009 605.5,521.5C 607.117,524.784 609.45,527.451 612.5,529.5C 620.946,526.446 628.612,522.113 635.5,516.5C 636.107,516.624 636.44,516.957 636.5,517.5C 629.244,523.551 621.077,528.218 612,531.5C 608.344,528.338 605.178,524.671 602.5,520.5C 610.386,517.146 618.052,513.313 625.5,509C 627.912,506.588 629.912,504.588 631.5,503C 632.977,501.188 634.31,499.355 635.5,497.5 Z"/></g>
<g><path style="opacity:0.016" fill="#595858" d="M 715.5,518.5 C 715.897,517.475 716.563,517.308 717.5,518C 716.906,518.464 716.239,518.631 715.5,518.5 Z"/></g>
<g><path style="opacity:0.673" fill="#333334" d="M 877.5,520.5 C 877.842,530.284 877.842,539.951 877.5,549.5C 873.167,549.5 868.833,549.5 864.5,549.5C 863.503,531.007 863.17,512.341 863.5,493.5C 864.309,491.708 864.809,489.708 865,487.5C 865.5,507.831 865.667,528.164 865.5,548.5C 869.167,548.5 872.833,548.5 876.5,548.5C 876.168,538.415 876.501,529.082 877.5,520.5 Z"/></g>
<g><path style="opacity:0.004" fill="#585857" d="M 559.5,518.5 C 560.833,519.167 560.833,519.167 559.5,518.5 Z"/></g>
<g><path style="opacity:0.012" fill="#585657" d="M 763.5,518.5 C 764.833,519.167 764.833,519.167 763.5,518.5 Z"/></g>
<g><path style="opacity:0.004" fill="#545655" d="M 852.5,518.5 C 853.833,519.167 853.833,519.167 852.5,518.5 Z"/></g>
<g><path style="opacity:0.016" fill="#fe9800" d="M 214.5,521.5 C 215.833,522.167 215.833,522.167 214.5,521.5 Z"/></g>
<g><path style="opacity:0.004" fill="#5a5954" d="M 454.5,522.5 C 455.833,523.167 455.833,523.167 454.5,522.5 Z"/></g>
<g><path style="opacity:0.941" fill="#343435" d="M 664.5,527.5 C 656.43,524.428 649.43,519.762 643.5,513.5C 643.5,513.167 643.5,512.833 643.5,512.5C 643.897,511.475 644.563,511.308 645.5,512C 650.511,518.351 656.844,523.018 664.5,526C 665.738,526.69 665.738,527.19 664.5,527.5 Z"/></g>
<g><path style="opacity:0.004" fill="#585957" d="M 798.5,523.5 C 797.833,522.167 797.833,522.167 798.5,523.5 Z"/></g>
<g><path style="opacity:0.004" fill="#545756" d="M 798.5,523.5 C 799.833,524.167 799.833,524.167 798.5,523.5 Z"/></g>
<g><path style="opacity:0.004" fill="#565457" d="M 810.5,524.5 C 810.897,523.475 811.563,523.308 812.5,524C 811.906,524.464 811.239,524.631 810.5,524.5 Z"/></g>
<g><path style="opacity:0.008" fill="#5b5a5b" d="M 829.5,523.5 C 830.833,524.167 830.833,524.167 829.5,523.5 Z"/></g>
<g><path style="opacity:0.012" fill="#565656" d="M 950.5,523.5 C 951.833,524.167 951.833,524.167 950.5,523.5 Z"/></g>
<g><path style="opacity:0.016" fill="#595856" d="M 655.5,524.5 C 656.833,525.167 656.833,525.167 655.5,524.5 Z"/></g>
<g><path style="opacity:0.078" fill="#4f4f50" d="M 814.5,507.5 C 814.5,513.833 814.5,520.167 814.5,526.5C 808.833,526.5 803.167,526.5 797.5,526.5C 802.64,525.512 807.974,525.179 813.5,525.5C 813.177,519.31 813.51,513.31 814.5,507.5 Z"/></g>
<g><path style="opacity:0.014" fill="#545454" d="M 914.5,527.5 C 915.946,526.387 917.613,526.22 919.5,527C 917.866,527.494 916.199,527.66 914.5,527.5 Z"/></g>
<g><path style="opacity:0.004" fill="#555554" d="M 926.5,526.5 C 927.833,527.167 927.833,527.167 926.5,526.5 Z"/></g>
<g><path style="opacity:0.004" fill="#555556" d="M 939.5,526.5 C 940.833,527.167 940.833,527.167 939.5,526.5 Z"/></g>
<g><path style="opacity:0.014" fill="#545556" d="M 942.5,527.5 C 942.897,526.475 943.563,526.308 944.5,527C 943.906,527.464 943.239,527.631 942.5,527.5 Z"/></g>
<g><path style="opacity:0.004" fill="#8b6d46" d="M 401.5,527.5 C 402.833,528.167 402.833,528.167 401.5,527.5 Z"/></g>
<g><path style="opacity:0.905" fill="#343435" d="M 493.5,519.5 C 489.018,520.326 484.351,520.826 479.5,521C 480.317,530.516 480.317,540.016 479.5,549.5C 475.154,549.666 470.821,549.499 466.5,549C 470.486,548.501 474.486,548.334 478.5,548.5C 478.5,538.5 478.5,528.5 478.5,518.5C 483.695,518.179 488.695,518.513 493.5,519.5 Z"/></g>
<g><path style="opacity:0.971" fill="#2c2b2d" d="M 504.5,483.5 C 506.167,483.5 507.833,483.5 509.5,483.5C 508.432,484.434 507.099,484.768 505.5,484.5C 505.5,498.833 505.5,513.167 505.5,527.5C 521.5,527.5 537.5,527.5 553.5,527.5C 553.5,524.167 553.5,520.833 553.5,517.5C 547.974,517.821 542.64,517.488 537.5,516.5C 542.782,516.659 548.282,516.326 554,515.5C 554.5,516 555,516.5 555.5,517C 554.878,521.015 554.544,524.848 554.5,528.5C 537.833,528.5 521.167,528.5 504.5,528.5C 504.5,513.5 504.5,498.5 504.5,483.5 Z"/></g>
<g><path style="opacity:0.008" fill="#595857" d="M 559.5,527.5 C 560.833,528.167 560.833,528.167 559.5,527.5 Z"/></g>
<g><path style="opacity:0.995" fill="#343536" d="M 827.5,507.5 C 823.702,508.483 819.702,508.817 815.5,508.5C 815.5,515.167 815.5,521.833 815.5,528.5C 810.167,528.5 804.833,528.5 799.5,528.5C 799.5,531.5 799.5,534.5 799.5,537.5C 819.08,537.467 838.413,537.467 857.5,537.5C 857.5,537.833 857.5,538.167 857.5,538.5C 837.5,538.5 817.5,538.5 797.5,538.5C 796.322,534.452 796.322,530.452 797.5,526.5C 803.167,526.5 808.833,526.5 814.5,526.5C 814.5,520.167 814.5,513.833 814.5,507.5C 818.833,506.167 823.167,506.167 827.5,507.5 Z"/></g>
<g><path style="opacity:0.996" fill="#323435" d="M 857.5,526.5 C 857.5,526.833 857.5,527.167 857.5,527.5C 857.631,528.239 857.464,528.906 857,529.5C 846.146,528.966 835.312,528.133 824.5,527C 825.697,521.936 826.53,516.769 827,511.5C 827.499,516.489 827.666,521.489 827.5,526.5C 837.5,526.5 847.5,526.5 857.5,526.5 Z"/></g>
<g><path style="opacity:0.994" fill="#fe9500" d="M 165.5,502.5 C 164.193,510.436 164.193,519.103 165.5,528.5C 175.469,529.808 185.469,529.808 195.5,528.5C 196.167,526.167 196.833,523.833 197.5,521.5C 196.379,515.886 196.212,510.22 197,504.5C 201.524,502.301 206.191,501.968 211,503.5C 211.5,527.498 211.667,551.498 211.5,575.5C 206.537,574.746 201.537,574.413 196.5,574.5C 196.658,563.973 196.991,553.806 197.5,544C 185.783,543.183 175.45,543.35 166.5,544.5C 166.594,547.162 166.26,549.828 165.5,552.5C 164.501,559.077 164.167,566.41 164.5,574.5C 162.708,574.366 161.042,574.699 159.5,575.5C 156.375,574.521 153.042,574.187 149.5,574.5C 149.326,558.195 149.659,542.362 150.5,527C 149.668,519.221 148.835,511.387 148,503.5C 147.503,506.146 147.336,508.813 147.5,511.5C 146.518,508.038 146.185,504.371 146.5,500.5C 153.2,500.17 159.866,500.503 166.5,501.5C 166.376,502.107 166.043,502.44 165.5,502.5 Z"/></g>
<g><path style="opacity:0.008" fill="#fe9b00" d="M 192.5,514.5 C 193.833,515.167 193.833,515.167 192.5,514.5 Z"/></g>
<g><path style="opacity:0.004" fill="#fe9b00" d="M 192.5,507.5 C 193.833,508.167 193.833,508.167 192.5,507.5 Z"/></g>
<g><path style="opacity:0.004" fill="#fe9700" d="M 231.5,528.5 C 232.833,529.167 232.833,529.167 231.5,528.5 Z"/></g>
<g><path style="opacity:0.004" fill="#595457" d="M 453.5,528.5 C 454.833,529.167 454.833,529.167 453.5,528.5 Z"/></g>
<g><path style="opacity:0.49" fill="#484748" d="M 504.5,483.5 C 504.5,498.5 504.5,513.5 504.5,528.5C 521.167,528.5 537.833,528.5 554.5,528.5C 537.675,529.497 520.675,529.83 503.5,529.5C 503.17,513.991 503.504,498.658 504.5,483.5 Z"/></g>
<g><path style="opacity:0.016" fill="#575957" d="M 678.5,529.5 C 679.833,530.167 679.833,530.167 678.5,529.5 Z"/></g>
<g><path style="opacity:0.004" fill="#8c6f45" d="M 401.5,530.5 C 402.833,531.167 402.833,531.167 401.5,530.5 Z"/></g>
<g><path style="opacity:0.012" fill="#5a585a" d="M 503.5,530.5 C 504.833,531.167 504.833,531.167 503.5,530.5 Z"/></g>
<g><path style="opacity:0.008" fill="#5c5a5b" d="M 510.5,530.5 C 511.833,531.167 511.833,531.167 510.5,530.5 Z"/></g>
<g><path style="opacity:0.004" fill="#5a5a5b" d="M 513.5,530.5 C 514.833,531.167 514.833,531.167 513.5,530.5 Z"/></g>
<g><path style="opacity:0.008" fill="#5b5c5a" d="M 607.5,530.5 C 608.833,531.167 608.833,531.167 607.5,530.5 Z"/></g>
<g><path style="opacity:1" fill="#393736" d="M 417.5,518.5 C 416.576,522.884 417.909,526.218 421.5,528.5C 423.29,529.997 425.456,530.664 428,530.5C 430.544,530.664 432.71,529.997 434.5,528.5C 436.404,528.262 437.738,527.262 438.5,525.5C 439.525,525.897 439.692,526.563 439,527.5C 434.002,532.607 428.168,533.773 421.5,531C 416.438,528.267 414.605,524.1 416,518.5C 416.69,517.262 417.19,517.262 417.5,518.5 Z"/></g>
<g><path style="opacity:0.008" fill="#565857" d="M 744.5,531.5 C 745.833,532.167 745.833,532.167 744.5,531.5 Z"/></g>
<g><path style="opacity:0.929" fill="#323234" d="M 761.5,515.5 C 761.561,521.864 761.561,528.197 761.5,534.5C 757.5,534.5 753.5,534.5 749.5,534.5C 749.333,516.83 749.5,499.164 750,481.5C 750.5,498.83 750.667,516.163 750.5,533.5C 753.5,533.5 756.5,533.5 759.5,533.5C 759.29,526.778 759.79,520.112 761,513.5C 761.464,514.094 761.631,514.761 761.5,515.5 Z"/></g>
<g><path style="opacity:0.008" fill="#fc9700" d="M 214.5,532.5 C 215.573,533.251 215.74,534.251 215,535.5C 214.517,534.552 214.351,533.552 214.5,532.5 Z"/></g>
<g><path style="opacity:0.012" fill="#8a6d46" d="M 402.5,532.5 C 403.833,533.167 403.833,533.167 402.5,532.5 Z"/></g>
<g><path style="opacity:0.004" fill="#585958" d="M 563.5,532.5 C 564.833,533.167 564.833,533.167 563.5,532.5 Z"/></g>
<g><path style="opacity:0.008" fill="#575756" d="M 678.5,532.5 C 679.833,533.167 679.833,533.167 678.5,532.5 Z"/></g>
<g><path style="opacity:0.988" fill="#2d2e2e" d="M 723.5,483.5 C 718.886,484.546 711.552,484.879 701.5,484.5C 701.5,500.5 701.5,516.5 701.5,532.5C 714.833,532.5 728.167,532.5 741.5,532.5C 741.5,529.167 741.5,525.833 741.5,522.5C 731.833,522.5 722.167,522.5 712.5,522.5C 712.351,521.448 712.517,520.448 713,519.5C 722.907,521.46 733.074,522.127 743.5,521.5C 743.5,525.5 743.5,529.5 743.5,533.5C 729.167,533.5 714.833,533.5 700.5,533.5C 699.774,516.92 699.441,500.587 699.5,484.5C 701.777,483.077 704.277,482.411 707,482.5C 712.44,482.486 717.94,482.819 723.5,483.5 Z"/></g>
<g><path style="opacity:0.059" fill="#59595a" d="M 700.5,533.5 C 714.833,533.5 729.167,533.5 743.5,533.5C 729.765,534.175 715.931,534.841 702,535.5C 701.283,534.956 700.783,534.289 700.5,533.5 Z"/></g>
<g><path style="opacity:0.004" fill="#575a5a" d="M 960.5,533.5 C 961.833,534.167 961.833,534.167 960.5,533.5 Z"/></g>
<g><path style="opacity:0.016" fill="#595a58" d="M 564.5,534.5 C 565.833,535.167 565.833,535.167 564.5,534.5 Z"/></g>
<g><path style="opacity:0.989" fill="#4a4b4c" d="M 827.5,507.5 C 828.239,507.369 828.906,507.536 829.5,508C 828.402,508.77 828.402,509.603 829.5,510.5C 828.513,515.305 828.179,520.305 828.5,525.5C 838.348,525.173 848.014,525.506 857.5,526.5C 847.5,526.5 837.5,526.5 827.5,526.5C 827.666,521.489 827.499,516.489 827,511.5C 826.53,516.769 825.697,521.936 824.5,527C 835.312,528.133 846.146,528.966 857,529.5C 857.464,528.906 857.631,528.239 857.5,527.5C 858.344,530.973 858.344,534.306 857.5,537.5C 838.413,537.467 819.08,537.467 799.5,537.5C 799.5,534.5 799.5,531.5 799.5,528.5C 804.833,528.5 810.167,528.5 815.5,528.5C 815.5,521.833 815.5,515.167 815.5,508.5C 819.702,508.817 823.702,508.483 827.5,507.5 Z"/></g>
<g><path style="opacity:0.995" fill="#fe9500" d="M 299.5,576.5 C 299.667,553.164 299.5,529.831 299,506.5C 298.667,529.167 298.333,551.833 298,574.5C 297.586,574.957 297.086,575.291 296.5,575.5C 292.221,574.726 287.887,574.226 283.5,574C 279.724,570.952 277.058,567.119 275.5,562.5C 274.412,561.066 273.078,560.066 271.5,559.5C 268.756,552.855 265.089,546.688 260.5,541C 260.833,540.667 261.167,540.333 261.5,540C 257.633,537.11 255.133,533.277 254,528.5C 252.667,527.167 251.333,527.167 250,528.5C 249.503,530.81 249.337,533.143 249.5,535.5C 249.5,548.833 249.5,562.167 249.5,575.5C 244.901,575.8 240.401,575.467 236,574.5C 235.5,550.836 235.333,527.169 235.5,503.5C 240.915,502.022 246.248,502.355 251.5,504.5C 260.855,518.359 270.021,532.359 279,546.5C 279.69,547.738 280.19,547.738 280.5,546.5C 281.458,546.953 282.292,547.619 283,548.5C 283.167,548.167 283.333,547.833 283.5,547.5C 282.606,532.723 282.273,517.557 282.5,502C 288.317,500.547 294.317,500.047 300.5,500.5C 300.831,526.005 300.498,551.339 299.5,576.5 Z M 252.5,532.5 C 251.833,532.5 251.167,532.5 250.5,532.5C 250.638,528.714 251.305,528.714 252.5,532.5 Z"/></g>
<g><path style="opacity:0.004" fill="#fe9b01" d="M 277.5,534.5 C 278.833,535.167 278.833,535.167 277.5,534.5 Z"/></g>
<g><path style="opacity:0.004" fill="#fc9901" d="M 270.5,527.5 C 271.833,528.167 271.833,528.167 270.5,527.5 Z"/></g>
<g><path style="opacity:0.004" fill="#fd9c01" d="M 280.5,502.5 C 281.833,503.167 281.833,503.167 280.5,502.5 Z"/></g>
<g><path style="opacity:0.119" fill="#575758" d="M 575.5,537.5 C 553.833,537.5 532.167,537.5 510.5,537.5C 510.369,536.761 510.536,536.094 511,535.5C 532.598,536.161 554.098,536.828 575.5,537.5 Z"/></g>
<g><path style="opacity:0.008" fill="#5a5b5d" d="M 775.5,536.5 C 776.833,537.167 776.833,537.167 775.5,536.5 Z"/></g>
<g><path style="opacity:0.004" fill="#fe9900" d="M 231.5,537.5 C 232.833,538.167 232.833,538.167 231.5,537.5 Z"/></g>
<g><path style="opacity:0.004" fill="#565656" d="M 463.5,537.5 C 464.833,538.167 464.833,538.167 463.5,537.5 Z"/></g>
<g><path style="opacity:0.993" fill="#4a4b4c" d="M 635.5,552.5 C 634.226,551.811 634.226,550.977 635.5,550C 634.251,549.26 633.251,549.427 632.5,550.5C 631.833,550.167 631.167,549.833 630.5,549.5C 620.341,548.67 610.008,548.17 599.5,548C 598.549,544.943 598.216,541.777 598.5,538.5C 627.532,538.809 656.532,538.476 685.5,537.5C 685.5,540.833 685.5,544.167 685.5,547.5C 673.149,547.168 660.815,547.501 648.5,548.5C 647.529,557.112 647.196,565.779 647.5,574.5C 643.833,574.5 640.167,574.5 636.5,574.5C 636.833,566.41 636.499,559.077 635.5,552.5 Z"/></g>
<g><path style="opacity:0.004" fill="#545553" d="M 715.5,538.5 C 716.833,539.167 716.833,539.167 715.5,538.5 Z"/></g>
<g><path style="opacity:0.008" fill="#575658" d="M 720.5,539.5 C 720.897,538.475 721.563,538.308 722.5,539C 721.906,539.464 721.239,539.631 720.5,539.5 Z"/></g>
<g><path style="opacity:0.004" fill="#575956" d="M 737.5,538.5 C 738.833,539.167 738.833,539.167 737.5,538.5 Z"/></g>
<g><path style="opacity:0.004" fill="#565758" d="M 750.5,538.5 C 751.833,539.167 751.833,539.167 750.5,538.5 Z"/></g>
<g><path style="opacity:0.004" fill="#575858" d="M 758.5,538.5 C 759.833,539.167 759.833,539.167 758.5,538.5 Z"/></g>
<g><path style="opacity:0.004" fill="#585b5a" d="M 761.5,538.5 C 762.833,539.167 762.833,539.167 761.5,538.5 Z"/></g>
<g><path style="opacity:0.004" fill="#565657" d="M 768.5,538.5 C 769.833,539.167 769.833,539.167 768.5,538.5 Z"/></g>
<g><path style="opacity:0.004" fill="#59575a" d="M 774.5,539.5 C 774.897,538.475 775.563,538.308 776.5,539C 775.906,539.464 775.239,539.631 774.5,539.5 Z"/></g>
<g><path style="opacity:0.004" fill="#565758" d="M 793.5,538.5 C 794.833,539.167 794.833,539.167 793.5,538.5 Z"/></g>
<g><path style="opacity:0.138" fill="#4e4d4d" d="M 797.5,538.5 C 817.5,538.5 837.5,538.5 857.5,538.5C 855.782,539.224 853.948,539.891 852,540.5C 833.166,539.852 814.999,539.185 797.5,538.5 Z"/></g>
<g><path style="opacity:0.004" fill="#6e5f4a" d="M 413.5,540.5 C 412.833,541.167 412.833,541.167 413.5,540.5 Z"/></g>
<g><path style="opacity:0.671" fill="#363432" d="M 406.5,511.5 C 407.043,511.56 407.376,511.893 407.5,512.5C 401.898,524.928 405.231,534.095 417.5,540C 432.006,544.212 443.339,540.712 451.5,529.5C 448.401,537.086 442.734,541.586 434.5,543C 427.247,544.071 420.247,543.238 413.5,540.5C 411.266,538.11 408.599,536.276 405.5,535C 405.957,534.586 406.291,534.086 406.5,533.5C 405.469,532.3 404.635,530.966 404,529.5C 403.333,524.833 403.333,520.167 404,515.5C 404.662,514.016 405.496,512.683 406.5,511.5 Z"/></g>
<g><path style="opacity:0.316" fill="#4c4c4d" d="M 769.5,558.5 C 769.5,564.167 769.5,569.833 769.5,575.5C 773.833,575.5 778.167,575.5 782.5,575.5C 782.5,564.167 782.5,552.833 782.5,541.5C 759.475,540.844 736.809,541.51 714.5,543.5C 712.058,543.881 711.391,543.214 712.5,541.5C 736.157,540.5 759.824,540.167 783.5,540.5C 783.5,552.5 783.5,564.5 783.5,576.5C 778.5,576.5 773.5,576.5 768.5,576.5C 768.177,570.31 768.51,564.31 769.5,558.5 Z"/></g>
<g><path style="opacity:0.008" fill="#545855" d="M 808.5,540.5 C 809.833,541.167 809.833,541.167 808.5,540.5 Z"/></g>
<g><path style="opacity:0.004" fill="#555654" d="M 838.5,540.5 C 839.833,541.167 839.833,541.167 838.5,540.5 Z"/></g>
<g><path style="opacity:0.999" fill="#3c3c3d" d="M 976.5,489.5 C 975.833,517.833 975.167,546.167 974.5,574.5C 974.175,544.123 974.508,513.789 975.5,483.5C 971.893,482.511 968.226,482.177 964.5,482.5C 964.825,513.24 964.492,543.907 963.5,574.5C 967.634,575.485 971.968,575.818 976.5,575.5C 972.03,576.486 967.363,576.819 962.5,576.5C 962.829,544.593 962.496,512.76 961.5,481C 966.5,480.333 971.5,480.333 976.5,481C 976.542,484.313 976.542,487.146 976.5,489.5 Z"/></g>
<g><path style="opacity:0.992" fill="#4b4c4d" d="M 974.5,574.5 C 970.833,574.5 967.167,574.5 963.5,574.5C 964.492,543.907 964.825,513.24 964.5,482.5C 968.226,482.177 971.893,482.511 975.5,483.5C 974.508,513.789 974.175,544.123 974.5,574.5 Z"/></g>
<g><path style="opacity:0.01" fill="#fd9c00" d="M 231.5,541.5 C 232.525,541.897 232.692,542.563 232,543.5C 231.536,542.906 231.369,542.239 231.5,541.5 Z"/></g>
<g><path style="opacity:0.008" fill="#fe9b00" d="M 255.5,541.5 C 256.833,542.167 256.833,542.167 255.5,541.5 Z"/></g>
<g><path style="opacity:0.004" fill="#fea000" d="M 279.5,542.5 C 280.833,543.167 280.833,543.167 279.5,542.5 Z"/></g>
<g><path style="opacity:0.004" fill="#ec960c" d="M 372.5,542.5 C 373.833,543.167 373.833,543.167 372.5,542.5 Z"/></g>
<g><path style="opacity:0.004" fill="#6f604f" d="M 413.5,542.5 C 414.833,543.167 414.833,543.167 413.5,542.5 Z"/></g>
<g><path style="opacity:0.031" fill="#5b5b5b" d="M 597.5,536.5 C 597.5,540.833 597.5,545.167 597.5,549.5C 596.702,546.829 596.035,543.996 595.5,541C 595.899,539.272 596.566,537.772 597.5,536.5 Z"/></g>
<g><path style="opacity:0.996" fill="#4a4c4d" d="M 718.5,553.5 C 718.5,553.833 718.5,554.167 718.5,554.5C 717.833,554.833 717.167,555.167 716.5,555.5C 715.306,554.728 714.306,553.728 713.5,552.5C 714.167,552.5 714.5,552.167 714.5,551.5C 715.477,548.713 715.81,545.713 715.5,542.5C 737.5,542.5 759.5,542.5 781.5,542.5C 781.5,553.167 781.5,563.833 781.5,574.5C 777.833,574.5 774.167,574.5 770.5,574.5C 770.5,567.167 770.5,559.833 770.5,552.5C 751.131,552.163 733.797,552.496 718.5,553.5 Z"/></g>
<g><path style="opacity:0.008" fill="#525455" d="M 810.5,543.5 C 811.833,544.167 811.833,544.167 810.5,543.5 Z"/></g>
<g><path style="opacity:0.004" fill="#535959" d="M 814.5,543.5 C 815.833,544.167 815.833,544.167 814.5,543.5 Z"/></g>
<g><path style="opacity:0.945" fill="#202121" d="M 953.5,543.5 C 940.167,544.833 926.833,544.833 913.5,543.5C 927,543.417 940.334,543.417 953.5,543.5 Z"/></g>
<g><path style="opacity:0.004" fill="#fe9900" d="M 231.5,544.5 C 232.573,545.251 232.74,546.251 232,547.5C 231.517,546.552 231.351,545.552 231.5,544.5 Z"/></g>
<g><path style="opacity:0.012" fill="#645c56" d="M 425.5,546.5 C 424.761,546.631 424.094,546.464 423.5,546C 424.437,545.308 425.103,545.475 425.5,546.5 Z"/></g>
<g><path style="opacity:0.004" fill="#605a54" d="M 430.5,545.5 C 431.833,546.167 431.833,546.167 430.5,545.5 Z"/></g>
<g><path style="opacity:0.004" fill="#565658" d="M 827.5,545.5 C 828.833,546.167 828.833,546.167 827.5,545.5 Z"/></g>
<g><path style="opacity:0.004" fill="#585957" d="M 861.5,545.5 C 862.833,546.167 862.833,546.167 861.5,545.5 Z"/></g>
<g><path style="opacity:0.99" fill="#272829" d="M 932.5,512.5 C 922.583,513.499 911.916,513.832 900.5,513.5C 900.5,527.167 900.5,540.833 900.5,554.5C 918.674,554.17 936.674,554.503 954.5,555.5C 936.167,555.5 917.833,555.5 899.5,555.5C 899.343,540.984 899.343,526.318 899.5,511.5C 910.581,511.19 921.581,511.523 932.5,512.5 Z"/></g>
<g><path style="opacity:0.004" fill="#fd9703" d="M 79.5,546.5 C 80.8333,547.167 80.8333,547.167 79.5,546.5 Z"/></g>
<g><path style="opacity:0.004" fill="#fe9c00" d="M 262.5,547.5 C 261.833,548.167 261.833,548.167 262.5,547.5 Z"/></g>
<g><path style="opacity:0.01" fill="#605c56" d="M 428.5,548.5 C 429.525,548.897 429.692,549.563 429,550.5C 428.536,549.906 428.369,549.239 428.5,548.5 Z"/></g>
<g><path style="opacity:0.698" fill="#3b3b3c" d="M 683.5,550.5 C 672.346,549.505 661.012,549.172 649.5,549.5C 649.756,558.325 649.756,566.992 649.5,575.5C 644.833,575.5 640.167,575.5 635.5,575.5C 635.5,568.833 635.5,562.167 635.5,555.5C 634.167,554.5 634.167,553.5 635.5,552.5C 636.499,559.077 636.833,566.41 636.5,574.5C 640.167,574.5 643.833,574.5 647.5,574.5C 647.196,565.779 647.529,557.112 648.5,548.5C 660.815,547.501 673.149,547.168 685.5,547.5C 685.5,544.167 685.5,540.833 685.5,537.5C 656.532,538.476 627.532,538.809 598.5,538.5C 598.216,541.777 598.549,544.943 599.5,548C 610.008,548.17 620.341,548.67 630.5,549.5C 619.5,549.5 608.5,549.5 597.5,549.5C 597.5,545.167 597.5,540.833 597.5,536.5C 627.338,535.834 656.672,535.5 685.5,535.5C 686.086,535.709 686.586,536.043 687,536.5C 687.984,541.7 687.484,546.7 685.5,551.5C 684.817,551.137 684.15,550.804 683.5,550.5 Z"/></g>
<g><path style="opacity:0.012" fill="#565556" d="M 712.5,548.5 C 713.833,549.167 713.833,549.167 712.5,548.5 Z"/></g>
<g><path style="opacity:0.008" fill="#565556" d="M 825.5,548.5 C 826.833,549.167 826.833,549.167 825.5,548.5 Z"/></g>
<g><path style="opacity:0.49" fill="#fc8500" d="M 271.5,559.5 C 268.5,555.5 265.5,551.5 262.5,547.5C 259.402,542.291 256.068,537.291 252.5,532.5C 251.305,528.714 250.638,528.714 250.5,532.5C 250.5,533.5 250.5,534.5 250.5,535.5C 250.167,535.5 249.833,535.5 249.5,535.5C 249.337,533.143 249.503,530.81 250,528.5C 251.333,527.167 252.667,527.167 254,528.5C 255.133,533.277 257.633,537.11 261.5,540C 261.167,540.333 260.833,540.667 260.5,541C 265.089,546.688 268.756,552.855 271.5,559.5 Z M 252.5,532.5 C 251.833,532.5 251.167,532.5 250.5,532.5C 250.638,528.714 251.305,528.714 252.5,532.5 Z"/></g>
<g><path style="opacity:0.991" fill="#4b4b4c" d="M 425.5,546.5 C 426.404,547.209 426.737,548.209 426.5,549.5C 425.513,554.305 425.179,559.305 425.5,564.5C 445.527,564.847 462.194,564.513 475.5,563.5C 477.218,562.776 479.052,562.109 481,561.5C 481.425,566.284 481.925,570.784 482.5,575C 481.552,575.483 480.552,575.649 479.5,575.5C 457.673,574.503 435.673,574.169 413.5,574.5C 413.841,565.439 413.508,557.772 412.5,551.5C 411.596,550.791 411.263,549.791 411.5,548.5C 415.714,547.341 419.881,547.341 424,548.5C 424.717,547.956 425.217,547.289 425.5,546.5 Z"/></g>
<g><path style="opacity:0.092" fill="#5a595b" d="M 864.5,549.5 C 868.833,549.5 873.167,549.5 877.5,549.5C 877.631,550.239 877.464,550.906 877,551.5C 872.732,550.86 868.565,550.193 864.5,549.5 Z"/></g>
<g><path style="opacity:0.004" fill="#fe9c00" d="M 261.5,550.5 C 262.833,551.167 262.833,551.167 261.5,550.5 Z"/></g>
<g><path style="opacity:0.02" fill="#535252" d="M 597.5,550.5 C 598.833,551.167 598.833,551.167 597.5,550.5 Z"/></g>
<g><path style="opacity:0.004" fill="#585755" d="M 604.5,550.5 C 605.833,551.167 605.833,551.167 604.5,550.5 Z"/></g>
<g><path style="opacity:0.004" fill="#575957" d="M 613.5,550.5 C 614.833,551.167 614.833,551.167 613.5,550.5 Z"/></g>
<g><path style="opacity:0.004" fill="#575755" d="M 615.5,550.5 C 616.833,551.167 616.833,551.167 615.5,550.5 Z"/></g>
<g><path style="opacity:0.02" fill="#545356" d="M 632.5,550.5 C 633.833,551.167 633.833,551.167 632.5,550.5 Z"/></g>
<g><path style="opacity:0.004" fill="#585857" d="M 652.5,551.5 C 652.897,550.475 653.563,550.308 654.5,551C 653.906,551.464 653.239,551.631 652.5,551.5 Z"/></g>
<g><path style="opacity:0.004" fill="#555554" d="M 655.5,550.5 C 656.833,551.167 656.833,551.167 655.5,550.5 Z"/></g>
<g><path style="opacity:0.012" fill="#555553" d="M 672.5,550.5 C 673.833,551.167 673.833,551.167 672.5,550.5 Z"/></g>
<g><path style="opacity:0.012" fill="#555755" d="M 676.5,550.5 C 677.833,551.167 677.833,551.167 676.5,550.5 Z"/></g>
<g><path style="opacity:0.016" fill="#595857" d="M 679.5,551.5 C 679.897,550.475 680.563,550.308 681.5,551C 680.906,551.464 680.239,551.631 679.5,551.5 Z"/></g>
<g><path style="opacity:0.008" fill="#585a55" d="M 683.5,550.5 C 682.833,551.167 682.833,551.167 683.5,550.5 Z"/></g>
<g><path style="opacity:0.004" fill="#565557" d="M 713.5,552.5 C 712.475,552.103 712.308,551.437 713,550.5C 713.464,551.094 713.631,551.761 713.5,552.5 Z"/></g>
<g><path style="opacity:0.999" fill="#242526" d="M 769.5,558.5 C 768.193,557.198 768.193,555.865 769.5,554.5C 766.667,554.167 763.833,553.833 761,553.5C 747.174,553.379 733.341,553.712 719.5,554.5C 719.5,553.833 719.167,553.5 718.5,553.5C 733.797,552.496 751.131,552.163 770.5,552.5C 770.5,559.833 770.5,567.167 770.5,574.5C 774.167,574.5 777.833,574.5 781.5,574.5C 781.5,563.833 781.5,553.167 781.5,542.5C 759.5,542.5 737.5,542.5 715.5,542.5C 715.81,545.713 715.477,548.713 714.5,551.5C 714.5,548.833 714.5,546.167 714.5,543.5C 736.809,541.51 759.475,540.844 782.5,541.5C 782.5,552.833 782.5,564.167 782.5,575.5C 778.167,575.5 773.833,575.5 769.5,575.5C 769.5,569.833 769.5,564.167 769.5,558.5 Z"/></g>
<g><path style="opacity:0.999" fill="#fd7a00" d="M 235.5,503.5 C 235.333,527.169 235.5,550.836 236,574.5C 240.401,575.467 244.901,575.8 249.5,575.5C 249.5,562.167 249.5,548.833 249.5,535.5C 249.833,535.5 250.167,535.5 250.5,535.5C 250.5,549.167 250.5,562.833 250.5,576.5C 244.858,576.586 239.524,576.586 234.5,576.5C 234.166,550.788 234.5,526.455 235.5,503.5 Z"/></g>
<g><path style="opacity:0.004" fill="#fd9e00" d="M 346.5,553.5 C 345.833,552.167 345.833,552.167 346.5,553.5 Z"/></g>
<g><path style="opacity:0.961" fill="#3d3d3f" d="M 976.5,489.5 C 977.2,517.588 977.2,546.255 976.5,575.5C 971.968,575.818 967.634,575.485 963.5,574.5C 967.167,574.5 970.833,574.5 974.5,574.5C 975.167,546.167 975.833,517.833 976.5,489.5 Z"/></g>
<g><path style="opacity:0.004" fill="#fe9900" d="M 214.5,553.5 C 215.833,554.167 215.833,554.167 214.5,553.5 Z"/></g>
<g><path style="opacity:0.004" fill="#fa9c04" d="M 81.5,554.5 C 82.8333,555.167 82.8333,555.167 81.5,554.5 Z"/></g>
<g><path style="opacity:0.892" fill="#fc8b00" d="M 159.5,575.5 C 155.629,575.185 151.962,575.518 148.5,576.5C 147.703,577.478 147.036,577.145 146.5,575.5C 146.833,574.167 147.167,572.833 147.5,571.5C 146.757,570.818 146.091,570.151 145.5,569.5C 146.376,569.631 147.043,569.298 147.5,568.5C 146.277,549.501 146.277,530.501 147.5,511.5C 147.336,508.813 147.503,506.146 148,503.5C 148.835,511.387 149.668,519.221 150.5,527C 149.659,542.362 149.326,558.195 149.5,574.5C 153.042,574.187 156.375,574.521 159.5,575.5 Z"/></g>
<g><path style="opacity:0.02" fill="#555557" d="M 718.5,554.5 C 718.833,554.5 719.167,554.5 719.5,554.5C 719.315,555.17 718.981,555.17 718.5,554.5 Z"/></g>
<g><path style="opacity:0.004" fill="#575857" d="M 721.5,554.5 C 722.833,555.167 722.833,555.167 721.5,554.5 Z"/></g>
<g><path style="opacity:1" fill="#fb7f00" d="M 351.5,527.5 C 351.833,527.5 352.167,527.5 352.5,527.5C 352.464,536.656 351.298,545.656 349,554.5C 346.276,564.849 341.776,574.183 335.5,582.5C 338.321,576.188 341.155,569.855 344,563.5C 345.352,560.28 346.186,556.947 346.5,553.5C 349.226,545.166 350.892,536.499 351.5,527.5 Z"/></g>
<g><path style="opacity:0.01" fill="#565656" d="M 716.5,555.5 C 716.5,555.833 716.5,556.167 716.5,556.5C 713.833,556.167 713.833,555.833 716.5,555.5 Z"/></g>
<g><path style="opacity:0.004" fill="#585857" d="M 721.5,555.5 C 720.833,556.167 720.833,556.167 721.5,555.5 Z"/></g>
<g><path style="opacity:0.008" fill="#575856" d="M 745.5,555.5 C 746.833,556.167 746.833,556.167 745.5,555.5 Z"/></g>
<g><path style="opacity:0.078" fill="#575859" d="M 899.5,555.5 C 917.833,555.5 936.167,555.5 954.5,555.5C 955.167,555.5 955.833,555.5 956.5,555.5C 953.103,556.198 949.603,556.865 946,557.5C 937,556.167 928,556.167 919,557.5C 912.401,556.85 905.901,556.184 899.5,555.5 Z"/></g>
<g><path style="opacity:0.008" fill="#565556" d="M 716.5,556.5 C 717.833,557.167 717.833,557.167 716.5,556.5 Z"/></g>
<g><path style="opacity:0.016" fill="#fca100" d="M 108.5,557.5 C 109.833,558.167 109.833,558.167 108.5,557.5 Z"/></g>
<g><path style="opacity:0.004" fill="#555655" d="M 911.5,557.5 C 912.833,558.167 912.833,558.167 911.5,557.5 Z"/></g>
<g><path style="opacity:0.008" fill="#565757" d="M 931.5,558.5 C 931.897,557.475 932.563,557.308 933.5,558C 932.906,558.464 932.239,558.631 931.5,558.5 Z"/></g>
<g><path style="opacity:0.008" fill="#545757" d="M 940.5,557.5 C 941.833,558.167 941.833,558.167 940.5,557.5 Z"/></g>
<g><path style="opacity:0.008" fill="#555653" d="M 951.5,557.5 C 952.833,558.167 952.833,558.167 951.5,557.5 Z"/></g>
<g><path style="opacity:0.008" fill="#fe9900" d="M 110.5,558.5 C 111.833,559.167 111.833,559.167 110.5,558.5 Z"/></g>
<g><path style="opacity:0.008" fill="#5f5b57" d="M 428.5,559.5 C 429.833,560.167 429.833,560.167 428.5,559.5 Z"/></g>
<g><path style="opacity:0.642" fill="#2b2b2b" d="M 510.5,537.5 C 532.167,537.5 553.833,537.5 575.5,537.5C 554.34,538.497 533.007,538.831 511.5,538.5C 511.5,550.5 511.5,562.5 511.5,574.5C 511.5,574.833 511.5,575.167 511.5,575.5C 510.761,575.631 510.094,575.464 509.5,575C 510.489,562.58 510.822,550.08 510.5,537.5 Z"/></g>
<g><path style="opacity:0.042" fill="#535252" d="M 635.5,555.5 C 635.5,562.167 635.5,568.833 635.5,575.5C 640.167,575.5 644.833,575.5 649.5,575.5C 647.19,576.164 644.69,576.497 642,576.5C 638.973,576.618 636.139,576.118 633.5,575C 634.15,568.401 634.816,561.901 635.5,555.5 Z"/></g>
<g><path style="opacity:0.008" fill="#565858" d="M 847.5,560.5 C 848.833,561.167 848.833,561.167 847.5,560.5 Z"/></g>
<g><path style="opacity:0.004" fill="#555556" d="M 868.5,560.5 C 869.833,561.167 869.833,561.167 868.5,560.5 Z"/></g>
<g><path style="opacity:0.008" fill="#555456" d="M 873.5,560.5 C 874.833,561.167 874.833,561.167 873.5,560.5 Z"/></g>
<g><path style="opacity:0.004" fill="#fe9a00" d="M 214.5,561.5 C 215.833,562.167 215.833,562.167 214.5,561.5 Z"/></g>
<g><path style="opacity:0.027" fill="#fd9901" d="M 250.5,532.5 C 251.167,532.5 251.833,532.5 252.5,532.5C 251.849,547.265 251.182,561.931 250.5,576.5C 250.5,562.833 250.5,549.167 250.5,535.5C 250.5,534.5 250.5,533.5 250.5,532.5 Z"/></g>
<g><path style="opacity:0.715" fill="#3a3a3b" d="M 878.5,575.5 C 878.836,571.051 878.503,567.384 877.5,564.5C 859.167,564.5 840.833,564.5 822.5,564.5C 822.5,558.833 822.5,553.167 822.5,547.5C 823.167,547.5 823.5,547.167 823.5,546.5C 823.954,550.534 824.954,555.034 826.5,560C 825.692,560.308 825.025,560.808 824.5,561.5C 842.821,562.5 861.155,562.833 879.5,562.5C 879.818,567.032 879.485,571.366 878.5,575.5 Z"/></g>
<g><path style="opacity:0.999" fill="#2f2e2d" d="M 426.5,549.5 C 426.667,553.584 426.667,557.917 426.5,562.5C 443.356,562.332 459.689,562.665 475.5,563.5C 462.194,564.513 445.527,564.847 425.5,564.5C 425.179,559.305 425.513,554.305 426.5,549.5 Z"/></g>
<g><path style="opacity:0.004" fill="#f99b05" d="M 80.5,564.5 C 81.8333,565.167 81.8333,565.167 80.5,564.5 Z"/></g>
<g><path style="opacity:0.8" fill="#fc7d01" d="M 372.5,446.5 C 372.5,474.167 372.5,501.833 372.5,529.5C 371.616,552.814 365.282,574.48 353.5,594.5C 352.427,593.749 352.26,592.749 353,591.5C 356.866,585.102 360.199,578.435 363,571.5C 369.667,549.665 372.5,527.332 371.5,504.5C 371.17,484.993 371.503,465.659 372.5,446.5 Z"/></g>
<g><path style="opacity:0.027" fill="#7e6c52" d="M 412.5,563.5 C 412.5,564.833 412.5,566.167 412.5,567.5C 410.219,566.366 410.219,565.032 412.5,563.5 Z"/></g>
<g><path style="opacity:0.008" fill="#5a5757" d="M 482.5,563.5 C 483.525,563.897 483.692,564.563 483,565.5C 482.536,564.906 482.369,564.239 482.5,563.5 Z"/></g>
<g><path style="opacity:0.004" fill="#fc9a04" d="M 84.5,566.5 C 85.8333,567.167 85.8333,567.167 84.5,566.5 Z"/></g>
<g><path style="opacity:0.004" fill="#fe9900" d="M 301.5,566.5 C 302.833,567.167 302.833,567.167 301.5,566.5 Z"/></g>
<g><path style="opacity:0.996" fill="#4a4b4c" d="M 575.5,537.5 C 576.625,538.348 576.625,539.348 575.5,540.5C 574.505,551.654 574.172,562.988 574.5,574.5C 553.5,574.5 532.5,574.5 511.5,574.5C 511.5,562.5 511.5,550.5 511.5,538.5C 533.007,538.831 554.34,538.497 575.5,537.5 Z M 561.5,550.5 C 561.81,553.713 561.477,556.713 560.5,559.5C 560.804,560.15 561.137,560.817 561.5,561.5C 560.051,562.172 558.718,562.839 557.5,563.5C 547.123,562.345 536.789,562.345 526.5,563.5C 525.564,559.265 525.231,554.931 525.5,550.5C 537.5,550.5 549.5,550.5 561.5,550.5 Z"/></g>
<g><path style="opacity:0.976" fill="#242425" d="M 561.5,549.5 C 549.167,549.5 536.833,549.5 524.5,549.5C 523.897,554.619 524.564,559.285 526.5,563.5C 536.789,562.345 547.123,562.345 557.5,563.5C 548.87,564.518 537.537,564.852 523.5,564.5C 523.5,559.167 523.5,553.833 523.5,548.5C 536.344,548.171 549.011,548.505 561.5,549.5 Z"/></g>
<g><path style="opacity:0.075" fill="#565556" d="M 561.5,549.5 C 561.5,549.833 561.5,550.167 561.5,550.5C 549.5,550.5 537.5,550.5 525.5,550.5C 525.231,554.931 525.564,559.265 526.5,563.5C 524.564,559.285 523.897,554.619 524.5,549.5C 536.833,549.5 549.167,549.5 561.5,549.5 Z"/></g>
<g><path style="opacity:0.012" fill="#fe9b00" d="M 192.5,567.5 C 193.833,568.167 193.833,568.167 192.5,567.5 Z"/></g>
<g><path style="opacity:0.004" fill="#fe9d00" d="M 275.5,567.5 C 274.833,568.167 274.833,568.167 275.5,567.5 Z"/></g>
<g><path style="opacity:0.997" fill="#4a4b4d" d="M 822.5,547.5 C 822.5,553.167 822.5,558.833 822.5,564.5C 840.833,564.5 859.167,564.5 877.5,564.5C 877.5,567.833 877.5,571.167 877.5,574.5C 855.5,574.5 833.5,574.5 811.5,574.5C 811.5,565.5 811.5,556.5 811.5,547.5C 815.167,547.5 818.833,547.5 822.5,547.5 Z"/></g>
<g><path style="opacity:0.004" fill="#fe9c00" d="M 145.5,569.5 C 144.833,568.167 144.833,568.167 145.5,569.5 Z"/></g>
<g><path style="opacity:0.006" fill="#fe9900" d="M 214.5,568.5 C 215.525,568.897 215.692,569.563 215,570.5C 214.536,569.906 214.369,569.239 214.5,568.5 Z"/></g>
<g><path style="opacity:0.016" fill="#f0980c" d="M 366.5,568.5 C 367.833,569.167 367.833,569.167 366.5,568.5 Z"/></g>
<g><path style="opacity:0.004" fill="#fe9800" d="M 231.5,569.5 C 232.833,570.167 232.833,570.167 231.5,569.5 Z"/></g>
<g><path style="opacity:0.004" fill="#fd9b00" d="M 277.5,570.5 C 276.833,571.167 276.833,571.167 277.5,570.5 Z"/></g>
<g><path style="opacity:0.004" fill="#fe9700" d="M 277.5,572.5 C 278.833,573.167 278.833,573.167 277.5,572.5 Z"/></g>
<g><path style="opacity:0.014" fill="#816d4f" d="M 412.5,571.5 C 412.5,572.833 412.5,574.167 412.5,575.5C 411.414,575.38 410.747,574.713 410.5,573.5C 410.747,572.287 411.414,571.62 412.5,571.5 Z"/></g>
<g><path style="opacity:0.951" fill="#fc7e00" d="M 299.5,576.5 C 293.491,576.666 287.491,576.499 281.5,576C 280.512,573.833 279.179,572 277.5,570.5C 277.068,569.29 276.401,568.29 275.5,567.5C 273.733,565.062 272.399,562.395 271.5,559.5C 273.078,560.066 274.412,561.066 275.5,562.5C 277.058,567.119 279.724,570.952 283.5,574C 287.887,574.226 292.221,574.726 296.5,575.5C 297.086,575.291 297.586,574.957 298,574.5C 298.333,551.833 298.667,529.167 299,506.5C 299.5,529.831 299.667,553.164 299.5,576.5 Z"/></g>
<g><path style="opacity:0.004" fill="#fe9900" d="M 301.5,574.5 C 302.833,575.167 302.833,575.167 301.5,574.5 Z"/></g>
<g><path style="opacity:0.956" fill="#171616" d="M 479.5,575.5 C 457.167,575.5 434.833,575.5 412.5,575.5C 412.5,574.167 412.5,572.833 412.5,571.5C 411.167,570.167 411.167,568.833 412.5,567.5C 412.5,566.167 412.5,564.833 412.5,563.5C 411.568,562.313 411.568,560.98 412.5,559.5C 412.182,558.353 411.516,557.519 410.5,557C 412.192,555.599 412.859,553.766 412.5,551.5C 413.508,557.772 413.841,565.439 413.5,574.5C 435.673,574.169 457.673,574.503 479.5,575.5 Z"/></g>
<g><path style="opacity:0.942" fill="#212122" d="M 575.5,540.5 C 576.372,552.15 576.705,563.483 576.5,574.5C 554.844,575.5 533.177,575.833 511.5,575.5C 511.5,575.167 511.5,574.833 511.5,574.5C 532.5,574.5 553.5,574.5 574.5,574.5C 574.172,562.988 574.505,551.654 575.5,540.5 Z"/></g>
<g><path style="opacity:0.943" fill="#262728" d="M 823.5,546.5 C 823.5,547.167 823.167,547.5 822.5,547.5C 818.833,547.5 815.167,547.5 811.5,547.5C 811.5,556.5 811.5,565.5 811.5,574.5C 833.5,574.5 855.5,574.5 877.5,574.5C 877.5,571.167 877.5,567.833 877.5,564.5C 878.503,567.384 878.836,571.051 878.5,575.5C 855.977,575.591 832.977,575.591 809.5,575.5C 809.5,565.833 809.5,556.167 809.5,546.5C 814.167,546.5 818.833,546.5 823.5,546.5 Z"/></g>
<g><path style="opacity:0.8" fill="#fc8000" d="M 165.5,552.5 C 166.412,559.96 166.579,567.627 166,575.5C 160.259,576.475 154.425,576.808 148.5,576.5C 151.962,575.518 155.629,575.185 159.5,575.5C 161.042,574.699 162.708,574.366 164.5,574.5C 164.167,566.41 164.501,559.077 165.5,552.5 Z"/></g>
<g><path style="opacity:0.004" fill="#ff9d03" d="M 192.5,574.5 C 193.525,574.897 193.692,575.563 193,576.5C 192.536,575.906 192.369,575.239 192.5,574.5 Z"/></g>
<g><path style="opacity:0.008" fill="#fc9c00" d="M 162.5,577.5 C 163.833,578.167 163.833,578.167 162.5,577.5 Z"/></g>
<g><path style="opacity:0.004" fill="#fb9d05" d="M 209.5,577.5 C 210.833,578.167 210.833,578.167 209.5,577.5 Z"/></g>
<g><path style="opacity:0.008" fill="#fa9b02" d="M 87.5,578.5 C 88.8333,579.167 88.8333,579.167 87.5,578.5 Z"/></g>
<g><path style="opacity:0.004" fill="#f79a02" d="M 89.5,578.5 C 90.8333,579.167 90.8333,579.167 89.5,578.5 Z"/></g>
<g><path style="opacity:0.004" fill="#fd9500" d="M 118.5,579.5 C 119.833,580.167 119.833,580.167 118.5,579.5 Z"/></g>
<g><path style="opacity:0.008" fill="#f89b04" d="M 89.5,581.5 C 90.8333,582.167 90.8333,582.167 89.5,581.5 Z"/></g>
<g><path style="opacity:0.004" fill="#fe9e01" d="M 237.5,582.5 C 238.833,583.167 238.833,583.167 237.5,582.5 Z"/></g>
<g><path style="opacity:0.008" fill="#fb9900" d="M 124.5,584.5 C 125.833,585.167 125.833,585.167 124.5,584.5 Z"/></g>
<g><path style="opacity:0.004" fill="#fd9e00" d="M 329.5,586.5 C 330.833,587.167 330.833,587.167 329.5,586.5 Z"/></g>
<g><path style="opacity:0.004" fill="#f99b04" d="M 98.5,594.5 C 97.8333,595.167 97.8333,595.167 98.5,594.5 Z"/></g>
<g><path style="opacity:0.024" fill="#f99b02" d="M 100.5,597.5 C 99.8333,598.167 99.8333,598.167 100.5,597.5 Z"/></g>
<g><path style="opacity:0.984" fill="#fd8100" d="M 108.5,558.5 C 117.266,586.585 133.932,608.585 158.5,624.5C 174.709,635.685 192.709,642.351 212.5,644.5C 211.551,645.152 210.385,645.486 209,645.5C 204.511,644.901 200.011,644.401 195.5,644C 136.115,624.755 104.448,583.922 100.5,521.5C 93.8333,521.5 87.1667,521.5 80.5,521.5C 81.1221,535.487 83.4555,549.154 87.5,562.5C 87.4805,563.726 87.1471,564.726 86.5,565.5C 81.5754,550.615 79.2421,535.281 79.5,519.5C 87.1739,519.334 94.8406,519.5 102.5,520C 101.892,521.231 101.559,522.564 101.5,524C 102.26,530.509 103.094,537.009 104,543.5C 104.747,548.843 106.247,553.843 108.5,558.5 Z"/></g>
<g><path style="opacity:0.004" fill="#fd9d00" d="M 304.5,612.5 C 305.833,613.167 305.833,613.167 304.5,612.5 Z"/></g>
<g><path style="opacity:0.004" fill="#f59b05" d="M 115.5,617.5 C 114.833,618.167 114.833,618.167 115.5,617.5 Z"/></g>
<g><path style="opacity:0.004" fill="#fe9b00" d="M 299.5,618.5 C 300.833,619.167 300.833,619.167 299.5,618.5 Z"/></g>
<g><path style="opacity:0.925" fill="#fc8001" d="M 351.5,597.5 C 331.485,630.503 302.818,652.17 265.5,662.5C 265.062,662.565 264.728,662.399 264.5,662C 300.762,650.732 329.262,629.232 350,597.5C 350.69,596.262 351.19,596.262 351.5,597.5 Z"/></g>
<g><path style="opacity:0.004" fill="#fc9505" d="M 158.5,623.5 C 159.833,624.167 159.833,624.167 158.5,623.5 Z"/></g>
<g><path style="opacity:0.763" fill="#fc8200" d="M 334.5,583.5 C 335.573,584.251 335.74,585.251 335,586.5C 315.233,617.98 287.066,637.48 250.5,645C 247.961,645.796 245.628,645.629 243.5,644.5C 283.145,637.858 313.478,617.525 334.5,583.5 Z"/></g>
<g><path style="opacity:0.016" fill="#f89904" d="M 132.5,635.5 C 133.833,636.167 133.833,636.167 132.5,635.5 Z"/></g>
<g><path style="opacity:0.865" fill="#fc8200" d="M 168.5,655.5 C 147.969,646.607 130.302,633.94 115.5,617.5C 110.469,610.81 105.469,604.143 100.5,597.5C 100.573,595.973 99.9063,594.973 98.5,594.5C 93.9975,585.83 90.3309,576.83 87.5,567.5C 87.81,566.262 88.31,566.262 89,567.5C 92.9636,577.414 97.2969,587.081 102,596.5C 112.796,612.179 125.629,626.012 140.5,638C 150.652,643.621 159.985,649.455 168.5,655.5 Z"/></g>
<g><path style="opacity:0.004" fill="#f79806" d="M 167.5,658.5 C 168.833,659.167 168.833,659.167 167.5,658.5 Z"/></g>
<g><path style="opacity:0.873" fill="#fd8500" d="M 263.5,663.5 C 231.722,671.026 200.722,668.693 170.5,656.5C 170.735,655.903 171.235,655.57 172,655.5C 176.012,657.508 180.179,658.675 184.5,659C 182.405,658.444 182.238,657.944 184,657.5C 191.352,661.395 199.185,663.895 207.5,665C 221.146,665.447 234.646,665.613 248,665.5C 252.294,664.504 256.628,663.504 261,662.5C 262.07,662.528 262.903,662.861 263.5,663.5 Z"/></g>
<g><path style="opacity:0.012" fill="#f89802" d="M 204.5,668.5 C 204.897,667.475 205.563,667.308 206.5,668C 205.906,668.464 205.239,668.631 204.5,668.5 Z"/></g>
<g><path style="opacity:0.016" fill="#f99506" d="M 209.5,668.5 C 210.833,669.167 210.833,669.167 209.5,668.5 Z"/></g>
<g><path style="opacity:0.008" fill="#fa9603" d="M 219.5,669.5 C 219.897,668.475 220.563,668.308 221.5,669C 220.906,669.464 220.239,669.631 219.5,669.5 Z"/></g>
<g><path style="opacity:0.004" fill="#675e4e" d="M 403.5,845.5 C 404.833,846.167 404.833,846.167 403.5,845.5 Z"/></g>
<g><path style="opacity:0.004" fill="#665745" d="M 251.5,885.5 C 252.833,886.167 252.833,886.167 251.5,885.5 Z"/></g>
<g><path style="opacity:0.004" fill="#555453" d="M 899.5,925.5 C 900.833,926.167 900.833,926.167 899.5,925.5 Z"/></g>
<g><path style="opacity:0.004" fill="#555853" d="M 467.5,1005.5 C 468.833,1006.17 468.833,1006.17 467.5,1005.5 Z"/></g>
<g><path style="opacity:0.004" fill="#575555" d="M 692.5,1008.5 C 693.833,1009.17 693.833,1009.17 692.5,1008.5 Z"/></g>
</svg>
